<?xml version="1.0" encoding="UTF-8"?>
<svg id="action-roll-dice" xmlns="http://www.w3.org/2000/svg" xmlns:xlink="http://www.w3.org/1999/xlink" viewBox="0 0 80 80">
  <defs>
    <style>
      .cls-1, .cls-2, .cls-3, .cls-4 {
        stroke: #1d1d1b;
      }

      .cls-1, .cls-3, .cls-4 {
        stroke-linecap: round;
        stroke-linejoin: round;
        stroke-width: .8px;
      }

      .cls-1, .cls-5 {
        fill: #1d1d1b;
      }

      .cls-2 {
        fill: url(#radial-gradient);
        filter: url(#drop-shadow-1);
        stroke-miterlimit: 10;
        stroke-width: 2px;
      }

      .cls-3 {
        fill: #fff;
      }

      .cls-4 {
        fill: #ffe266;
      }
    </style>
    <radialGradient id="radial-gradient" cx="39.12967" cy="50.55011" fx="20.23394" fy="50.55011" r="36.77587" gradientUnits="userSpaceOnUse">
      <stop offset="0" stop-color="#fff"/>
      <stop offset=".5968" stop-color="#fbfbfb"/>
      <stop offset="1" stop-color="#f4f4f4"/>
    </radialGradient>
    <filter id="drop-shadow-1" filterUnits="userSpaceOnUse">
      <feOffset dx="2" dy="2"/>
      <feGaussianBlur result="blur" stdDeviation="2"/>
      <feFlood flood-color="#000" flood-opacity=".25"/>
      <feComposite in2="blur" operator="in"/>
      <feComposite in="SourceGraphic"/>
    </filter>
  </defs>
  <circle class="cls-2" cx="40" cy="40" r="27.5"/>
  <g>
    <path class="cls-3" d="M38.82811,39.77028l-1.76502-10.75078c-.05173-.31509,.07276-.63327,.32459-.82958l8.31993-6.48607c.24149-.18826,.564-.23618,.84979-.12625l10.3704,3.98886c.28048,.10788,.48571,.3525,.54323,.64745l1.94336,9.96658c.06256,.32085-.05944,.64975-.31611,.85218l-8.58012,6.76709c-.23193,.18292-.54064,.23609-.8204,.14131l-10.28855-3.48568c-.3054-.10347-.52886-.36692-.5811-.68511Z"/>
    <path class="cls-4" d="M38.45153,29.05072l9.80771,3.6127c.29042,.10698,.61578,.05212,.85507-.14418l7.1051-5.8285c.51726-.42432,.38426-1.24895-.24018-1.48913l-9.42186-3.62401c-.28579-.10993-.6083-.06202-.84979,.12625l-7.49096,5.83982c-.53965,.4207-.40719,1.27054,.23489,1.50706Z"/>
    <path class="cls-4" d="M49.95318,42.56021l-1.16489-9.24599c-.03749-.29757,.08046-.59353,.31234-.78375l7.14777-5.8635c.51065-.4189,1.28354-.14062,1.40995,.50766l1.75603,9.00586c.06256,.32085-.05944,.64975-.31611,.85218l-7.73892,6.10363c-.53321,.42054-1.32129,.09767-1.40618-.57609Z"/>
    <path class="cls-4" d="M38.82811,39.77028l-1.6063-9.78401c-.10833-.65984,.53527-1.19135,1.16273-.96022l9.84568,3.62668c.30585,.11266,.52342,.38638,.56416,.70977l1.17771,9.34777c.08053,.63921-.5356,1.14229-1.14579,.93557l-9.41708-3.19044c-.3054-.10347-.52886-.36692-.5811-.68511Z"/>
    <ellipse class="cls-5" cx="46.81215" cy="24.30432" rx="1.33318" ry=".9925" transform="translate(-2.24438 4.92563) rotate(-5.88241)"/>
    <ellipse class="cls-5" cx="54.10599" cy="33.77529" rx="1.33318" ry=".9925" transform="translate(14.8443 84.04205) rotate(-83.98198)"/>
    <ellipse class="cls-5" cx="45.20815" cy="34.8965" rx=".9925" ry="1.33318" transform="translate(-11.67826 29.84887) rotate(-32.59413)"/>
    <ellipse class="cls-5" cx="42.48399" cy="27.64552" rx="1.33318" ry=".9925" transform="translate(-2.60961 4.49964) rotate(-5.88241)"/>
    <ellipse class="cls-5" cx="47.34506" cy="29.47669" rx="1.33318" ry=".9925" transform="translate(-2.77168 5.00748) rotate(-5.88241)"/>
    <ellipse class="cls-5" cx="51.62741" cy="26.2192" rx="1.33318" ry=".9925" transform="translate(-2.41528 5.42921) rotate(-5.88241)"/>
  </g>
  <g>
    <path class="cls-1" d="M20.60383,48.25131l3.33356-12.74436c.0977-.37351,.3916-.66384,.76629-.75697l12.37903-3.07666c.35931-.0893,.73914,.01626,1.00085,.27816l9.49639,9.50324c.25684,.25703,.36336,.62812,.28194,.98224l-2.75115,11.96566c-.08857,.3852-.38499,.6886-.76803,.7861l-12.80459,3.25924c-.34611,.0881-.7133-.00487-.97579-.24707l-9.65324-8.90712c-.28654-.2644-.40393-.66526-.30527-1.04246Z"/>
    <path class="cls-4" d="M25.45594,36.2238l9.05962,8.81114c.26827,.26091,.65468,.36021,1.0155,.26095l10.71379-2.94724c.77998-.21456,1.03831-1.19093,.4665-1.76315l-8.62779-8.63401c-.26171-.2619-.64154-.36746-1.00085-.27816l-11.14563,2.77011c-.80293,.19956-1.07425,1.20352-.48115,1.78036Z"/>
    <path class="cls-4" d="M31.52315,56.80092l3.25704-10.787c.10482-.34716,.38058-.61616,.73023-.71235l10.77813-2.96494c.77002-.21182,1.4871,.47545,1.30815,1.25376l-2.48595,10.81223c-.08857,.3852-.38499,.6886-.76803,.7861l-11.54921,2.9397c-.79574,.20255-1.5077-.54144-1.27036-1.32751Z"/>
    <path class="cls-4" d="M20.60383,48.25131l3.03379-11.59832c.2046-.7822,1.17682-1.05308,1.75643-.48938l9.09469,8.84524c.28252,.27477,.38836,.68409,.27444,1.06137l-3.29289,10.90575c-.22517,.74574-1.15309,.99873-1.7256,.47047l-8.83559-8.15267c-.28654-.2644-.40393-.66526-.30527-1.04246Z"/>
    <ellipse class="cls-5" cx="36.28765" cy="38.40229" rx="1.20006" ry="1.61199" transform="translate(-10.95774 62.05397) rotate(-73.21491)"/>
    <ellipse class="cls-5" cx="37.39351" cy="52.13671" rx="1.61199" ry="1.20006" transform="translate(-26.45496 58.45209) rotate(-60)"/>
    <ellipse class="cls-5" cx="42.79249" cy="46.43207" rx="1.61199" ry="1.20006" transform="translate(-18.81511 60.27542) rotate(-60)"/>
    <ellipse class="cls-5" cx="29.1918" cy="51.74985" rx="1.20006" ry="1.61199" transform="translate(-15.56475 12.67224) rotate(-19.4482)"/>
    <ellipse class="cls-5" cx="27.68886" cy="46.66674" rx="1.20006" ry="1.61199" transform="translate(-6.67591 4.67245) rotate(-8.61215)"/>
    <ellipse class="cls-5" cx="26.26991" cy="41.58363" rx="1.20006" ry="1.61199" transform="translate(-12.34657 11.11933) rotate(-19.4482)"/>
  </g>
</svg>