<?xml version="1.0" encoding="UTF-8"?>
<svg id="action-change-stations" xmlns="http://www.w3.org/2000/svg" xmlns:xlink="http://www.w3.org/1999/xlink" viewBox="0 0 80 80">
  <defs>
    <style>
      .cls-1 {
        filter: url(#outer-glow-3);
      }

      .cls-2 {
        opacity: 0;
      }

      .cls-3 {
        fill: url(#button-gradient);
        filter: url(#drop-shadow-1);
        stroke: #1d1d1b;
        stroke-miterlimit: 10;
        stroke-width: 2px;
      }

      .cls-4 {
        font-family: London-Tube, 'London Tube';
        font-size: 12px;
      }

      .cls-5 {
        letter-spacing: -.007em;
      }

      .cls-6 {
        letter-spacing: .007em;
      }

      .cls-7 {
        letter-spacing: -.01001em;
      }

      .cls-8 {
        fill: #1d1d1b;
      }

      .cls-9 {
        filter: url(#outer-glow-2);
      }

      .cls-10 {
        fill: #f086a4;
      }
    </style>
    <radialGradient id="button-gradient" cx="39.12967" cy="50.55011" fx="20.23394" fy="50.55011" r="36.77587" gradientUnits="userSpaceOnUse">
      <stop offset="0" stop-color="#fff"/>
      <stop offset=".5968" stop-color="#fbfbfb"/>
      <stop offset="1" stop-color="#f4f4f4"/>
    </radialGradient>
    <filter id="drop-shadow-1" filterUnits="userSpaceOnUse">
      <feOffset dx="2" dy="2"/>
      <feGaussianBlur result="blur" stdDeviation="2"/>
      <feFlood flood-color="#000" flood-opacity=".25"/>
      <feComposite in2="blur" operator="in"/>
      <feComposite in="SourceGraphic"/>
    </filter>
    <filter id="outer-glow-2" filterUnits="userSpaceOnUse">
      <feOffset dx="0" dy="0"/>
      <feGaussianBlur result="blur-2" stdDeviation="3"/>
      <feFlood flood-color="#fff" flood-opacity=".75"/>
      <feComposite in2="blur-2" operator="in"/>
      <feComposite in="SourceGraphic"/>
    </filter>
    <filter id="outer-glow-3" filterUnits="userSpaceOnUse">
      <feOffset dx="0" dy="0"/>
      <feGaussianBlur result="blur-3" stdDeviation="3"/>
      <feFlood flood-color="#fff" flood-opacity=".75"/>
      <feComposite in2="blur-3" operator="in"/>
      <feComposite in="SourceGraphic"/>
    </filter>
  </defs>
  <g class="cls-2">
    <text class="cls-4" transform="translate(4.50427 73.31897)"><tspan class="cls-6" x="0" y="0">C</tspan><tspan x="8.90332" y="0">h</tspan><tspan class="cls-5" x="15.61133" y="0">a</tspan><tspan x="21.51562" y="0">n</tspan><tspan class="cls-7" x="28.15137" y="0">g</tspan><tspan x="34.3916" y="0">e lines</tspan></text>
  </g>
  <circle class="cls-3" cx="40" cy="40" r="27.5"/>
  <g class="cls-9">
    <g>
      <polygon class="cls-10" points="46.81787 34.89478 23.09961 34.89478 23.09961 31.8938 46.81689 31.8938 44.61768 28.1145 57.55713 33.39478 44.61963 38.68579 46.81787 34.89478"/>
      <path class="cls-8" d="M45.55438,28.9285l10.94501,4.46599-10.94501,4.47701,1.95803-3.37701H23.49939v-2.2h24.01302l-1.95803-3.36599m-1.87261-1.62813l1.1811,2.03039,1.25866,2.16373H22.69939v3.8h23.42442l-1.26151,2.17573-1.17714,2.03022,2.1721-.88849,10.94501-4.47701,1.81242-.74136-1.81306-.7398-10.94501-4.46599-2.17485-.88742h0Z"/>
    </g>
  </g>
  <g class="cls-1">
    <g>
      <polygon class="cls-10" points="22.44189 46.60669 35.37891 41.31372 33.18066 45.10474 56.89941 45.10474 56.89941 48.10571 33.18164 48.10571 35.38037 51.88599 22.44189 46.60669"/>
      <path class="cls-8" d="M34.4444,42.1285h.005m-.005,0l-1.95803,3.37701h24.01302v2.2h-24.01302l1.95803,3.36599-10.94501-4.46599,10.94501-4.47701m1.86922-1.62894l-2.1721,.88849-10.94501,4.47701-1.81242,.74136,1.81306,.7398,10.94501,4.46599,2.17485,.88742-1.1811-2.03039-1.25866-2.16373h23.42214v-3.8h-23.42442l1.26151-2.17573,1.17714-2.03022h0Zm-1.86422,.82894h0Zm-.005,1.6h0Z"/>
    </g>
  </g>
</svg>