<?xml version="1.0" encoding="UTF-8"?>
<svg id="destination-card" xmlns="http://www.w3.org/2000/svg" xmlns:xlink="http://www.w3.org/1999/xlink" viewBox="0 0 75 100">
<title>Destination card</title>
  <defs>
    <style>
      .small-text {
        font-size: 3.5px;
      }

      .cls-1 {
        fill: none;
        stroke-linejoin: round;
        stroke-width: 2.35px;
      }

      .cls-1, .cls-2 {
        stroke: #1d1d1b;
      }

      .cls-3 {
        font-size: 5px;
      }

      .cls-3, .cls-4 {
        font-family: London-Tube, 'London Tube'; Johnston, Helvetica, sans-serif;
      }

      .cls-3, .cls-4, .cls-2 {
        fill: #fff;
      }

      .cls-5 {
        fill: #243883;
      }

      .cls-6 {
        fill: #dc241f;
      }

      .cls-7 {
        letter-spacing: -.01902em;
      }

      .cls-4 {
        font-size: 4.5px;
      }

      .cls-8 {
        opacity: .1;
      }

      .cls-9 {
        letter-spacing: .00011em;
      }

      .cls-2 {
        filter: url(#drop-shadow-1);
        stroke-miterlimit: 10;
        stroke-width: 2px;
      }
    </style>
    <filter id="drop-shadow-1" filterUnits="userSpaceOnUse">
      <feOffset dx="2" dy="2"/>
      <feGaussianBlur result="blur" stdDeviation="2"/>
      <feFlood flood-color="#000" flood-opacity=".25"/>
      <feComposite in2="blur" operator="in"/>
      <feComposite in="SourceGraphic"/>
    </filter>
  </defs>
  <path class="cls-2" d="M67.5,8.59998V91.40002c0,.35999-.04999,.69995-.15002,1.02997-.44995,1.47998-1.82996,2.57001-3.44995,2.57001H11.09998c-1.97998,0-3.59998-1.62-3.59998-3.59998V8.59998c0-1.97998,1.62-3.59998,3.59998-3.59998H63.90002c1.97998,0,3.59998,1.62,3.59998,3.59998Z"/>
  <g class="cls-8">
    <polyline class="cls-1" points="37.47622 44.10605 37.47622 44.1009 37.49207 39.41177 37.50793 31.66517 37.51585 26.72382 37.52378 21.47363"/>
    <polyline class="cls-1" points="67.45844 89.56903 57.38193 79.48606 49.18335 71.28748"/>
    <polyline class="cls-1" points="24.48495 23.93115 24.48131 23.92751 21.1768 20.60058 15.71034 15.1117 12.22188 11.61203 8.51505 7.89399"/>
    <polyline class="cls-1" points="67.05628 20.26764 67.05114 20.26764 62.362 20.25179 54.6154 20.23594 49.67405 20.22801 44.42387 20.22009"/>
  </g>
  <rect class="cls-5" x="14.7" y="15.2" width="45.6" height="9.6" rx="4.8" ry="4.8"/>
  <g>
    <g>
      <path class="cls-6" d="M58.10593,55.36394c-1.40423-6.88985-6.19222-12.54789-12.55026-15.1717-2.46717-1.03144-5.17808-1.59224-8.01582-1.59224-10.15135,0-18.61571,7.20029-20.57578,16.76394-.28277,1.37195-.42907,2.78401-.42907,4.23603s.1463,2.8741,.42907,4.24612c1.96007,9.56365,10.42443,16.75391,20.57578,16.75391,2.25261,0,4.42725-.3605,6.46529-1.02148,7.11863-2.30328,12.57954-8.30184,14.10079-15.73243,.28277-1.37202,.42907-2.79403,.42907-4.24612s-.1463-2.86408-.42907-4.23603Zm-14.10079,16.15308c-1.92103,1.04147-4.12489,1.63234-6.45553,1.63234-6.00694,0-11.09729-3.9056-12.88178-9.30327-.43883-1.33192-.67286-2.76396-.67286-4.24612s.23403-2.90411,.67286-4.23603c1.77473-5.40775,6.86508-9.31329,12.87202-9.31329,2.3404,0,4.54426,.59081,6.46529,1.64236,3.01326,1.63234,5.32438,4.37625,6.40679,7.67093,.44859,1.33192,.68262,2.75393,.68262,4.23603s-.23403,2.9142-.68262,4.24612c-1.08241,3.29468-3.40329,6.03859-6.40679,7.67093Z"/>
      <rect class="cls-5" x="11" y="55.36501" width="53" height="8.47836"/>
    </g>
    <text class="cls-4 text" text-anchor="middle" transform="translate(0 61.06252)"><tspan id="inner-text" x="37.5" y="0">PLACEHOLDER</tspan></text>
  </g>
  <text class="cls-3" transform="translate(23.98816 21.46907) scale(1.02714 1)"><tspan x="0" y="0">Destination</tspan></text>
</svg>