<?xml version="1.0" encoding="UTF-8"?>
<svg title="Player image" xmlns="http://www.w3.org/2000/svg" xmlns:xlink="http://www.w3.org/1999/xlink" viewBox="0 0 200 110">
<title>Player glyph</title>
  <defs>
    <style>
      @font-face
      {
          font-family: "LondonTubeFont";
          src: local("LondonTubeFont") url("./london-tube-font.ttf") format("ttf");
          /* license: Freeware link: https://www.fontspace.com/london-tube-font-f2717 */
      }

      .cls-1 {
        fill: #fff;
      }

      .cls-2 {
        fill: #93cebd;
      }

      .cls-3 {
        opacity: .2;
      }

      .cls-4 {
        fill: #b26300;
      }

      .cls-5 {
        fill: #a1a5a7;
      }

      .cls-6 {
        font-family: "LondonTubeFont", Johnston, Helvetica, sans-serif;
        font-size: 12px;
      }

      .cls-7 {
        filter: url(#drop-shadow-2);
      }

      .cls-8 {
        fill: #007d32;
      }

      .cls-9 {
        fill: #636363;
      }

      .cls-10 {
        fill: #add8bf;
        filter: url(#drop-shadow-3);
      }

      .cls-10, .cls-11 {
        stroke: #000;
        stroke-miterlimit: 10;
        stroke-width: 2px;
      }

      .cls-11 {
        fill: #c7d8ce;
        filter: url(#drop-shadow-1);
      }

      .cls-12 {
        fill: #1d1d1b;
      }
    </style>
    <filter id="drop-shadow-1" filterUnits="userSpaceOnUse">
      <feOffset dx="2" dy="2"/>
      <feGaussianBlur result="blur" stdDeviation="2"/>
      <feFlood flood-color="#000" flood-opacity=".25"/>
      <feComposite in2="blur" operator="in"/>
      <feComposite in="SourceGraphic"/>
    </filter>
    <filter id="drop-shadow-2" filterUnits="userSpaceOnUse">
      <feOffset dx="2" dy="2"/>
      <feGaussianBlur result="blur-2" stdDeviation="2"/>
      <feFlood flood-color="#000" flood-opacity=".15"/>
      <feComposite in2="blur-2" operator="in"/>
      <feComposite in="SourceGraphic"/>
    </filter>
    <filter id="drop-shadow-3" filterUnits="userSpaceOnUse">
      <feOffset dx="2" dy="2"/>
      <feGaussianBlur result="blur-3" stdDeviation="2"/>
      <feFlood flood-color="#000" flood-opacity=".25"/>
      <feComposite in2="blur-3" operator="in"/>
      <feComposite in="SourceGraphic"/>
    </filter>
  </defs>
  <g id="Layer_3" data-name="Layer 3">
    <g id="selection-arrows">
      <polygon class="cls-12 left" points="21.33975 55.00001 38.66025 46.00001 38.66025 64.00001 21.33975 55.00001"/>
      <polygon class="cls-12 right" points="178.66025 55.00001 161.33975 46.00001 161.33975 64.00001 178.66025 55.00001"/>
    </g>
  </g>
  <g id="Layer_6" data-name="Layer 6">
    <circle class="cls-11" cx="100" cy="55" r="33.0885"/>
    <g class="cls-7">
      <g>
        <polygon class="cls-1" points="103.97215 99.80103 106.81129 101.9535 110.61448 101.7509 109.50859 99.79315 106.81129 100.11674 105.01077 100.2724 105.12836 99.79315 103.97215 99.80103"/>
        <g>
          <path class="cls-2" d="M121.14715,41.95335c.3565-.29359,.72349-.57669,1.11145-.82834,.61864-.15728,1.20582-.46136,1.77202-.76543,2.31726-1.23727,4.5821-2.5794,6.77354-4.02637l.10485,.08388c-.05243,.0734-.11534,.15728-.16777,.23068l-.08388,.19922c.04194,.06291,.08388,.12582,.11534,.18874l-.40893,.25165c-.19922,.72349-.05243,1.53086,.37747,2.13901,.4299,.61864,1.1429,1.01708,1.89785,1.06951l.29359,.49281c-.09437,.09437-.19922,.17825-.29359,.26213-3.38677,3.30289-9.18517,7.54945-13.05426,10.26516-3.75376-2.66328-5.09588-6.63723-8.34634-9.86671,.12582-2.42212,.39844-4.83375,.80737-7.22441l-.14679-.02097c.09437-1.48892,.30408-2.95687,.61864-4.41433,.01049-.09437,.03146-.17825,.05243-.27262,2.72619,3.92152,4.62404,9.13274,8.35682,11.99524l.22019,.24116Z"/>
          <path class="cls-5" d="M104.23428,101.86664c-.06291-.40893-.09437-.82834-.09437-1.24776l.09437-.03146c.01049,.05243,.03146,.09437,.04194,.14679l.33553-.10485c1.11145,1.23727,4.25705,1.43649,5.73549,.81786-.01049-.09437-.06291-.25165-.12582-.44038l.20971-.0734c.75495,1.81397,3.40774,3.20852,5.23219,3.87958l-.04194,.13631c1.06951,.30408,2.01319,1.52038,1.69863,2.67376-.20971,.77592-.91223,1.30018-1.63571,1.47843-.25165,.06291-.51378,.09437-.76543,.09437v-.04194c-.8598-.05243-1.6462-.48233-2.47454-.72349-.15728-.05243-.32505-.09437-.48233-.12582-.84931-.66058-1.75105-1.22679-2.69474-1.68814l.02097-.05243c-.56621-.25165-1.13242-.53475-1.67766-.84931-.9332-.55572-1.91882-1.23727-2.97784-1.12193l-.18874,.04194c-.22019-.90174-.30408-1.83494-.25165-2.75765l.04194-.01049Z"/>
          <path class="cls-8" d="M89.49188,55.8045c-.60815-.73397-.96465-1.67766-1.00659-2.63182l.19922-.03146c-.33553-2.69474-.47184-5.42093-.39844-8.13663,.0734-2.77862,.37747-5.62015,1.56232-8.13663l-.60815-.56621c.53475-.54524,1.03805-1.11145,1.53086-1.68814l.25165-.13631c.05243,.0734,.12582,.14679,.20971,.20971,.33553,.25165,.77592,.27262,1.18484,.36699l.08388-.32505c.04194-1.18484,.18874-2.36969,.45087-3.52308l.39844-.04194c-.13631-1.53086-.58718-3.04075-1.33164-4.38288-.18874-.3565-.52427-.74446-.90174-.62912l-.24116-.03146c.11534-.17825,.26213-.33553,.46136-.4299,.3565-.16777,.77592-.14679,1.17436-.18874,.67106-.06291,1.33164-.32505,1.86639-.75495l.29359-.37747c.73397,.37747,1.40504,.89125,1.98173,1.48892,.22019,.24116,.4299,.5033,.66058,.74446,.29359,.31456,.61864,.60815,.9332,.90174,.5033,.46136,1.00659,.9332,1.50989,1.39455,.7864,.713,1.58329,1.44698,2.51648,1.9293-.08388-.69203,.18874-1.7196,.44038-2.55843l.02097,.01049c.19922,.19922,.58718,1.32115,.83883,1.59377,.02097,.02097,.04194,.03146,.05243,.04194-.16777,.57669-.27262,1.17436-.29359,1.78251l-.15728-.01049c-.3565,1.06951,0,3.46017,.57669,4.4353,.44038-.89125,1.16387-2.34872,1.66717-3.38677l.01049-.01049c0-.14679-.01049-.30408-.02097-.45087-.09437-.91223-.10485-1.83494-.04194-2.74716,0-.05243,.01049-.10485,.01049-.15728,.01049-.12582,.03146-.2831,.13631-.3565,.09437,.14679,.30408,.18874,.46136,.13631,.16777-.05243,.30408-.17825,.41941-.30408l.18874-.08388c-.17825-.2831-.36699-.55572-.52427-.72349l-.02097-.19922c.48233-.03146,.97514-.12582,1.48892-.24116l.14679-.22019c.19922,.14679,.40893,.2831,.61864,.41941-.19922-.20971-.30408-.48233-.34602-.76543l1.18484-.06291c.57669,.06291,1.15339,.12582,1.73008,.17825,.06291,0,.12582,.01049,.17825,.04194s.08388,.08388,.11534,.13631c.19922,.33553,.38796,.66058,.57669,.98562,.17825,.29359,.34602,.58718,.48233,.90174,.04194,.0734,.08388,.15728,.11534,.24116,.0734,.17825,.13631,.3565,.18874,.53475-.31456,1.45746-.52427,2.92541-.61864,4.41433l.14679,.02097c-.40893,2.39066-.68155,4.80229-.80737,7.22441-.03146,.65009-.06291,1.30018-.0734,1.95028l-.14679,.04194c.60815,2.22289,1.18484,4.46676,1.32115,6.76305,.11534,2.08658-.16777,4.25705-1.09048,6.11296l-.27262-.12582c-.37747,.29359-.76543,.58718-1.1429,.88077l.03146,.05243c-1.70911,1.15339-3.68036,1.85591-5.73549,2.21241-.97514,.16777-1.96076,.26213-2.94638,.2831l-.01049-.45087c-.06291-.11534-.11534-.24116-.14679-.36699,.22019,.04194,.44038,.08388,.66058,.0734,.34602-.02097,.70252-.15728,.90174-.4299,.17825-.24116,.19922-.59766,.03146-.83883-1.25824,.0734-2.52697,.08388-3.78521,.03146v-.18874c-1.50989,.02097-3.03027-.02097-4.54016-.08388-.83883-.04194-1.68814-.08388-2.45357-.41941-.69203-.30408-1.25824-.82834-1.81397-1.34212l-.47184,.0734c-.02097-.02097-.04194-.04194-.06291-.0734Z"/>
          <path class="cls-9" d="M111.20704,56.60139l.10485,.05243c-.24116,.53475-.44038,1.09048-.59766,1.6462l-.22019,.03146c.02097,.90174-.06291,1.81397-.25165,2.70522l.55572,.10485c-.3565,2.60037-.84931,5.19025-1.45746,7.73819-.20971,.82834,.25165,2.63182-.47184,2.97784l-.17825,.08388c-.63961-1.2897-1.27921-2.58988-1.91882-3.89007-.51378-1.01708-1.01708-2.05513-1.26873-3.18755l-.45087-.72349c.24116-.95417,.38796-1.93979,.44038-2.9359l-1.59377-.89125c.0734-.26213,.14679-.51378,.23068-.77592,2.05513-.3565,4.02637-1.05902,5.73549-2.21241l-.03146-.05243c.37747-.29359,.76543-.58718,1.1429-.88077l.27262,.12582c-.01049,.03146-.03146,.06291-.04194,.08388Z"/>
          <path class="cls-9" d="M99.84092,77.64548l-.34602,.16777c-1.25824-2.21241-2.79959-4.20463-4.28851-6.24927-.5033-.68155-.99611-1.3631-1.46795-2.06561-1.88736-2.7891-3.53356-5.92422-3.89007-9.3739l.17825-.54524c.02097-.4299,.02097-.87028-.01049-1.30018l.22019-.01049c3.35531,.75495,6.74208,1.52038,10.18128,1.56232,.25165,0,.5033,0,.76543-.01049,.98562-.02097,1.97125-.11534,2.94638-.2831-.08388,.26213-.15728,.51378-.23068,.77592l1.59377,.89125c-.05243,.99611-.19922,1.98173-.44038,2.9359l.45087,.72349c.25165,1.13242,.75495,2.17047,1.26873,3.18755,.63961,1.30018,1.27921,2.60037,1.91882,3.89007,.34602,.69203,.68155,1.38407,1.02756,2.0761,.72349,1.46795,1.45746,2.95687,1.79299,4.56113-.63961,6.35412-1.23727,12.70824-1.81397,19.06237l.06291,.01049c-.06291,.63961-.10485,1.27921-.12582,1.73008-1.32115,.74446-3.98443,1.27636-5.49432,.98277-.67106-2.10756-1.5728-5.13497-2.05513-7.14816-.30408-1.30018-.57669-2.62134-.49281-3.96346,.05243-.87028,.26213-1.7196,.39844-2.58988,.26213-1.79299,.18874-3.63842-.22019-5.39996-.41941-.70252-.81786-1.41552-1.19533-2.1495-.25165-.48233-.5033-.97514-.73397-1.46795Z"/>
          <path class="cls-4" d="M110.20044,18.79121c0,.02097,0,.04194,.01049,.05243,0,.03146,.01049,.0734,.01049,.10485l-.51378,.01049c0-.14679-.03146-.29359-.11534-.41941-.14679-.22019-.51378-.24116-.713-.10485l-.38796-.13631c-.24116,.22019-.41941,.5033-.51378,.81786l-.25165-.09437c-1.59377-.76543-3.27143-1.37358-4.99103-1.81397,.03146-.23068,.08388-.44038,.17825-.65009l.48233-.61864c.49281-.38796,.82834-.95417,.96465-1.5728,.0734-.38796,.08388-.81786,.3565-1.11145,.48233-.49281,1.3631-.15728,1.97125-.48233,.20971-.11534,.37747-.30408,.57669-.4299,.34602-.22019,.7864-.25165,1.18484-.17825s.76543,.24116,1.13242,.41941c.15728,.84931,.48233,2.10756,.80737,2.90444,.10485,.2831,.13631,1.26873,.09437,1.5728-.06291,.39844-.08388,.7864-.08388,1.18484h-.33553c.06291,.06291,.10485,.2831,.13631,.54524Z"/>
          <path class="cls-9" d="M100.21839,16.68366l-.09437,.56621-.37747,.02097c-.04194-.38796-.36699-.72349-.76543-.76543-.29359-.03146-.58718,.09437-.83883,.25165-.16777,.11534-.33553,.26213-.41941,.45087-.0734,.19922-.05243,.40893-.04194,.61864,.11534,1.74057-.13631,3.49162-.72349,5.12734l-.45087-.0734c-.16777-.20971-.25165-.44038-.29359-.70252-.05243-.25165-.06291-.51378-.08388-.77592-.12582-1.89785-.4299-3.77473-.9332-5.60966-.11534-.4299-.01049-.88077,.09437-1.31067,.30408-1.18484,.59766-2.36969,.90174-3.54405,.02097-.0734,.04194-.15728,.11534-.19922,1.10096-.54524,2.20192-1.10096,3.31337-1.65669,.98562-.49281,2.04464-1.00659,3.15609-.91223,1.05902,.09437,1.98173,.73397,2.98832,1.10096,.74446,.27262,1.54135,.39844,2.28581,.66058,.59766,.22019,1.15339,.52427,1.6462,.91223,.48233,.37747,.56621,1.05902,.60815,1.65669l-.72349,.08388c-.36699-.17825-.73397-.34602-1.13242-.41941s-.83883-.04194-1.18484,.17825c-.19922,.12582-.36699,.31456-.57669,.4299-.60815,.32505-1.48892-.01049-1.97125,.48233-.27262,.29359-.2831,.72349-.3565,1.11145-.13631,.61864-.47184,1.18484-.96465,1.5728l-.48233,.61864c-.09437,.20971-.14679,.41941-.17825,.65009-.82834-.22019-1.66717-.38796-2.51648-.52427Z"/>
          <path class="cls-4" d="M106.19504,26.04707c.44038,.49281,.94368,.94368,1.47843,1.33164l-.14679,.22019c-.51378,.11534-1.00659,.20971-1.48892,.24116-.70252,.06291-1.39455,0-2.12853-.25165-.30408-.10485-.60815-.19922-.91223-.29359-.92271-.29359-1.84542-.57669-2.65279-1.09048-.84931-.52427-1.54135-1.27921-2.33823-1.89785-.44038-.34602-.96465-.73397-1.00659-1.2897l-.04194-.06291c.58718-1.63571,.83883-3.38677,.72349-5.12734-.01049-.20971-.03146-.41941,.04194-.61864,.08388-.18874,.25165-.33553,.41941-.45087,.25165-.15728,.54524-.2831,.83883-.25165,.39844,.04194,.72349,.37747,.76543,.76543l.37747-.02097,.47184,1.25824c.02097,.06291,.04194,.13631,.10485,.17825,.03146,.03146,.0734,.05243,.12582,.0734,.59766,.23068,1.20582,.46136,1.80348,.70252,.10485-.74446-.02097-1.53086,.10485-2.25435,1.7196,.44038,3.39725,1.04854,4.99103,1.81397l.25165,.09437c-.09437,.27262-.11534,.57669-.06291,.87028,.03146,.14679,.08388,.30408,.18874,.40893,.05243,.05243,.12582,.10485,.19922,.13631l-.33553,1.45746c-.13631,.01049-.23068,.11534-.31456,.20971-.15728,.17825-.29359,.3565-.4299,.55572,0,0,.01049,.01049,0,.01049-.03146,.16777-.0734,.33553-.11534,.49281-.02097,.06291-.04194,.13631-.06291,.19922-.19922,.67106-.54524,1.90833-.84931,2.58988Z"/>
          <path class="cls-9" d="M106.583,28.82147l-.19628,.08724c-.11995,.13085-.26171,.26171-.43618,.31623-.16357,.05452-.38166,.0109-.4798-.14176-.10905,.07633-.13085,.2399-.14176,.37075,0,.05452-.0109,.10905-.0109,.16357l-.42528-.03271c-.21809,.07633-.82875,.29442-1.04684,.37075l-.39256,.02181c-.26171-.28352-.66518-1.45031-.87236-1.65749l-.02181-.0109c.07633-.2508,.14176-.49071,.20719-.69789l.08724-.31623c.31623,.09814,.63246,.19628,.9487,.30533,.76332,.26171,1.48302,.32714,2.21363,.26171l.02181,.20719c.16357,.17447,.35985,.45799,.54523,.75241Z"/>
          <path class="cls-9" d="M103.33254,31.69868c.02097-.60815,.12582-1.20582,.29359-1.78251-.01049-.01049-.03146-.02097-.05243-.04194l.37747-.02097c.20971-.0734,.79689-.2831,1.00659-.3565l.40893,.03146c-.06291,.91223-.05243,1.83494,.04194,2.74716,.01049,.14679,.02097,.30408,.02097,.45087l-.01049,.01049c-.5033,1.03805-1.22679,2.49551-1.66717,3.38677-.57669-.97514-.9332-3.3658-.57669-4.4353l.15728,.01049Z"/>
          <path class="cls-2" d="M102.99701,27.29483l-.08388,.30408c-.06291,.19922-.12582,.4299-.19922,.67106-.25165,.83883-.52427,1.86639-.44038,2.55843-.9332-.48233-1.73008-1.2163-2.51648-1.9293-.5033-.46136-1.00659-.9332-1.50989-1.39455-.31456-.29359-.63961-.58718-.9332-.90174-.23068-.24116-.44038-.5033-.66058-.74446-.57669-.59766-1.24776-1.11145-1.98173-1.48892l.02097-.30408c.11534-.57669,.67106-1.03805,.66058-1.62523l.8598-.26213c.04194,.26213,.12582,.49281,.29359,.70252l.45087,.0734,.04194,.06291c.04194,.55572,.56621,.94368,1.00659,1.2897,.79689,.61864,1.48892,1.37358,2.33823,1.89785,.80737,.51378,1.73008,.79689,2.65279,1.09048Z"/>
          <path class="cls-9" d="M102.73487,17.20792c-.12582,.72349,0,1.50989-.10485,2.25435-.59766-.24116-1.20582-.47184-1.80348-.70252-.05243-.02097-.09437-.04194-.12582-.0734-.06291-.04194-.08388-.11534-.10485-.17825l-.47184-1.25824,.09437-.56621c.84931,.13631,1.68814,.30408,2.51648,.52427Z"/>
          <path class="cls-9" d="M100.57489,79.11343l-.19922,.10485c-7.14052,1.89785-14.24959,3.90055-21.3272,5.98714,.04194-.0734,.08388-.13631,.13631-.19922l-.02097-.0734c-1.05902-1.59377-1.80348-3.43919-2.13901-5.37898l-.17825-.17825c-.06291-.05243-.13631-.10485-.20971-.14679l.11534-.15728c3.46017-.96465,6.79451-2.31726,9.91914-4.0054,2.65279-1.44698,4.62404-3.30289,7.70673-3.34483l.82834-.15728c1.48892,2.04464,3.03027,4.03686,4.28851,6.24927l.34602-.16777c.23068,.49281,.48233,.98562,.73397,1.46795Z"/>
          <path class="cls-2" d="M91.02274,34.4773l-.25165,.13631c-.49281,.57669-.99611,1.1429-1.53086,1.68814-1.81397,1.91882-3.7957,3.68036-5.93471,5.24268l.10485,.13631c-1.39455,3.40774-2.29629,7.02518-2.68425,10.68457l-2.36969,.09437c.46136,0,.92271,.04194,1.38407,.13631,.40893,.0734,.90174,.29359,.92271,.713,.03146,.3565-.29359,.62912-.60815,.7864-.32505,.15728-.68155,.29359-.8598,.59766-.01049,.01049-.01049,.03146-.02097,.04194-.02097,.03146-.03146,.06291-.03146,.10485-.41941-.22019-.80737-.5033-1.2163-.73397-.74446-.44038-1.77202-.69203-2.40115-.10485l-.4299,.10485-.51378-.14679c1.60426-5.21122,.82834-10.88379,1.89785-16.23132,.0734,.03146,.13631,.06291,.20971,.09437l.24116-.54524c3.15609-2.28581,5.81937-5.24268,7.76964-8.61896l.12582-.80737c1.85591,.31456,3.63842-.67106,5.30559-1.56232l.61864,.12582c.03146-.10485,.0734-.19922,.12582-.29359l.24116,.03146c.37747-.11534,.713,.27262,.90174,.62912,.74446,1.34212,1.19533,2.85202,1.33164,4.38288l-.39844,.04194c-.26213,1.15339-.40893,2.33823-.45087,3.52308l-.08388,.32505c-.40893-.09437-.84931-.11534-1.18484-.36699-.08388-.06291-.15728-.13631-.20971-.20971Z"/>
          <path class="cls-5" d="M79.86633,89.73509l.11534,.33553c-.0734,.73397-.15728,1.45746-.24116,2.18095-.03146,.25165-.0734,.53475-.26213,.69203-.19922,.16777-.47184,.12582-.713,.0734-.713-.14679-1.44698-.29359-2.04464-.73397-.8598-.61864-1.31067-1.69863-1.7196-2.72619-1.05902-2.63182-2.10756-5.26365-3.15609-7.89547,.03146-.34602-.05243-1.26873,.19922-1.53086,.24116-.25165,.54524-.45087,.83883-.65009,.51378-.11534,1.99222-.52427,2.5794-.65009,.29359,.02097,.57669,.09437,.84931,.22019l-.02097,.04194c0,1.58329,.47184,3.7223,.9332,5.21122,.13631,.4299,.75495,1.33164,1.24776,1.89785,.06291,.0734,.12582,.14679,.19922,.20971v.01049c-.36699,1.2163,.15728,2.68425,1.19533,3.31337Z"/>
        </g>
      </g>
      <polygon class="cls-9" points="106.38233 25.91749 107.16143 23.04359 107.87968 22.18166 110.87767 22.5004 110.50536 24.04683 108.33312 24.56539 107.7718 25.58764 109.14332 25.58764 108.3026 27.92977 106.38233 25.91749"/>
      <polygon class="cls-4" points="108.15036 22.01645 107.88836 20.76885 109.5817 19.72442 110.02002 18.69974 110.75185 20.26895 110.12928 21.45779 109.67277 22.68183 107.96706 21.98924 108.15036 22.01645"/>
      <polygon class="cls-2" points="105.55728 33.57233 107.39798 30.33167 108.75604 28.41319 107.72359 27.44669 106.49276 27.92977 106.21023 29.02097 105.55728 29.74062 105.55728 33.4427 105.55728 33.57233"/>
      <polygon class="cls-2" points="102.42355 28.23171 103.14378 29.72255 102.70396 34.14302 101.30553 30.85872 102.42355 28.23171"/>
      <polygon class="cls-5" points="108.58954 20.60095 107.58143 19.2843 108.73882 18.30495 109.5817 18.97277 108.58954 20.60095"/>
      <polygon class="cls-5" points="111.24646 20.54054 110.23836 19.22389 111.39574 18.24454 112.23863 18.91236 111.24646 20.54054"/>
      <polygon class="cls-4" points="130.04792 37.65048 132.63502 34.4506 135.2028 34.14322 136.15745 36.595 135.51637 38.40579 132.63502 41.248 130.04792 38.93677 130.04792 37.65048"/>
      <polygon class="cls-4" points="75.09549 54.10587 76.63684 53.66694 78.74013 54.60434 79.63199 56.87814 79.33543 59.0282 78.09695 57.9775 76.85869 59.80005 74.66263 59.07427 74.8276 56.39168 75.09549 54.10587"/>
      <polygon class="cls-5" points="89.55479 55.8779 90.23634 58.26856 98.83432 60.12271 106.39894 59.36643 111.06071 56.85718 111.6806 54.89596 109.83596 55.32351 102.91008 57.66261 95.18478 57.50934 91.4328 56.93246 89.55479 55.8779"/>
      <polygon class="cls-1" points="76.29082 79.09246 77.74168 81.90221 78.98566 85.22874 78.05891 86.20655 76.5547 81.90221 76.29082 79.09246"/>
      <g>
        <path class="cls-12" d="M106.5388,24.23536c-.05128,.17248-.10725,.34348-.16894,.51253-.02878,.07887-.05871,.15733-.08979,.23532-.01776,.04457-.03585,.08901-.05439,.13326,.03263-.07788-.01696,.0383-.02354,.05324-.14263,.32398-.30567,.63841-.48651,.94268-.107,.18002-.04652,.44688,.1435,.54728,.19291,.10192,.43305,.04869,.54728-.1435,.38502-.64779,.68908-1.34585,.90381-2.06813,.05961-.20052-.07168-.44474-.27938-.49205-.21499-.04897-.42821,.06465-.49205,.27938h0Z"/>
        <path class="cls-12" d="M107.87968,24.54176c.86591,.02757,1.73182-.04693,2.5824-.21051,.2059-.0396,.34226-.29772,.27938-.49205-.07105-.21956-.27145-.3218-.49205-.27938-.76776,.14765-1.56112,.20768-2.36973,.18193-.20933-.00667-.40946,.18875-.4,.4,.00996,.22242,.17572,.39286,.4,.4h0Z"/>
        <path class="cls-12" d="M107.22191,23.58236c.16301-.33412,.35468-.65798,.5862-.94957,.04973-.06263,.14878-.14017,.18023-.21071,.00475-.01066,.01986-.02177,.02558-.03446-.01136,.02518-.07076-.03993,.01087,.00649,.15848,.09011,.32377,.16999,.49732,.22733,.37291,.12321,.77927,.13473,1.16222,.05577,.16422-.03386,.3447-.12074,.5144-.09962,.03825,.00476-.03237-.00997-.01759-.01721-.01464,.00718,.06322,.03055,.01972,.01957-.01656-.00418,.00685-.02513,.00686,.02041-.00001-.03547-.00683-.11676,.02483-.14534-.38297,.34573,.18421,.91007,.56569,.56569,.41612-.37566,.12908-1.05775-.35617-1.20535-.29572-.08995-.58766-.00177-.87591,.06868-.21373,.05223-.43597,.06362-.65191,.01537-.24669-.05512-.44004-.20115-.67679-.2767-.29423-.0939-.57864,.00439-.79511,.21325-.38145,.36802-.68052,.8698-.91121,1.34265-.09468,.19406-.0527,.43252,.1435,.54728,.17584,.10285,.45216,.05146,.54728-.1435h0Z"/>
        <path class="cls-12" d="M109.14511,18.71465c-.00174-.01739,.00162-.04117-.00242-.05775-.0115-.04721-.01567,.08929-.00376,.04293,.01242-.04833-.05216,.09086-.01137,.03003-.00528,.00787-.07015,.0678-.025,.03245,.05026-.03937-.03389,.01835-.03354,.02125-.00011-.00089,.03103-.02201,.03629-.02341,.07497-.01994-.07837,.01779-.0246,.0076,.02174-.00412,.04512-.01332,.06652-.01968,.01525-.00453,.07024-.01604,.0052-.00278-.06958,.01418,.00327,.00101,.01865,.00191,.0155,.00091,.03316,.00181,.04841,.00149,.07573-.00156-.03796-.00181-.03425-.00488,.00395-.00326,.14821,.03528,.06667,.01567-.06008-.01445-.00099,.00008,.0154,.01266,.05588,.04291-.05384-.04329-.01593-.01167,.04227,.03525,.03698,.0027-.00863-.01726,.01053,.00461,.03571,.06024,.03847,.06505-.03079-.0535-.00298-.01171,.00236,.0067,.00684,.02357,.01246,.04727,.01916,.07082,.02821,.09926,.00738-.03695,.00284,.02167-.00237,.03054,.00221,.06289,.00115,.09372-.00087,.02536-.00294,.0507-.00533,.07594,.00677-.07143-.00657,.02832-.01054,.0467-.02369,.10956-.05943,.21567-.09973,.3201-.02666,.06907,.03827-.0821-.0123,.02989-.01047,.0232-.02085,.04643-.03157,.06951-.02695,.05805-.05514,.11556-.08549,.17191-.02423,.04499-.04972,.08937-.07703,.13257-.01698,.02687-.03478,.0531-.053,.07912-.04005,.05721,.06074-.06327-.01862,.02366-.034,.03725-.06822,.07312-.10451,.10814-.0532,.05134-.02195,.02047-.00663,.00894-.02758,.02075-.05711,.03932-.08732,.05603-.00271,.0015-.0978,.03998-.04246,.02183,.04885-.01602-.01921,.00399-.03083,.00733-.02681,.00771-.0538,.01327-.08106,.01911,.01624-.00348,.0822-.00376,.00768-.00273-.03269,.00045-.14299-.01356-.05603,.00484-.02049-.00434-.05725-.02093-.07767-.01914-.02779-.00937-.0206-.00549,.02158,.01162-.01441-.00667-.02837-.01416-.04188-.02248-.01254-.00824-.058-.05026-.02435-.01497,.04718,.04947-.0463-.05716,.00684,.00927-.01671-.02088-.06744-.13598-.04612-.07542-.01938-.05505-.03382-.11146-.04509-.16869-.00415-.02106-.01545-.10268-.00491-.01505-.00343-.0285-.00599-.0571-.00794-.08573-.00667-.09793-.00192-.19423,.00458-.29192,.00724-.10872-.01273,.05195,.00153-.013,.00614-.02796,.00994-.05653,.01591-.08457,.01196-.05617,.0265-.11182,.04347-.16668,.01699-.05491,.03633-.10919,.05825-.16233-.00614,.0149-.03231,.06856,.00144,.00078,.01542-.03096,.03029-.06199,.0467-.09245,.02728-.05065,.0568-.10012,.08843-.14817,.01265-.01921,.02635-.03773,.03895-.05695,.05035-.07679-.03319,.03538,.02127-.02852,.0751-.08812,.15558-.16711,.24202-.24394,.08059-.07164-.0405,.024,.01404-.01128,.02885-.01866,.05629-.03954,.08532-.05803,.05343-.03404,.10868-.06441,.16532-.09279,.18748-.09393,.25535-.37379,.1435-.54728-.12359-.1917-.34675-.24396-.54728-.1435-.55581,.27847-.96738,.81181-1.13927,1.40483-.16922,.58378-.14645,1.48595,.4755,1.79966,.32972,.16631,.71258,.13467,1.03703-.02747,.29227-.14606,.5115-.42897,.66342-.71088,.16853-.31275,.30345-.64925,.34433-1.00372,.03771-.32704-.04322-.72219-.30637-.94397-.24281-.20464-.58348-.2773-.88981-.18594-.31707,.09456-.5907,.37765-.55558,.72927,.02073,.20758,.16912,.41034,.4,.4,.1989-.00891,.42227-.17703,.4-.4h0Z"/>
        <path class="cls-12" d="M108.73882,21.37242c.51476,0,.51561-.8,0-.8-.51476,0-.51561,.8,0,.8h0Z"/>
        <path class="cls-12" d="M111.06981,19.32301c.07128-.15872,.14297-.31864,.23871-.4645,.04946-.07535,.05584-.07867,.12687-.1491,.07334-.07271-.04455,.0201,.04339-.03505,.03346-.02098,.06721-.04208,.10338-.05817-.06055,.02694,.04006-.00877,.05142-.01245,.0745-.02409-.03758-.00761,.04608-.00473l.03832,.00121c-.0427-.00683-.04012-.00511,.00776,.00515,.04938,.02584,.01666,.01672-.00241-.00538-.01577-.01828-.03779-.08178-.03272-.04462,.00215,.01577,.02609,.10652,.02313,.08814,.00403,.02504,.00453,.17953,.00215,.20319-.01075,.10695-.08013,.31964-.12413,.41324-.07905,.16815-.17053,.32941-.26602,.48868-.08568,.1429-.17124,.28891-.27421,.42026,.03775-.04816-.04106,.0467-.04213,.04791-.02276,.02577-.04625,.05087-.07048,.07525-.02902,.02919-.05899,.05726-.09038,.0839-.02095,.01736-.02086,.01776,.00026,.00122-.02234,.01621-.0452,.03164-.06859,.04628-.17521,.11393-.26441,.35973-.1435,.54728,.11283,.175,.35965,.26551,.54728,.1435,.40593-.26396,.66404-.66968,.90272-1.08037,.24725-.42543,.47827-.91601,.42358-1.42134-.03161-.29207-.1287-.56748-.40566-.71214-.23054-.12042-.5143-.12911-.75822-.04553-.49834,.17076-.76272,.60871-.96737,1.06437-.08552,.19041-.06134,.43905,.1435,.54728,.17468,.09229,.45575,.06028,.54728-.1435h0Z"/>
        <path class="cls-12" d="M110.10536,19.61311c.0473,.37216,.1194,.73696,.23538,1.09417,.03199,.09852,.09301,.18591,.18382,.23905,.08574,.05017,.2121,.07143,.30822,.04032,.09679-.03132,.19017-.0913,.23905-.18382,.04902-.09278,.07372-.20536,.04032-.30822-.09865-.30384-.17014-.61554-.21379-.93199l.01429,.10634c-.0025-.01861-.00493-.03722-.0073-.05585,.00208-.05507-.00941-.10644-.03445-.15411-.01613-.04959-.0437-.0925-.08271-.12873-.06938-.06938-.1832-.12162-.28284-.11716-.10345,.00463-.21074,.03861-.28284,.11716-.06648,.07242-.13017,.18043-.11716,.28284h0Z"/>
        <path class="cls-12" d="M110.81019,22.02123l.30221-.4594c.02923-.04591,.04505-.09549,.04747-.14872,.01191-.05317,.00953-.10634-.00714-.1595-.01238-.05205-.03624-.0974-.0716-.13603-.0282-.04355-.06561-.07789-.11223-.10302-.09283-.04905-.20529-.07363-.30822-.04032l-.09555,.04032c-.06011,.03556-.10794,.08339-.1435,.1435l-.30221,.4594c-.02923,.04591-.04505,.09549-.04747,.14872-.01191,.05317-.00953,.10634,.00714,.1595,.01238,.05205,.03624,.0974,.0716,.13603,.0282,.04355,.06561,.07789,.11223,.10302,.09283,.04905,.20529,.07363,.30822,.04032l.09555-.04032c.06011-.03556,.10794-.08339,.1435-.1435h0Z"/>
        <path class="cls-12" d="M99.88102,17.02745c2.64574,.40801,5.22221,1.18919,7.64068,2.33841,.4626,.21982,.86903-.46969,.40378-.69078-2.48254-1.17967-5.11471-2.00005-7.83179-2.41906-.50366-.07767-.72072,.69308-.21267,.77142h0Z"/>
        <path class="cls-12" d="M106.98164,18.36077c.15984-.0523,.32328-.08967,.48991-.11239l-.10634,.01429c.23855-.03037,.47862-.02986,.71697,.00214l-.10634-.01429c.03165,.00454,.0632,.00951,.09471,.01492,.10869,.01866,.2098,.01727,.30822-.04032,.08297-.04856,.1621-.14369,.18382-.23905,.04419-.19401-.05886-.45419-.27938-.49205-.50624-.08691-1.02385-.06514-1.51426,.09533-.19851,.06496-.3481,.27968-.27938,.49205,.06415,.19822,.2791,.34906,.49205,.27938h0Z"/>
        <path class="cls-12" d="M110.12636,18.60712c.04137-.01258,.08331-.02179,.12612-.02786l-.10634,.01429c.0716-.00914,.14333-.00898,.21493,.00017l-.10634-.01429c.07146,.0101,.14068,.02891,.2073,.05669l-.09555-.04032c.03636,.01575,.07131,.03385,.10511,.05455,.08744,.05355,.21017,.06732,.30822,.04032,.09278-.02555,.19333-.09729,.23905-.18382,.04905-.09283,.07363-.20529,.04032-.30822-.03249-.10041-.09254-.18315-.18382-.23905-.07671-.04697-.16132-.08249-.24584-.11243-.0871-.03086-.17694-.04208-.26846-.05341-.05719-.00708-.11458-.00933-.17208-.00475-.09228,.00734-.18638,.0197-.2753,.04673-.09791,.02977-.18689,.09468-.23905,.18382-.05017,.08574-.07143,.2121-.04032,.30822,.03132,.09679,.0913,.19017,.18382,.23905,.09382,.04957,.20404,.072,.30822,.04032h0Z"/>
        <path class="cls-12" d="M109.79766,18.80608l.04838,.27303c.01238,.05205,.03624,.0974,.0716,.13603,.0282,.04355,.06561,.07789,.11223,.10302,.04591,.02923,.09549,.04505,.14872,.04747,.05317,.01191,.10634,.00953,.1595-.00714l.09555-.04032c.06011-.03556,.10794-.08339,.1435-.1435l.04032-.09555c.01905-.07089,.01905-.14178,0-.21267l-.04838-.27303c-.01238-.05205-.03624-.0974-.0716-.13603-.0282-.04355-.06561-.07789-.11223-.10302-.04591-.02923-.09549-.04505-.14872-.04747-.05317-.01191-.10634-.00953-.1595,.00714l-.09555,.04032c-.06011,.03556-.10794,.08339-.1435,.1435l-.04032,.09555c-.01905,.07089-.01905,.14178,0,.21267h0Z"/>
        <path class="cls-12" d="M100.16203,17.40147c-.0095-.74873-.63964-1.36737-1.39936-1.29649-.76162,.07106-1.48363,.67243-1.49413,1.46102-.00563,.4225,.04289,.84553,.037,1.2692-.00631,.45383-.03672,.90734-.09143,1.35792-.10986,.90469-.33459,1.79503-.63766,2.6535-.17172,.48641,.60092,.69565,.77142,.21267,.45226-1.28106,.70797-2.62904,.75217-3.98736,.01091-.33527,.00882-.67103-.00706-1.00612-.01272-.26849-.09934-.60811,.09225-.8274,.32687-.37411,1.16798-.53151,1.17679,.16305,.00652,.5144,.80654,.51581,.8,0h0Z"/>
        <path class="cls-12" d="M96.85318,22.679c-.35169-.52095-.315-1.15022-.36227-1.7532-.03987-.50845-.09478-1.01542-.16206-1.52095-.15737-1.18242-.43103-2.32449-.68628-3.48682-.25731-1.1717,.34567-2.5523,.63431-3.69662,.07424-.29434,.10915-.67074,.23826-.94459-.02169-.17845,.04826-.27846,.20984-.30005,.14729-.07373,.29457-.14745,.44186-.22118,.55232-.27647,1.10465-.55294,1.65697-.82942,1.05275-.52697,2.15392-1.22062,3.34725-1.34408,1.16636-.12067,2.15173,.53569,3.18739,.9598,1.03037,.42194,2.16687,.52514,3.16492,1.03111,.50272,.25486,1.07639,.54884,1.25453,1.11963,.09571,.30666-.00984,.89434,.26011,1.10962,.18497,.14751,.50371,.17279,.62823-.08096,.07406-.1509,.08336-.25682,.05284-.41908-.09506-.50534-.86623-.29134-.77142,.21267l.02781-.19737,.62823-.08096c.19042,.15186,.05716-.1679,.03734-.30174-.03174-.21436-.07387-.42267-.14983-.62653-.12246-.32866-.31792-.59091-.59063-.80993-.74965-.60204-1.6519-.95403-2.57176-1.19802-1.03281-.27395-1.95487-.64066-2.9331-1.06641-.84143-.36621-1.68403-.56383-2.60153-.40655-1.00302,.17193-1.9225,.68136-2.82183,1.13154-.5155,.25804-1.031,.51608-1.5465,.77412-.43486,.21767-1.05122,.3962-1.40653,.72608-.2772,.25736-.30781,.73271-.39473,1.07732-.13898,.55101-.27796,1.10202-.41695,1.65304-.24999,.99112-.58919,1.9233-.33649,2.94122,.31576,1.27191,.58125,2.5476,.72936,3.85115,.11345,.99851-.02485,2.23178,.5619,3.10092,.28653,.42442,.97991,.02451,.69078-.40378h0Z"/>
        <path class="cls-12" d="M109.78359,12.24339c-.72367-.35113-1.5386-.6893-2.34828-.41988-.39481,.13137-.63531,.47528-1.00624,.62726-.29199,.11964-.63703,.0832-.94459,.11167-.74297,.06878-1.26678,.43902-1.42558,1.19512-.07336,.3493-.10597,.70101-.25895,1.02874-.16109,.34512-.39742,.63019-.688,.87372-.39505,.33107,.17342,.89443,.56569,.56569,.50897-.42655,.88531-1.01525,1.04285-1.66245,.06951-.28557,.06408-.61539,.19228-.88343,.12484-.261,.39237-.30524,.65589-.32407,.29174-.02084,.58474-.02179,.87268-.08,.34218-.06917,.59494-.25411,.86267-.46577,.65206-.5155,1.40883-.19944,2.0758,.12418,.46126,.2238,.86737-.46584,.40378-.69078h0Z"/>
        <path class="cls-12" d="M102.56469,16.35491c-.21756,.50327-.28714,1.02823-.2942,1.57372-.00661,.5108,.02527,1.02233-.03982,1.53073l.50634-.38571c-.54895-.21412-1.09791-.42823-1.64686-.64235-.02525-.00985-.15418-.05798-.15272-.06189,.05529,.06488,.06577,.06917,.03143,.01285,.01612,.03294,.01243,.02088-.01107-.03619-.04245-.12291-.09039-.24418-.13553-.36612-.10326-.27895-.20652-.5579-.30978-.83685-.07496-.20249-.27095-.34014-.49205-.27938-.1948,.05353-.35475,.28843-.27938,.49205,.11294,.3051,.22588,.6102,.33883,.9153,.05879,.1588,.11246,.32073,.18136,.47551,.08363,.18789,.22512,.2993,.41157,.3756,.61293,.25081,1.23454,.48223,1.85154,.72289,.11568,.04512,.25636-.00034,.3487-.0716,.10786-.08324,.14088-.18323,.15763-.31412,.06075-.47445,.03735-.95194,.03905-1.42879,.00155-.43768,.01386-.87425,.18575-1.27188,.08565-.19813,.05868-.42902-.1435-.54728-.1689-.09879-.46109-.05586-.54728,.1435h0Z"/>
        <path class="cls-12" d="M109.28706,13.11318c.10552,.56865,.24581,1.13015,.42392,1.68048,.08742,.2701,.18418,.53688,.28819,.80101,.10154,.25788,.2116,.50521,.17497,.78717-.02788,.2146,.2038,.4,.4,.4,.23931,0,.37204-.18476,.4-.4,.03957-.3046-.04874-.60314-.15779-.88432-.11011-.2839-.21918-.56718-.31438-.85657-.18733-.56946-.33413-1.15109-.44349-1.74043-.03944-.21253-.29651-.33311-.49205-.27938-.22314,.06132-.31893,.2789-.27938,.49205h0Z"/>
        <path class="cls-12" d="M110.09303,16.95978c-.06106,.42522-.09653,.85137-.09203,1.28117,.00219,.20915,.18242,.40975,.4,.4,.21485-.00962,.40235-.1758,.4-.4-.00387-.36997,.01888-.73948,.0681-1.10618l-.01429,.10634c.00314-.0229,.00636-.04578,.00964-.06866,.01594-.11099,.01873-.20731-.04032-.30822-.04856-.08297-.14369-.1621-.23905-.18382-.1024-.02332-.21733-.01828-.30822,.04032-.08115,.05232-.16943,.13884-.18382,.23905h0Z"/>
        <path class="cls-12" d="M96.61712,23.11905c.13912,.96277,1.18952,1.50962,1.85557,2.09952,.83248,.73731,1.64795,1.41579,2.68258,1.85284,1.00451,.42434,2.12484,.82247,3.18991,1.05821,1.09968,.24341,2.20126,.08805,3.28726-.14665,.50297-.1087,.29012-.88008-.21267-.77142-1.00501,.2172-2.03096,.36932-3.04289,.1026-.90628-.23887-1.83593-.54908-2.70827-.89194-.93424-.36719-1.68598-.93152-2.43129-1.59236-.3493-.30971-.70148-.61158-1.06691-.90208-.35486-.2821-.71305-.54514-.78187-1.0214-.07335-.50758-.84431-.29173-.77142,.21267h0Z"/>
        <path class="cls-12" d="M102.10404,28.01104c-.25682,.91954-.33715,1.86955-.22636,2.81818l.60189-.34539c-1.50245-.79766-2.7101-2.119-3.95066-3.25986-.61556-.56609-1.14709-1.19526-1.73442-1.78683-.56316-.56723-1.21569-1.0422-1.92069-1.41721-.45434-.24167-.85898,.44864-.40378,.69078,1.49476,.7951,2.48324,2.15108,3.7098,3.27794,1.22297,1.12356,2.41496,2.39968,3.89597,3.18596,.24007,.12746,.63931-.02496,.60189-.34539-.10309-.88268-.0414-1.74913,.19778-2.60551,.13871-.49665-.63291-.70861-.77142-.21267h0Z"/>
        <path class="cls-12" d="M95.07883,24.16888c.01475-.07208,.03505-.14242,.06101-.21128,.02272-.06025,.00614-.00543-.00974,.02005,.01003-.0161,.01603-.03611,.02406-.05328,.01495-.03194,.03068-.06351,.04697-.09479,.0713-.13684,.15324-.26772,.23057-.40115,.17504-.30204,.32123-.62836,.31641-.98448-.00283-.20912-.18195-.40977-.4-.4-.21429,.0096-.40304,.17582-.4,.4,.00052,.0384-.00127,.07617-.00411,.11442-.00423,.05683,.00024-.02852,.00539-.03919-.00739,.01529-.00714,.03864-.01082,.05517-.01479,.06654-.0372,.12978-.06042,.19369-.01678,.04619,.03931-.08516,.00921-.02193-.00824,.01732-.01603,.03485-.02438,.05213-.01516,.03136-.03105,.06236-.04745,.09309-.03512,.06584-.07261,.13038-.11051,.19465-.16141,.2737-.33307,.55491-.39762,.87023-.04184,.20441,.05911,.44188,.27938,.49205,.19963,.04547,.44717-.06016,.49205-.27938h0Z"/>
        <path class="cls-12" d="M102.6509,29.65099c.23623,.22679,.4948,.43081,.76864,.61033l-.18382-.45172c-.20596,.71479-.31043,1.46034-.31027,2.20419,.00005,.20923,.18395,.40968,.4,.4,.21668-.00971,.40005-.17575,.4-.4-.00015-.68729,.09092-1.32946,.28169-1.99152,.05105-.17718-.03596-.35479-.18382-.45172-.22979-.15064-.40308-.28973-.60673-.48524-.15582-.14959-.41073-.15495-.56569,0-.15078,.15078-.15637,.41557,0,.56569h0Z"/>
        <path class="cls-12" d="M105.76071,33.13027c.09744-.33869,.05774-.67387,.0293-1.01877-.02759-.33459-.04558-.66993-.05384-1.00555s-.00694-.67146,.00429-1.00699c.00539-.16105,.01295-.32203,.02277-.48287,.00402-.06582-.01119-.27332,.03776-.31784l-.62823-.08096c.18122,.25359,.44207,.38245,.75687,.34701,.30476-.03432,.5381-.22379,.75215-.42955,.37188-.35747-.19427-.92271-.56569-.56569-.07488,.07197-.14918,.12924-.23219,.18961-.06372,.04634-.07785-.02559-.02037,.05485-.15359-.21493-.42463-.26613-.62823-.08096-.26948,.24509-.25784,.62819-.2768,.96396-.02044,.362-.0295,.72462-.02729,1.08719s.0157,.72505,.04055,1.08677c.02326,.33854,.11287,.71571,.01752,1.04712-.14261,.49569,.62911,.70733,.77142,.21267h0Z"/>
        <path class="cls-12" d="M104.06081,30.23631l.62321-.21996c.09927-.03504,.18459-.09075,.23905-.18382,.05017-.08574,.07143-.2121,.04032-.30822-.03132-.09679-.0913-.19017-.18382-.23905-.09136-.04827-.2072-.07598-.30822-.04032l-.62321,.21996c-.09927,.03504-.18459,.09075-.23905,.18382-.05017,.08574-.07143,.2121-.04032,.30822,.03132,.09679,.0913,.19017,.18382,.23905,.09136,.04827,.2072,.07598,.30822,.04032h0Z"/>
        <path class="cls-12" d="M101.8507,31.15153c.17559,.29892,.39512,.57744,.64671,.81608,.07568,.07178,.17748,.11716,.28284,.11716,.09811,0,.2153-.04358,.28284-.11716,.06998-.07623,.12193-.17631,.11716-.28284-.00468-.10447-.03934-.20903-.11716-.28284-.12496-.11852-.24053-.24626-.3461-.38233l.06255,.08096c-.08664-.11258-.16611-.2303-.23807-.35279-.05101-.08684-.14188-.15706-.23905-.18382-.09575-.02637-.22325-.01446-.30822,.04032-.08541,.05506-.16059,.13706-.18382,.23905-.0239,.10492-.01526,.21361,.04032,.30822h0Z"/>
        <path class="cls-12" d="M109.12734,27.37082c.53491,.06058,1.07048,.11494,1.60676,.16198,.04348,.00383,.08696,.00761,.13045,.01132l-.08544-.0663c.01283-.00324,.08962,.15092,.09871,.16646,.06642,.11363,.13284,.22726,.19926,.34089,.13942,.23853,.27964,.47661,.418,.71576,.26025,.44979,.49163,.90245,.63506,1.4039,.14409,.50375,.22443,1.02259,.30439,1.53951,.03305,.21367,.30098,.33188,.49205,.27938,.2281-.06268,.31253-.27774,.27938-.49205-.08829-.57077-.1766-1.14535-.35187-1.69724-.18769-.59102-.48699-1.12776-.79841-1.66063-.15496-.26515-.30996-.53028-.46494-.79542-.15058-.25761-.29506-.47416-.61173-.52069-.61156-.08985-1.23702-.11725-1.85166-.18686-.215-.02435-.4,.20127-.4,.4,0,.23647,.18438,.37558,.4,.4h0Z"/>
        <path class="cls-12" d="M112.49944,32.30679l.03666,.69653c.00557,.10587,.04082,.2065,.11716,.28284,.06938,.06938,.1832,.12162,.28284,.11716,.10345-.00463,.21074-.03861,.28284-.11716,.06965-.07587,.12275-.17667,.11716-.28284l-.03666-.69653c-.00557-.10587-.04082-.2065-.11716-.28284-.06938-.06938-.1832-.12162-.28284-.11716-.10345,.00463-.21074,.03861-.28284,.11716-.06965,.07587-.12275,.17667-.11716,.28284h0Z"/>
        <path class="cls-12" d="M94.0992,24.46734c-.34162,.26629-.74641,.45291-1.16467,.55955-.45339,.11559-.92241,.07613-1.37835,.17262-.88099,.18645-1.4559,1.12227-1.17506,1.99163,.15762,.4879,.93033,.27921,.77142-.21267-.08177-.25312-.04006-.52853,.13099-.73917,.2235-.27522,.5954-.29388,.94045-.31397,.90888-.05292,1.72004-.33039,2.4409-.89231,.17053-.13293,.13951-.42617,0-.56569-.16834-.16834-.39471-.13328-.56569,0h0Z"/>
        <path class="cls-12" d="M94.90194,25.11315c1.70652,1.63278,3.50956,3.22907,5.05509,5.01835,1.5445,1.78808,2.3028,3.96276,3.01025,6.17989,.15591,.48862,.92856,.27978,.77142-.21267-.7081-2.21919-1.46821-4.40416-2.96209-6.23117-1.57577-1.92715-3.51361-3.60229-5.30898-5.32009-.37203-.35595-.93857,.20891-.56569,.56569h0Z"/>
        <path class="cls-12" d="M105.33978,36.30215c.83389-2.61071,2.10949-5.05399,3.76164-7.24013,.31043-.41076-.3839-.80983-.69078-.40378-1.69295,2.24012-2.98807,4.75689-3.84229,7.43123-.15701,.49157,.61512,.70202,.77142,.21267h0Z"/>
        <path class="cls-12" d="M107.26777,15.58805l1.22072-.37228c.19991-.06096,.34717-.28257,.27938-.49205-.06525-.20164-.2777-.34475-.49205-.27938l-1.22072,.37228c-.19991,.06096-.34717,.28257-.27938,.49205,.06525,.20164,.2777,.34475,.49205,.27938h0Z"/>
        <path class="cls-12" d="M110.55334,15.29947l.30484-.11627c.05205-.01238,.0974-.03624,.13603-.0716,.04355-.0282,.07789-.06561,.10302-.11223,.02923-.04591,.04505-.09549,.04747-.14872,.01191-.05317,.00953-.10634-.00714-.1595l-.04032-.09555c-.03556-.06011-.08339-.10794-.1435-.1435l-.09555-.04032c-.07089-.01905-.14178-.01905-.21267,0l-.30484,.11627c-.05205,.01238-.0974,.03624-.13603,.0716-.04355,.0282-.07789,.06561-.10302,.11223-.02923,.04591-.04505,.09549-.04747,.14872-.01191,.05317-.00953,.10634,.00714,.1595l.04032,.09555c.03556,.06011,.08339,.10794,.1435,.1435l.09555,.04032c.07089,.01905,.14178,.01905,.21267,0h0Z"/>
        <path class="cls-12" d="M84.59185,28.21321c2.07375,.38749,3.96994-.63482,5.73852-1.58258,.45396-.24327,.05037-.93415-.40378-.69078-1.54813,.82962-3.29541,1.84325-5.12207,1.50193-.50322-.09403-.71891,.67683-.21267,.77142h0Z"/>
        <path class="cls-12" d="M83.17973,42.12751c2.89902-2.09459,5.54456-4.51708,7.87264-7.23273,.33343-.38894-.22992-.95735-.56569-.56569-2.28208,2.66199-4.8683,5.05394-7.71073,7.10764-.41345,.29872-.01457,.99303,.40378,.69078h0Z"/>
        <path class="cls-12" d="M90.2753,32.41253c.13928,.95099-.11477,2.19482,.92795,2.72764,.49232,.25157,1.07884,.19637,1.55973,.46549,.4202,.23516,.71067,.62963,.82276,1.09567,.12034,.50034,.89196,.28848,.77142-.21267-.12641-.52557-.43052-1.00502-.85372-1.34162-.22508-.17902-.46771-.31583-.73966-.41132-.26387-.09265-.54343-.12003-.81508-.18081-.22047-.04933-.4442-.11481-.59052-.29929-.12617-.15907-.17611-.37307-.20453-.56969-.07109-.49187-.03468-.99284-.10692-1.48608-.03133-.21394-.30218-.33155-.49205-.27938-.22942,.06305-.31081,.27745-.27938,.49205h0Z"/>
        <path class="cls-12" d="M91.10287,26.54646c.51476,0,.51561-.8,0-.8-.51476,0-.51561,.8,0,.8h0Z"/>
        <path class="cls-12" d="M91.22009,26.53575c.3012-.06333,.59371,.70825,.69069,.90735,.22897,.47005,.42002,.95669,.57677,1.45542,.31407,.99926,.48113,2.03107,.50321,3.07792,.01084,.51407,.81088,.51585,.8,0-.02717-1.28844-.25668-2.5738-.69979-3.7849-.21039-.57502-.45386-1.15983-.76904-1.68624-.28592-.47753-.72727-.86443-1.31452-.74096-.50352,.10587-.29044,.8772,.21267,.77142h0Z"/>
        <path class="cls-12" d="M91.4328,35.67472c.51476,0,.51561-.8,0-.8-.51476,0-.51561,.8,0,.8h0Z"/>
        <path class="cls-12" d="M94.77309,26.42557c3.95651,3.35658,6.28407,8.07712,8.51304,12.66,.22514,.46289,.91526,.05777,.69078-.40378-2.25739-4.64132-4.63158-9.42288-8.63813-12.82191-.39041-.33121-.959,.23201-.56569,.56569h0Z"/>
        <path class="cls-12" d="M104.9061,37.69789c-.00288-.01666-.02408-.16502-.0123-.0687-.0043-.03515-.00826-.07033-.01161-.10559-.00781-.08224-.0126-.1648-.01451-.24739-.00369-.15933,.00352-.31887,.02137-.47723,.00192-.0176,.00403-.03519,.0063-.05275-.0064,.04784-.00614,.04823,.00077,.00117,.00608-.03491,.01163-.06984,.01821-.10467,.01534-.08118,.03362-.16183,.05468-.24172,.04217-.15997,.09629-.31614,.16008-.46874,.08095-.19365-.08712-.44826-.27938-.49205-.23384-.05326-.40535,.07199-.49205,.27938-.28955,.69268-.35047,1.45475-.223,2.19096,.03579,.20672,.30037,.34141,.49205,.27938,.22269-.07207,.31773-.27055,.27938-.49205h0Z"/>
        <path class="cls-12" d="M83.02834,41.57298c-1.40273,3.45764-2.30422,7.08578-2.70715,10.7945-.05553,.51114,.74489,.50721,.8,0,.39484-3.63422,1.30461-7.1951,2.67858-10.58183,.19346-.47687-.58008-.68432-.77142-.21267h0Z"/>
        <path class="cls-12" d="M77.94357,37.94358l-1.26472-.56091c-.21592-.09576-.5334-.039-.5876,.23905-1.06242,5.4503-.27792,11.15315-1.96521,16.495-.15543,.49207,.61666,.70265,.77142,.21267,1.68948-5.3488,.90238-11.04264,1.96521-16.495l-.5876,.23905,1.26472,.56091c.46646,.20688,.87396-.48224,.40378-.69078h0Z"/>
        <path class="cls-12" d="M75.81122,54.28381c.5701-.49796,1.47419-.10405,2.02297,.22738,.76494,.46199,1.48395,.99983,2.40888,1.0542v-.8l-.46958,.02407c-.13941,.00715-.29791,.04161-.42868-.00796l.17651,.10287c-.01581-.0124-.02065,.03618,.00592,.02172,.02404-.01307,.06071-.085,.08506-.1088,.10134-.09903,.23724-.16118,.36284-.22362,.27535-.13688,.55382-.26443,.77006-.49109,.46077-.48299,.40299-1.1796-.14229-1.56703-.52591-.37366-1.28101-.42095-1.90336-.44913-.76372-.03459-1.53316,.05746-2.27135,.2537-.49708,.13214-.28623,.90405,.21267,.77142,.76627-.2037,1.55273-.27452,2.34331-.20644,.2189,.01885,1.59446,.14041,1.2088,.618-.18363,.22741-.5119,.31344-.75869,.45049-.28574,.15868-.56438,.38909-.66794,.7108-.09724,.30207-.0243,.68093,.27025,.84819,.33183,.18843,.84349,.0714,1.20648,.05279,.51526-.02641,.51432-.76977,0-.8-.9441-.0555-1.65414-.82945-2.48118-1.19716-.82299-.36592-1.79204-.48277-2.51636,.14989-.38848,.33932,.17927,.90321,.56569,.56569h0Z"/>
        <path class="cls-12" d="M74.81769,55.55733c-.38298,1.61067-.6166,3.2552-.69909,4.9087-.01889,.37862,.58396,.56967,.74539,.20189,.02725-.06208,.05527-.12778,.09854-.18082,.12154-.14898,.05777,.03582-.13089-.113,.27003,.213,.66467,.08634,.68284-.28284,.03112-.63207,.06224-1.26415,.09336-1.89622,.02534-.51461-.77473-.51327-.8,0-.03112,.63207-.06224,1.26415-.09336,1.89622l.68284-.28284c-.4769-.37618-1.00644-.0402-1.22411,.45572l.74539,.20189c.07902-1.58417,.3036-3.15293,.67051-4.69603,.11901-.50053-.65219-.71413-.77142-.21267h0Z"/>
        <path class="cls-12" d="M75.92911,59.07165l.18749-1.25146h-.77142c.25028,1.04968,.43694,2.11251,.62194,3.17522l.77142-.21267c-.24645-1.27138,.12556-2.6461,.97646-3.62175,.14192-.16272,.16009-.4056,0-.56569-.14493-.14493-.42309-.1635-.56569,0-1.05063,1.20466-1.48629,2.83133-1.18219,4.40011,.04113,.2122,.29532,.33344,.49205,.27938,.22498-.06183,.31656-.27845,.27938-.49205-.185-1.06271-.37166-2.12554-.62194-3.17522-.08657-.36309-.7116-.39933-.77142,0l-.18749,1.25146c-.03197,.21338,.05348,.42998,.27938,.49205,.18879,.05188,.45984-.06442,.49205-.27938h0Z"/>
        <path class="cls-12" d="M76.57964,60.17753l-.16824,1.05126,.78571,.10634c-.01502-.13027-.03005-.26054-.04507-.39081-.01263-.10952-.03623-.20192-.11716-.28284-.06938-.06938-.1832-.12162-.28284-.11716-.10345,.00463-.21074,.03861-.28284,.11716-.06698,.07297-.12904,.17979-.11716,.28284,.01502,.13027,.03005,.26054,.04507,.39081,.01207,.10463,.03519,.2076,.11716,.28284,.06607,.06065,.14039,.09802,.22967,.11001,.08527,.01146,.18056,.00056,.25506-.04747,.082-.05287,.16772-.13841,.18382-.23905l.16824-1.05126c.01755-.10965,.01787-.20877-.04032-.30822-.04856-.08297-.14369-.1621-.23905-.18382-.1024-.02332-.21733-.01828-.30822,.04032-.082,.05287-.16772,.13841-.18382,.23905h0Z"/>
        <path class="cls-12" d="M76.75223,58.59533c.51476,0,.51561-.8,0-.8-.51476,0-.51561,.8,0,.8h0Z"/>
        <path class="cls-12" d="M77.58474,58.85354l.44097-1.53941c.05759-.20104-.07024-.44441-.27938-.49205-.21322-.04857-.43037,.06406-.49205,.27938l-.44097,1.53941c-.05759,.20104,.07024,.44441,.27938,.49205,.21322,.04857,.43037-.06406,.49205-.27938h0Z"/>
        <path class="cls-12" d="M77.01673,57.7573l-.21429,1.162c-.01897,.10287-.01911,.21604,.04032,.30822,.04789,.07429,.1095,.12915,.19128,.16366,.16807,.07093,.41623,.01765,.4995-.16366,.16691-.36341,.26368-.74123,.27856-1.14211,.00777-.20933-.18954-.40943-.4-.4-.22337,.01-.39168,.17573-.4,.4-.00288,.0776-.00917,.15478-.01885,.23183l.01429-.10634c-.02924,.21734-.08636,.42866-.1708,.63105l.04032-.09555c-.01109,.02594-.02251,.05171-.03429,.07735l.7311,.30822,.21429-1.162c.01985-.10763,.01662-.21092-.04032-.30822-.04856-.08297-.14369-.1621-.23905-.18382-.19618-.04468-.45147,.05934-.49205,.27938h0Z"/>
        <path class="cls-12" d="M78.04314,57.96691l.94691,1.26318c.21322,.28443,.60229,.24112,.7311-.09555,.29748-.77755,.39981-1.62418,.29332-2.44995-.10622-.82369-.49766-1.61051-.45405-2.45027,.02672-.51453-.77335-.51307-.8,0-.04304,.82869,.30258,1.58649,.442,2.38825,.13471,.77465,.02663,1.56918-.2527,2.2993l.7311-.09555-.94691-1.26318c-.12937-.17258-.3457-.2614-.54728-.1435-.17008,.09948-.27384,.3734-.1435,.54728h0Z"/>
        <path class="cls-12" d="M74.60685,54.78963c-.20464,.86339-.32055,1.74885-.34423,2.63585-.00559,.20933,.18798,.4095,.4,.4,.2215-.00992,.39401-.17571,.4-.4,.02232-.83634,.12315-1.61101,.31565-2.42318,.04816-.20321-.06355-.44289-.27938-.49205-.20506-.04671-.44043,.0616-.49205,.27938h0Z"/>
        <path class="cls-12" d="M77.57786,59.62142l.65987-1.97962c.06622-.19866-.07642-.44582-.27938-.49205-.22077-.05028-.42115,.06668-.49205,.27938l-.65987,1.97962c-.06622,.19866,.07642,.44582,.27938,.49205,.22077,.05028,.42115-.06668,.49205-.27938h0Z"/>
        <path class="cls-12" d="M77.13602,37.62526c3.20865-2.34605,5.90746-5.32576,7.90756-8.76237,.25948-.44585-.43164-.84903-.69078-.40378-1.92809,3.31289-4.52515,6.21213-7.62056,8.47537-.41142,.30081-.01271,.9953,.40378,.69078h0Z"/>
        <path class="cls-12" d="M108.62153,26.12894c-.1273,.45537-.25581,.92835-.23729,1.40557,.01819,.46871,.16578,.9111,.47624,1.26678l.48473-.62823c-.2032-.12828-.40236-.26274-.59652-.40434-.04853-.03539-.09675-.07122-.14466-.10744-.01518-.01147-.07232-.05519-.0303-.02269-.02112-.01633-.0421-.03284-.06305-.04938-.09953-.07857-.19763-.15895-.29426-.24106-.37142-.31562-.71981-.65725-1.04445-1.02074-.1398-.15653-.42518-.15306-.56569,0-.15339,.1671-.14912,.39872,0,.56569,.6807,.76218,1.47118,1.42531,2.33516,1.97074,.16895,.10666,.39872,.04879,.516-.10302,.12648-.16371,.1014-.37321-.03127-.52521-.02953-.03556-.03159-.03648-.00618-.00275-.01437-.0192-.02817-.0388-.0414-.05879-.01983-.02994-.03836-.06075-.05564-.09222-.0077-.01402-.06698-.1466-.03582-.06737-.01324-.03365-.02525-.06779-.03613-.10228-.0256-.08121-.04357-.16402-.05801-.24785,.01553,.09015-.00487-.05821-.00598-.07516-.00278-.04245-.00414-.08495-.00432-.12749-.0004-.0964,.00586-.19256,.01626-.28836,.00338-.02846,.00312-.02822-.00079,.00069,.0041-.02813,.00854-.0562,.01332-.08422,.00835-.04911,.0178-.09802,.02794-.14679,.04214-.20266,.09784-.40214,.15354-.60139,.05629-.20137-.06932-.4442-.27938-.49205-.2121-.04831-.43175,.0637-.49205,.27938h0Z"/>
        <path class="cls-12" d="M103.08139,25.86179c.28487,.12329,.57798,.1978,.89082,.19767,.3128-.00013,.60594-.07472,.8907-.19825,.08561-.03714,.16026-.15348,.18382-.23905,.02637-.09575,.01446-.22325-.04032-.30822-.05506-.08541-.13706-.16059-.23905-.18382-.11179-.02546-.204-.00489-.30822,.04032,.02964-.01286,.07775-.03131,.01909-.00883-.01471,.00563-.02949,.01105-.04435,.01626-.03715,.01303-.07474,.02472-.11271,.03509-.07226,.01974-.14558,.03414-.2197,.04477l.10634-.01429c-.15694,.02034-.31421,.02041-.47117,.0002l.10634,.01429c-.07413-.01057-.14747-.02491-.21974-.04458-.03418-.0093-.06808-.01962-.1016-.0311-.0317-.01085-.15147-.06101-.03645-.01123-.10259-.0444-.19568-.07132-.30822-.04032-.09278,.02555-.19333,.09729-.23905,.18382-.04905,.09283-.07363,.20529-.04032,.30822,.02983,.09218,.09073,.19876,.18382,.23905h0Z"/>
        <g>
          <path class="cls-9" d="M108.96068,25.55293c-.2206-.0524-.44941,.01945-.67573,.0332s-.49584-.06563-.56364-.282c-.07671-.2448,.1513-.48249,.1636-.73874"/>
          <path class="cls-12" d="M109.06701,25.16722c-.24978-.05465-.48027-.01811-.72971,.0164l.10634-.01429c-.10844,.01451-.21547,.02449-.3244,.01019l.10634,.01429c-.06061-.00927-.11892-.02448-.17557-.0481l.09555,.04032c-.03891-.01755-.07489-.03836-.1087-.06445l.08096,.06255c-.02387-.01993-.04492-.04135-.06409-.06587l.06255,.08096c-.01517-.02135-.02772-.04317-.03854-.06699l.04032,.09555c-.01069-.02697-.01805-.05379-.023-.08234l.01429,.10634c-.00426-.03512-.00416-.0691-.00049-.10429l-.01429,.10634c.01475-.10391,.05735-.19957,.09686-.2959,.0526-.12824,.08402-.25289,.09349-.39253,.01418-.2092-.19411-.40922-.4-.4-.22884,.01025-.38481,.1759-.4,.4-.00059,.0122-.00165,.02436-.00317,.03648l.01429-.10634c-.02306,.16229-.11119,.30273-.15484,.45887-.07339,.26252-.02514,.52686,.15157,.73556,.12295,.1452,.31759,.2411,.50354,.27272,.10327,.01756,.20668,.02973,.31129,.02187,.12679-.00952,.25251-.03154,.37844-.0485l-.10634,.01429c.10487-.01348,.20913-.02189,.31457-.00961l-.10634-.01429c.02242,.00333,.04427,.00733,.06642,.01218,.20391,.04462,.44232-.06105,.49205-.27938,.04601-.20201-.06077-.44421-.27938-.49205h0Z"/>
        </g>
        <path class="cls-12" d="M97.80066,20.38788l.29412,.32783c.03623,.03901,.07914,.06658,.12873,.08271,.04767,.02504,.09904,.03653,.15411,.03445,.05507,.00208,.10644-.00941,.15411-.03445,.04959-.01613,.0925-.0437,.12873-.08271l.06255-.08096c.03618-.06239,.05439-.12968,.05461-.20189l-.01429-.10634c-.019-.06776-.05329-.1266-.10287-.17651l-.29412-.32783c-.03623-.03901-.07914-.06658-.12873-.08271-.04767-.02504-.09904-.03653-.15411-.03445-.05507-.00208-.10644,.00941-.15411,.03445-.04959,.01613-.0925,.0437-.12873,.08271l-.06255,.08096c-.03618,.06239-.05439,.12968-.05461,.20189l.01429,.10634c.019,.06776,.05329,.1266,.10287,.17651h0Z"/>
        <path class="cls-12" d="M111.7308,29.22586c2.97603,3.99563,4.29398,9.25946,8.34764,12.41478,.40153,.31254,.97167-.24967,.56569-.56569-3.99364-3.1086-5.28856-8.31369-8.22255-12.25287-.30404-.4082-.99879-.00977-.69078,.40378h0Z"/>
        <path class="cls-12" d="M121.20105,41.64219c1.7561,.06089,3.41373-1.12343,4.87844-1.95354,1.67432-.94891,3.31666-1.95279,4.92777-3.00537,.42935-.28051,.02892-.97347-.40378-.69078-1.50881,.98575-3.04488,1.92896-4.60926,2.82399-.76404,.43713-1.5331,.86729-2.31183,1.27782-.77976,.41107-1.5804,.77912-2.48135,.74787-.51491-.01785-.51422,.78217,0,.8h0Z"/>
        <path class="cls-12" d="M129.98213,37.18535c-.22732,.85662-.06605,1.8138,.47206,2.52501,.52549,.69453,1.31476,1.11386,2.18083,1.1815,.21564,.01684,.4-.1959,.4-.4,0-.23045-.18374-.38311-.4-.4-.56861-.04441-1.16227-.35887-1.51943-.82418-.40861-.53233-.53009-1.23639-.36204-1.86966,.13218-.49811-.63928-.71062-.77142-.21267h0Z"/>
        <path class="cls-12" d="M131.37065,37.23575l-.3666-.58655c-.05432-.08692-.13915-.15631-.23905-.18382-.05317-.01667-.10634-.01905-.1595-.00714-.05323,.00241-.10281,.01824-.14872,.04747-.08541,.05506-.16059,.13706-.18382,.23905-.02352,.10326-.01728,.21605,.04032,.30822l.3666,.58655c.05432,.08692,.13915,.15631,.23905,.18382,.05317,.01667,.10634,.01905,.1595,.00714,.05323-.00241,.10281-.01824,.14872-.04747,.08541-.05506,.16059-.13706,.18382-.23905,.02352-.10326,.01728-.21605-.04032-.30822h0Z"/>
        <path class="cls-12" d="M131.08971,36.85236l1.16447-1.57925,.55451-.75202c.04621-.06267,.09278-.12508,.13863-.18801,.10617-.1457-.04932-.05273-.05118-.04174-.0054,.03184,.40651,.15465,.44982,.16606,1.05864,.27887,2.31227-.22241,2.55614-1.37077,.10664-.50217-.66436-.7168-.77142-.21267-.09058,.42651-.41564,.73246-.83716,.83351-.2554,.06122-.52458,.03901-.77537-.03217-.28807-.08175-.5513-.27071-.85793-.14452-.25706,.10579-.41257,.4106-.57002,.62414l-.55451,.75202-1.13674,1.54165c-.12829,.17399-.02895,.44641,.1435,.54728,.20326,.11889,.41868,.0309,.54728-.1435h0Z"/>
        <path class="cls-12" d="M133.71285,40.62339c1.55088-1.33463,2.99228-2.79155,4.31021-4.35664,.13906-.16513,.16194-.40374,0-.56569-.14281-.14281-.42589-.16601-.56569,0-1.31793,1.56509-2.75934,3.02201-4.31021,4.35664-.16384,.14099-.14471,.42098,0,.56569,.16243,.16243,.40144,.14134,.56569,0h0Z"/>
        <path class="cls-12" d="M134.72846,35.00713c.51476,0,.51561-.8,0-.8-.51476,0-.51561,.8,0,.8h0Z"/>
        <path class="cls-12" d="M134.99281,34.22652c-.01239-.02124-.0233-.04311-.03286-.06577l.04032,.09555c-.01761-.04338-.02959-.08831-.03616-.13466l.01429,.10634c-.00626-.04889-.00631-.09787,.00002-.14676l-.01429,.10634c.0049-.03412,.01278-.06739,.02384-.10004,.01667-.05317,.01905-.10634,.00714-.1595-.00241-.05323-.01824-.10281-.04747-.14872-.02514-.04661-.05948-.08402-.10302-.11223-.03863-.03536-.08398-.05922-.13603-.0716l-.10634-.01429c-.0722,.00022-.1395,.01843-.20189,.05461l-.08096,.06255c-.04957,.04991-.08386,.10874-.10287,.17651-.02374,.07006-.03104,.14419-.0395,.21732-.00465,.04021-.00476,.08095-.00043,.1212,.00767,.07118,.01503,.14534,.03705,.21418,.01611,.05037,.03864,.09884,.05983,.14713,.00839,.01912,.01801,.03759,.02852,.05562,.02514,.04661,.05948,.08402,.10302,.11223,.03863,.03536,.08398,.05922,.13603,.0716,.05317,.01667,.10634,.01905,.1595,.00714,.05323-.00241,.10281-.01824,.14872-.04747,.08541-.05506,.16059-.13706,.18382-.23905,.02394-.10511,.01502-.21334-.04032-.30822h0Z"/>
        <path class="cls-12" d="M133.17891,36.4411c.03367-.1045,.06991-.20808,.1099-.31034,.00888-.02272,.01801-.04533,.02711-.06796,.01195-.02971,.01865-.04302,.00214-.00565,.02218-.05021,.04436-.10037,.06773-.15005,.09344-.19866,.19943-.39137,.31708-.57671,.05556-.08753,.1137-.1734,.17433-.25749,.01783-.02473,.03592-.04928,.05418-.07369,.00417-.00557,.04903-.06383,.02424-.03221-.0248,.03164,.02101-.02595,.02535-.03135,.01911-.02376,.0384-.04737,.05793-.07078,.14073-.16868,.29229-.32762,.45281-.47755,.15328-.14317,.15549-.42295,0-.56569-.16417-.1507-.40217-.15273-.56569,0-.70316,.65678-1.22381,1.49196-1.51854,2.40679-.06419,.19925,.07497,.44549,.27938,.49205,.21899,.04988,.42332-.06603,.49205-.27938h0Z"/>
        <path class="cls-12" d="M135.22453,34.2474c.51476,0,.51561-.8,0-.8-.51476,0-.51561,.8,0,.8h0Z"/>
        <path class="cls-12" d="M135.61021,33.74074c.00414,.01969,.02362,.0257-.01684,.05178l-.5876-.45172c-.31363,1.33252-.85975,2.58689-1.61963,3.72552-.11996,.17976-.03508,.44283,.1435,.54728,.19619,.11475,.42703,.03668,.54728-.1435,.79441-1.19037,1.3724-2.52362,1.70027-3.91662,.07602-.32298-.28137-.64911-.5876-.45172-.29865,.1925-.42362,.50535-.35081,.85167,.04447,.2115,.29296,.33409,.49205,.27938,.21921-.06024,.32397-.27993,.27938-.49205h0Z"/>
        <path class="cls-12" d="M135.25771,36.31605c.53412-.44292,1.19058-.78587,1.86259-.98463l-.45172-.5876c-.56603,.9215-1.16294,1.82359-1.78978,2.70485-.12529,.17614-.03118,.4451,.1435,.54728,.20069,.11738,.4217,.03305,.54728-.1435,.62684-.88126,1.22375-1.78335,1.78978-2.70485,.18156-.29559-.11945-.68588-.45172-.5876-.81626,.24143-1.56127,.64777-2.2156,1.19037-.16641,.13799-.14275,.42294,0,.56569,.16466,.16466,.39887,.13833,.56569,0h0Z"/>
        <path class="cls-12" d="M135.80204,37.29272c.51476,0,.51561-.8,0-.8-.51476,0-.51561,.8,0,.8h0Z"/>
        <path class="cls-12" d="M135.78279,35.04326c.04409-.09754,.09936-.18898,.16468-.27375l-.06255,.08096c.07286-.093,.15663-.17617,.25011-.24841l-.08096,.06255c.09112-.06924,.18972-.12694,.29504-.17175l-.09555,.04032,.0102-.00424c.05205-.01238,.0974-.03624,.13603-.0716,.04355-.0282,.07789-.06561,.10302-.11223,.05017-.08574,.07143-.2121,.04032-.30822-.03132-.09679-.0913-.19017-.18382-.23905-.08827-.04664-.21139-.08055-.30822-.04032-.11103,.04612-.21911,.09267-.31978,.15878-.09874,.06483-.19393,.13887-.27919,.22083-.08553,.08221-.15965,.17655-.22842,.27289-.0514,.07199-.09527,.1489-.1317,.22948-.02923,.04591-.04505,.09549-.04747,.14872-.01191,.05317-.00953,.10634,.00714,.1595,.02555,.09278,.09729,.19333,.18382,.23905,.09283,.04905,.20529,.07363,.30822,.04032,.09315-.03014,.19699-.09077,.23905-.18382h0Z"/>
        <path class="cls-12" d="M89.50255,36.66262c-1.10498,2.41274-1.48612,5.03516-1.59648,7.66743-.12332,2.94126,.01796,5.89119,.38059,8.81165,.06261,.50423,.86339,.51051,.8,0-.3442-2.77197-.48516-5.56711-.39708-8.35952,.08302-2.63184,.39672-5.29859,1.50374-7.71579,.21285-.46477-.47644-.87178-.69078-.40378h0Z"/>
        <path class="cls-12" d="M111.67643,34.17057c-.52912,3.1167-.8368,6.2656-.91295,9.42607-.01241,.515,.7876,.51478,.8,0,.07443-3.08902,.36718-6.16697,.88437-9.2134,.08549-.50358-.6853-.71998-.77142-.21267h0Z"/>
        <path class="cls-12" d="M92.89974,34.72625c.04262-1.15202,.18811-2.29358,.43712-3.41919,.04662-.21075-.06362-.43276-.27938-.49205-.20045-.05508-.44518,.06752-.49205,.27938-.264,1.1934-.42051,2.41043-.46569,3.63186-.01905,.51488,.78098,.51409,.8,0h0Z"/>
        <path class="cls-12" d="M91.05577,36.32741l1.09979-.95315c.07417-.06428,.11716-.18765,.11716-.28284,0-.09811-.04358-.2153-.11716-.28284-.07623-.06998-.17631-.12193-.28284-.11716-.11032,.00494-.19917,.04464-.28284,.11716l-1.09979,.95315c-.07417,.06428-.11716,.18765-.11716,.28284,0,.09811,.04358,.2153,.11716,.28284,.07623,.06998,.17631,.12193,.28284,.11716,.11032-.00494,.19917-.04464,.28284-.11716h0Z"/>
        <path class="cls-12" d="M110.57092,43.49462c1.18623,4.39403,2.46078,9.41764-.10244,13.58842-.27031,.43984,.42137,.84214,.69078,.40378,2.68208-4.3642,1.42709-9.59683,.18308-14.20487-.13404-.4965-.90599-.28581-.77142,.21267h0Z"/>
        <path class="cls-12" d="M110.95969,54.40091c-3.10384,1.86636-6.694,2.6075-10.27554,2.79979-1.84754,.09919-3.69903,.06478-5.547-.00352-.86233-.03187-1.76266-.01184-2.60313-.23185-.89313-.23379-1.56276-.82931-2.2235-1.44249-.37699-.34986-.94404,.21456-.56569,.56569,.60229,.55894,1.2218,1.12289,1.98811,1.44619,.80966,.34159,1.69309,.39172,2.56037,.4292,2.04792,.0885,4.10151,.14626,6.15018,.04894,3.80104-.18056,7.62475-.93973,10.91997-2.92117,.44073-.26501,.03899-.95701-.40378-.69078h0Z"/>
        <path class="cls-12" d="M109.41753,56.47146c-3.47372,.77453-7.02371,1.09646-10.58022,.9685-.51489-.01853-.51415,.7815,0,.8,3.62585,.13046,7.25184-.20754,10.7929-.99708,.50228-.11199,.28972-.88344-.21267-.77142h0Z"/>
        <path class="cls-12" d="M120.42422,43.18878c.32949-.34943,.67886-.67962,1.04778-.98718,.08708-.0726,.1752-.14393,.26432-.21401,.01501-.0118,.07178-.0558,.02963-.02338,.02114-.01626,.04238-.03241,.06365-.04851,.04786-.03622,.096-.07206,.14441-.10755,.19903-.14592,.40272-.28523,.61025-.41877,.17577-.11311,.26403-.36033,.1435-.54728-.11328-.17571-.35906-.26462-.54728-.1435-.8473,.54523-1.63064,1.19134-2.32195,1.92448-.14362,.15231-.16239,.41662,0,.56569,.15582,.14304,.41235,.16262,.56569,0h0Z"/>
        <path class="cls-12" d="M110.87874,41.84583c1.53613,1.52979,2.66418,3.34763,3.86047,5.13941,1.16553,1.74571,2.47125,3.33824,4.18803,4.56994,.419,.30061,.81886-.39298,.40378-.69078-3.45014-2.47528-4.93011-6.63995-7.8866-9.58425-.36523-.36373-.93114,.20174-.56569,.56569h0Z"/>
        <path class="cls-12" d="M88.93066,55.42985c.53813,1.31986,.77732,2.72631,.69875,4.14963-.0284,.51442,.77169,.51282,.8,0,.082-1.48534-.16563-2.98465-.72732-4.3623-.0815-.1999-.2661-.34147-.49205-.27938-.1894,.05205-.36143,.2908-.27938,.49205h0Z"/>
        <path class="cls-12" d="M90.12668,58.65106c6.62148,1.50185,14.29816,3.04393,20.27346-1.21418,.41576-.29628,.01667-.9904-.40378-.69078-5.79838,4.13203-13.23614,2.58988-19.65702,1.13353-.50131-.1137-.71535,.65741-.21267,.77142h0Z"/>
        <path class="cls-12" d="M100.57038,59.30115c.65887,.17016,1.42339,.31483,2.022-.1113,.26814-.19088,.47439-.46425,.52312-.79623,.05144-.35037-.02876-.72005-.30113-.96567-.15536-.14011-.4144-.1648-.56569,0-.14035,.15289-.16595,.41603,0,.56569,.00232,.0021,.05425,.05376,.05425,.05376-.03315-.04535-.04116-.05579-.02403-.03133,.00728,.01019,.0141,.02069,.02046,.03149,.00651,.0107,.01255,.02165,.01813,.03286,.01357,.02716,.00876,.01432-.01443-.03854-.00192,.00348,.02191,.0662,.02339,.07183l.00599,.0246c.00818,.04337,.00763,.03303-.00165-.03103-.00731,.01488,.00455,.06062,.00473,.07682,.00024,.02152-.00222,.04307-.0021,.06451,.00022,.03773,.0189-.09529,.00009-.00362-.00523,.0255-.01168,.05064-.01938,.0755-.00371,.01246-.00782,.02478-.01234,.03697,.02295-.05124,.0281-.06312,.01546-.03566-.01434,.0275-.04259,.11085-.07172,.1224,.03388-.04298,.03683-.04785,.00885-.0146l-.01921,.0208c-.01964,.02055-.04048,.03917-.06126,.0585-.06795,.06322,.06989-.04362-.00842,.00647-.02398,.01534-.04735,.03096-.07207,.04514-.02476,.01421-.05056,.02623-.07575,.03957-.07125,.03772,.07361-.02192-.01021,.00392-.05077,.01565-.10014,.033-.15201,.04523-.02816,.00664-.05686,.01083-.08499,.01731-.04972,.01145,.08313-.00617,.00627-.00047-.06545,.00486-.13029,.00893-.19602,.00797-.07354-.00107-.14611-.00818-.21925-.01486,.08819,.00806-.02973-.005-.03907-.00657-.03631-.00612-.07252-.01291-.10863-.02012-.14478-.0289-.28781-.06587-.4307-.10277-.20232-.05225-.44355,.06644-.49205,.27938-.04751,.20859,.06262,.43607,.27938,.49205h0Z"/>
        <path class="cls-12" d="M100.57073,58.554c-.01922,.35084,.07601,.71435,.25789,1.01432,.05268,.08689,.1405,.15668,.23905,.18382,.09575,.02637,.22325,.01446,.30822-.04032,.08541-.05506,.16059-.13706,.18382-.23905,.02371-.10408,.0163-.21484-.04032-.30822-.03683-.06075-.06897-.1237-.0967-.1891l.04032,.09555c-.04697-.11396-.07917-.2326-.09635-.35465l.01429,.10634c-.01164-.08924-.01515-.17881-.01023-.26868,.00542-.09898-.04847-.21416-.11716-.28284-.06938-.06938-.1832-.12162-.28284-.11716-.10345,.00463-.21074,.03861-.28284,.11716-.07403,.08065-.11112,.17268-.11716,.28284h0Z"/>
        <path class="cls-12" d="M104.09794,58.22732l-.58655,1.97962c-.05943,.20057,.07155,.44471,.27938,.49205,.21483,.04893,.42841-.06459,.49205-.27938l.58655-1.97962c.05943-.20057-.07155-.44471-.27938-.49205-.21483-.04893-.42841,.06459-.49205,.27938h0Z"/>
        <path class="cls-12" d="M89.44764,60.12271c.79413,7.1085,6.31127,11.98944,9.70316,17.89345,.25641,.44632,.94794,.04385,.69078-.40378-3.2962-5.73745-8.82222-10.58186-9.59393-17.48967-.05652-.50597-.85717-.51171-.8,0h0Z"/>
        <path class="cls-12" d="M108.58954,27.49961c.51476,0,.51561-.8,0-.8-.51476,0-.51561,.8,0,.8h0Z"/>
        <g>
          <path class="cls-9" d="M107.58143,29.90119c.5107-.60743,.89985-1.31663,1.13786-2.07369"/>
          <path class="cls-12" d="M107.86428,30.18403c.55633-.66571,.97781-1.42254,1.24073-2.2502,.06337-.19949-.07438-.44536-.27938-.49205-.21827-.04972-.42419,.06578-.49205,.27938-.02869,.09032-.05899,.18009-.09167,.26905-.01634,.04447-.03321,.08875-.05059,.13282-.00869,.02204-.01762,.04398-.02647,.06595-.01314,.03265-.01655,.03899-.00083,.00278-.07788,.17935-.16274,.35535-.25682,.5268-.09117,.16615-.1901,.32801-.29642,.48489-.05316,.07844-.10815,.15562-.16495,.23147-.00435,.00581-.04859,.06395-.02256,.03018,.02603-.03376-.01895,.0238-.02347,.02948-.0332,.04171-.06705,.08287-.10123,.12377-.134,.16035-.16889,.41065,0,.56569,.14794,.1358,.4224,.17145,.56569,0h0Z"/>
        </g>
        <path class="cls-12" d="M102.8114,31.93644c-.38047,1.16881-.42942,2.50522,.20297,3.5973,.25791,.44538,.94951,.04304,.69078-.40378-.52714-.91033-.43709-2.01387-.12232-2.98086,.15973-.49069-.61249-.70092-.77142-.21267h0Z"/>
        <path class="cls-12" d="M104.92585,32.84536l-1.51868,3.07168c-.0957,.19356-.05201,.43292,.1435,.54728,.17664,.10331,.45115,.05093,.54728-.1435l1.51868-3.07168c.0957-.19356,.05201-.43292-.1435-.54728-.17664-.10331-.45115-.05093-.54728,.1435h0Z"/>
        <path class="cls-12" d="M110.09584,58.33366c.01531,.95141-.07557,1.89685-.27899,2.82644-.04614,.21085,.06329,.43267,.27938,.49205,.20007,.05497,.44566-.0674,.49205-.27938,.2182-.99712,.324-2.01843,.30757-3.03911-.00348-.2161-.18135-.4-.4-.4-.21414,0-.40349,.18305-.4,.4h0Z"/>
        <path class="cls-12" d="M99.43388,77.71923c.70909,1.50555,1.50225,2.96973,2.37803,4.38486,.27042,.43696,.96274,.03568,.69078-.40378-.87578-1.41513-1.66894-2.87931-2.37803-4.38486-.09204-.19543-.37263-.24565-.54728-.1435-.20016,.11707-.23589,.35112-.1435,.54728h0Z"/>
        <path class="cls-12" d="M101.28294,80.8969c.42096,1.65521,.56227,3.36323,.39052,5.06435-.16936,1.6775-.61945,3.23651-.42416,4.93901,.17866,1.55746,.59771,3.09299,.99584,4.60584,.43128,1.63884,.91515,3.26295,1.44475,4.87264,.16017,.48682,.93297,.27834,.77142-.21267-.51727-1.57218-.9911-3.15811-1.41463-4.75815-.42955-1.6228-.91801-3.29572-1.04244-4.97595-.12125-1.63721,.37768-3.20431,.49978-4.82516,.12463-1.65446-.04117-3.31641-.44966-4.92258-.12681-.49863-.89858-.28732-.77142,.21267h0Z"/>
        <path class="cls-12" d="M109.43752,99.03162c-1.24576,.6889-2.7067,.94197-4.10783,.66948-.21185-.0412-.43173,.05985-.49205,.27938-.05389,.19612,.06627,.4506,.27938,.49205,1.6181,.31469,3.28181,.04755,4.72428-.75013,.45064-.2492,.04756-.94036-.40378-.69078h0Z"/>
        <path class="cls-12" d="M109.76265,97.49464c.51476,0,.51561-.8,0-.8-.51476,0-.51561,.8,0,.8h0Z"/>
        <path class="cls-12" d="M110.08964,97.7405c.58587-6.49114,1.20244-12.97948,1.84968-19.46479,.05109-.51188-.74927-.50833-.8,0-.64724,6.48531-1.26381,12.97365-1.84968,19.46479-.04626,.51259,.75402,.50946,.8,0h0Z"/>
        <path class="cls-12" d="M105.11276,64.97296c.28909,1.19449,.82296,2.29433,1.36457,3.39091,.61887,1.25301,1.2381,2.50583,1.85715,3.75874,1.16362,2.35508,2.61314,4.76174,2.94611,7.41101,.06335,.50401,.86414,.51035,.8,0-.32358-2.57457-1.59478-4.85873-2.7276-7.15148-.61905-1.25291-1.2381-2.50583-1.85715-3.75874-.61982-1.25447-1.28041-2.49448-1.61165-3.86312-.12105-.50016-.89268-.28836-.77142,.21267h0Z"/>
        <path class="cls-12" d="M110.4174,61.03109c-.30089,2.15806-.68527,4.30357-1.16122,6.43-.17403,.77753-.38851,1.5106-.37357,2.31141,.00741,.39735,.20381,1.49207-.21567,1.73582-.44496,.25856-.04268,.9502,.40378,.69078,.53675-.3119,.61409-.95665,.62724-1.52358,.00844-.36363-.01738-.72699-.01779-1.09055-.00051-.45688,.10597-.86026,.20928-1.30527,.53967-2.32444,.96987-4.67265,1.29937-7.03593,.0702-.50351-.70052-.7212-.77142-.21267h0Z"/>
        <path class="cls-12" d="M119.78933,51.86035c4.53153-3.19281,9.14397-6.4577,13.12854-10.3295,.36989-.35943-.19609-.92483-.56569-.56569-3.93724,3.82581-8.48892,7.04953-12.96663,10.20441-.41763,.29425-.01837,.98821,.40378,.69078h0Z"/>
        <path class="cls-12" d="M94.38204,71.3205c-3.0642,.08313-5.34082,1.99438-7.913,3.3976-3.10855,1.69583-6.41784,3.00759-9.82314,3.97079-.4946,.1399-.28441,.91203,.21267,.77142,3.25469-.92061,6.41578-2.16344,9.41364-3.73158,2.62116-1.37109,5.01598-3.52431,8.10983-3.60824,.51378-.01394,.51584-.81399,0-.8h0Z"/>
        <path class="cls-12" d="M79.092,85.61445c7.10382-2.09829,14.23487-4.10342,21.39119-6.01499,.4969-.13273,.2861-.90465-.21267-.77142-7.15632,1.91157-14.28737,3.9167-21.39119,6.01499-.49264,.14551-.28292,.91781,.21267,.77142h0Z"/>
        <path class="cls-12" d="M104.32724,100.90794c1.18631,1.29899,3.14329,1.82105,4.79159,1.14987,.19994-.08141,.34145-.26617,.27938-.49205-.05207-.18947-.29077-.36134-.49205-.27938-1.40374,.57159-2.99806,.16745-4.01323-.94413-.34794-.38099-.91244,.186-.56569,.56569h0Z"/>
        <path class="cls-12" d="M109.36265,99.80614l.14664,1.1165c.0145,.11038,.03507,.20075,.11716,.28284,.06938,.06938,.1832,.12162,.28284,.11716,.10345-.00463,.21074-.03861,.28284-.11716,.0663-.07222,.13058-.18066,.11716-.28284l-.14664-1.1165c-.0145-.11038-.03507-.20075-.11716-.28284-.06938-.06938-.1832-.12162-.28284-.11716-.10345,.00463-.21074,.03861-.28284,.11716-.0663,.07222-.13058,.18066-.11716,.28284h0Z"/>
        <path class="cls-12" d="M110.04868,101.03739c.86084,2.05513,2.93467,2.94772,4.91166,3.63085,.48763,.1685,.69713-.60402,.21267-.77142-1.65927-.57335-3.62082-1.32434-4.35291-3.0721-.0834-.19911-.26469-.34186-.49205-.27938-.18782,.05162-.36337,.29152-.27938,.49205h0Z"/>
        <path class="cls-12" d="M115.50987,105.3323c.94084,.28044,1.78697,1.38434,1.35719,2.37783-.55053,1.27261-2.16825,1.14092-3.28917,.98539-.2137-.02965-.42954,.0519-.49205,.27938-.05137,.18696,.06401,.46217,.27938,.49205,1.28917,.17887,2.71116,.2957,3.71942-.69557,.85937-.84489,.88409-2.15589,.18031-3.10519-.38702-.52204-.91645-.91872-1.54241-1.1053-.49443-.14738-.70567,.62447-.21267,.77142h0Z"/>
        <path class="cls-12" d="M103.78902,101.87955c-.05121,1.05184,.06215,2.11172,.33135,3.12981,.13149,.49728,.90338,.28637,.77142-.21267-.25218-.9537-.35074-1.93196-.30278-2.91714,.01051-.21599-.19137-.4-.4-.4-.22537,0-.38945,.18336-.4,.4h0Z"/>
        <path class="cls-12" d="M105.83611,105.81322c2.25121,.52897,4.35745,1.56573,6.15841,3.01636,.39732,.32003,.96684-.24257,.56569-.56569-1.90958-1.53811-4.12033-2.66025-6.51142-3.2221-.50074-.11766-.71445,.65352-.21267,.77142h0Z"/>
        <path class="cls-12" d="M104.63006,104.99102c1.15303-.07097,2.0961,.68924,3.05154,1.22622,.97916,.55031,2.02235,.99674,3.09772,1.32153,1.87956,.56768,4.01656,.74676,5.71702-.40641,.42373-.28735,.02388-.98079-.40378-.69078-1.76703,1.19832-3.99497,.75139-5.87287,.06897-1.02606-.37287-1.96819-.88325-2.90436-1.43843-.82957-.49196-1.69355-.94214-2.68526-.8811-.51146,.03148-.51503,.8317,0,.8h0Z"/>
        <path class="cls-12" d="M105.09119,61.2084c-.04833,.95539-.19152,1.89892-.42563,2.82644-.05283,.20932,.06798,.43396,.27938,.49205,.20545,.05645,.43897-.06909,.49205-.27938,.25106-.99468,.40238-2.01458,.4542-3.03911,.01092-.21597-.19166-.4-.4-.4-.2257,0-.38904,.18338-.4,.4h0Z"/>
        <path class="cls-12" d="M76.64315,79.66288c.34504,1.94764,1.08173,3.82333,2.17651,5.47219,.28348,.42695,.97665,.02678,.69078-.40378-1.06117-1.59824-1.76144-3.3934-2.09586-5.28109-.08966-.50607-.86076-.29161-.77142,.21267h0Z"/>
        <path class="cls-12" d="M75.04927,78.52428l-1.61126,.32923c-.20535,.04196-.3428,.29607-.27938,.49205,.07042,.21761,.27204,.32433,.49205,.27938l1.61126-.32923c.20535-.04196,.3428-.29607,.27938-.49205-.07042-.21761-.27204-.32433-.49205-.27938h0Z"/>
        <path class="cls-12" d="M72.82012,79.26685l-.73319,.638c-.07413,.0645-.11716,.18745-.11716,.28284,0,.09811,.04358,.2153,.11716,.28284,.07623,.06998,.17631,.12193,.28284,.11716,.1102-.00494,.19936-.04451,.28284-.11716l.73319-.638c.07413-.0645,.11716-.18745,.11716-.28284,0-.09811-.04358-.2153-.11716-.28284-.07623-.06998-.17631-.12193-.28284-.11716-.1102,.00494-.19936,.04451-.28284,.11716h0Z"/>
        <path class="cls-12" d="M71.45547,81.7709l2.07558,5.18967c.5979,1.49495,1.07579,3.1707,1.94674,4.53562,.76982,1.20643,2.03226,1.8033,3.43643,1.94931,.5713,.0594,1.01344-.21037,1.16162-.77706,.21512-.82274,.21449-1.75051,.30961-2.59441,.05757-.51077-.74289-.50667-.8,0-.07852,.69662-.05802,1.50372-.24547,2.17781-.11867,.42674-.34249,.40949-.73523,.32593-.2974-.06328-.59525-.13121-.8829-.23098-1.25443-.43511-1.80642-1.58479-2.27474-2.73754-1.08785-2.67769-2.14693-5.36744-3.2202-8.05101-.18885-.47219-.96292-.26614-.77142,.21267h0Z"/>
        <path class="cls-12" d="M78.28684,86.30087c-.40544,1.37355,.13972,3.01197,1.37255,3.77696,.4387,.27222,.84085-.41957,.40378-.69078-.92102-.5715-1.30899-1.84335-1.00491-2.87351,.14605-.49479-.62576-.70614-.77142-.21267h0Z"/>
        <path class="cls-12" d="M75.89221,79.70978c.00567,1.20772,.26249,2.39153,.59695,3.54681,.15544,.53694,.309,1.08019,.50103,1.60541,.17131,.46855,.39346,.92623,.78588,1.24904,.39459,.3246,.96373-.23824,.56569-.56569-.3404-.28002-.50552-.66739-.64291-1.0767-.17013-.50684-.32347-1.02127-.47005-1.53532-.30053-1.05393-.53141-2.12322-.53658-3.22355-.00242-.51465-.80242-.51571-.8,0h0Z"/>
        <path class="cls-12" d="M72.61253,80.66816c.20718,2.36031,.42904,4.88198,1.70806,6.94417,.65729,1.05976,1.62377,1.84394,2.41685,2.79105,.66534,.79457,1.38941,2.10062,2.63874,1.648,.48032-.17402,.27302-.94738-.21267-.77142-.62587,.22675-1.05886-.39547-1.38688-.83456-.30816-.41251-.63402-.80311-.98931-1.17644-.753-.79124-1.52091-1.53742-2.03577-2.51444-.97769-1.85528-1.15883-4.03349-1.33902-6.08636-.04467-.50889-.84508-.51361-.8,0h0Z"/>
        <path class="cls-12" d="M106.09949,28.8881c.05108,.05578,.10091,.11263,.14899,.17102,.01131,.01374,.02253,.02754,.03365,.04143,.00724,.00903,.04536,.0583,.00998,.01196-.0354-.04637,.0023,.00331,.00922,.01254,.01067,.01424,.02125,.02854,.03173,.04292,.08911,.1222,.17146,.2493,.24662,.38055,.07304,.12756,.13792,.25899,.19806,.39307,.0215,.04793-.00204-.00137-.00889-.02192,.00557,.01674,.0136,.03303,.02016,.04942,.01322,.03303,.026,.06625,.03837,.09961,.02782,.0751,.05312,.15105,.07668,.22758,.06148,.19973,.2822,.34729,.49205,.27938,.20119-.06511,.3453-.27787,.27938-.49205-.20189-.65585-.54701-1.2553-1.0103-1.76119-.14169-.15472-.42393-.15442-.56569,0-.15189,.16546-.15115,.40064,0,.56569h0Z"/>
      </g>
      <path class="cls-12" d="M129.61618,37.39812c-.51189,.86532-.52757,2.00845,.00629,2.86953,.50582,.81585,1.42947,1.32405,2.38796,1.32302,.27019-.00029,.5-.2296,.5-.5,0-.27094-.22882-.50029-.5-.5-.08548,.00009-.17068-.00298-.25572-.01209,.09002,.00965-.06615-.01283-.06929-.01346-.04181-.00842-.08333-.01827-.12458-.02909-.08267-.02168-.16372-.04813-.24355-.0786-.03226-.01268-.03188-.01226,.00113,.00127l-.04653-.0215c-.04594-.02302-.09177-.04546-.13667-.0705-.07477-.04169-.14618-.08829-.2167-.13672-.06413-.04404-.0059-.00172-.04089-.03119-.03265-.0275-.06497-.05535-.09624-.08443-.06274-.05834-.11962-.1212-.17724-.18442-.09862-.10821,.03478,.06085-.04762-.0602-.02404-.03531-.04807-.07049-.07059-.10681-.10524-.16975-.14025-.25313-.18941-.42461-.06006-.20951-.06967-.28902-.07158-.48809-.00088-.09102,.0028-.18291,.01344-.27335-.00779,.0662,.00829-.04491,.0105-.0565,.00856-.04478,.01822-.08935,.02946-.13354,.05325-.20943,.08993-.29572,.20131-.484,.3284-.55515-.5357-1.0588-.86347-.50472h0Z"/>
      <path class="cls-12" d="M118.184,50.08705c-.14755-.19541-.28172-.40013-.3995-.61488-.11782-.21482-.19047-.37442-.25914-.55965-.07973-.21507-.14474-.43562-.19425-.65959-.02639-.11939-.04874-.23983-.06588-.36091,.01129,.07974-.00984-.09231-.01136-.10806-.00589-.0609-.01034-.12189-.0142-.18295-.01485-.23446-.19634-.46136-.45-.45-.23106,.01035-.46594,.1984-.45,.45,.06702,1.05809,.42651,2.09175,1.06722,2.94029,.14138,.18724,.39483,.30382,.61569,.16144,.18513-.11936,.31315-.41476,.16144-.61569h0Z"/>
      <path class="cls-12" d="M127.79518,38.18587c-.08611,.41873-.28395,.79721-.42667,1.19719-.14315,.4012-.20294,.83138-.12101,1.25227,.17658,.90707,1.07046,1.20516,1.87783,1.28168,.24229,.02296,.45-.22326,.45-.45,0-.26248-.20702-.42697-.45-.45-.03818-.00362-.07632-.00742-.11442-.01175-.08368-.00951,.10398,.0192-.04177-.00585-.06908-.01187-.1379-.02435-.20611-.0406-.07511-.0179-.14855-.03985-.22142-.06534-.07494-.02622,.08448,.04592-.03921-.01557-.02679-.01332-.05355-.02665-.07961-.04135-.20483-.11554-.3037-.29348-.31417-.51507-.00354-.0748-.00064-.14923,.005-.22386,.00375-.04974,.01151-.08743,.033-.17829,.03875-.16378,.09662-.32218,.1586-.4784,.13277-.33469,.28489-.66114,.35782-1.0158,.04891-.23783-.06911-.48618-.3143-.55355-.22268-.06118-.50437,.07513-.55355,.3143h0Z"/>
      <path class="cls-12" d="M104.27422,99.09243c1.73838,1.13561,3.81902,.36516,5.50934-.44257,.21926-.10478,.27685-.41838,.16144-.61569-.13116-.22424-.3956-.26661-.61569-.16144-1.39749,.6678-3.15411,1.38766-4.60084,.44257-.48632-.31769-.93781,.46123-.45425,.77712h0Z"/>
      <path class="cls-12" d="M78.13886,80.53684c-.03706,1.06976,.06834,2.14273,.30343,3.18686,.0534,.23717,.32719,.37651,.55355,.3143,.24397-.06705,.36786-.31567,.3143-.55355-.21821-.96919-.30577-1.95194-.27128-2.9476,.00842-.2431-.21285-.45-.45-.45-.25081,0-.44155,.20614-.45,.45h0Z"/>
      <path class="cls-12" d="M108.61106,103.09481c.82731,.59234,1.69467,1.12451,2.59753,1.59371,.20865,.10843,.49741,.0621,.61569-.16144,.18268-.34525,.62599-.50756,.94851-.35173,.21871,.10568,.48626,.05985,.61569-.16144,.11533-.19717,.05831-.5095-.16144-.61569-.77425-.37411-1.76732-.1051-2.17988,.6746l.61569-.16144c-.90286-.4692-1.77022-1.00137-2.59753-1.59371-.19772-.14157-.50101-.03462-.61569,.16144-.13236,.2263-.03674,.47379,.16144,.61569h0Z"/>
      <path class="cls-12" d="M110.53076,103.23947c.57911,0,.58007-.9,0-.9-.57911,0-.58007,.9,0,.9h0Z"/>
      <path class="cls-12" d="M110.06558,102.68352l.79121-.59341c.05244-.02828,.09453-.06691,.12626-.1159,.03977-.04346,.06662-.09447,.08055-.15303,.02966-.10772,.01627-.25115-.04536-.34675-.06195-.09609-.15419-.18067-.26893-.2068-.11021-.0251-.25203-.02568-.34675,.04536l-.79121,.59341c-.05244,.02828-.09453,.06691-.12626,.1159-.03977,.04346-.06662,.09447-.08055,.15303-.02966,.10772-.01627,.25115,.04536,.34675,.06195,.09609,.15419,.18067,.26893,.2068,.11021,.0251,.25203,.02568,.34675-.04536h0Z"/>
      <path class="cls-12" d="M111.15731,103.38464l.89374-.38723c.09631-.04173,.18031-.17271,.2068-.26893,.02966-.10772,.01627-.25115-.04536-.34675-.06195-.09609-.15419-.18067-.26893-.2068l-.11963-.01607c-.08123,.00025-.15694,.02073-.22712,.06144l-.89374,.38723c-.09631,.04173-.18031,.17271-.2068,.26893-.02966,.10772-.01627,.25115,.04536,.34675,.06195,.09609,.15419,.18067,.26893,.2068l.11963,.01607c.08123-.00025,.15694-.02073,.22712-.06144h0Z"/>
      <path class="cls-12" d="M76.70708,85.81199c.26598,.58695,.47741,1.26385,.61365,1.92413,.06594,.31958,.18548,.63495,.48284,.8085,.12524,.0731,.26665,.10815,.40634,.1402,.04893,.01123,.09994,.03321,.149,.04001,.04886,.00677-.07098-.04209-.00734,.00194-.02364-.01636-.099-.1183-.06131-.04548,.10842,.20941,.41864,.28848,.61569,.16144,.21344-.13761,.2774-.3917,.16144-.61569-.1523-.29418-.44814-.36136-.73944-.43819-.02809-.00741-.0561-.01842-.08423-.02494,.03781,.00876,.05171,.03606,.01411,.00359-.07195-.06213,.03227,.02853,.02567,.03413-.0006,.00051-.03586-.06186-.03888-.06683,.04165,.06865,.00285,.00254-.00475-.02217-.00993-.0323-.01833-.06499-.02614-.09785-.01754-.07378-.03105-.14854-.04689-.2227-.15013-.70268-.38628-1.3804-.68262-2.03433-.09748-.21512-.426-.28373-.61569-.16144-.22218,.14324-.26572,.38557-.16144,.61569h0Z"/>
      <path class="cls-12" d="M77.9923,87.31639c.57911,0,.58007-.9,0-.9-.57911,0-.58007,.9,0,.9h0Z"/>
      <path class="cls-12" d="M103.00724,81.35725c.14556-.31437,.32555-.61107,.53682-.88562l-.07036,.09107c.08069-.10387,.16547-.20428,.25439-.3012,.08017-.08738,.1318-.19766,.1318-.3182,0-.11037-.04902-.24221-.1318-.3182-.17327-.15906-.46643-.18526-.6364,0-.34846,.37981-.64485,.80983-.86157,1.27789-.05204,.11239-.07942,.22309-.04536,.34675,.02874,.10438,.10945,.2175,.2068,.26893,.10444,.05518,.23095,.08284,.34675,.04536,.1054-.03411,.22048-.10216,.26893-.2068h0Z"/>
      <path class="cls-12" d="M91.24505,74.65705l1.58242-.0989c.23448-.01466,.46136-.19648,.45-.45-.01036-.23123-.19839-.46573-.45-.45l-1.58242,.0989c-.23448,.01466-.46136,.19648-.45,.45,.01036,.23123,.19839,.46573,.45,.45h0Z"/>
      <path class="cls-12" d="M108.76272,94.9903c.71949-.9011,1.29402-1.88378,1.7271-2.95242,.08866-.21876-.09625-.50389-.3143-.55355-.26091-.05943-.45862,.08004-.55355,.3143-.07631,.18829-.17914,.41775-.29141,.64518-.11453,.23203-.2373,.45999-.36798,.68332s-.26927,.44203-.41544,.65555c-.14274,.2085-.29214,.41007-.42083,.57124-.14659,.18359-.19271,.45949,0,.6364,.16313,.14975,.47954,.19645,.6364,0h0Z"/>
      <g class="cls-3">
        <path class="cls-12" d="M111.86672,34.90031c-3.03447,4.01474-5.97314,8.10076-8.81374,12.25493-.2185,.31955,.3012,.62,.51808,.30283,2.8406-4.15417,5.77927-8.24019,8.81374-12.25493,.23284-.30805-.28791-.60736-.51808-.30283h0Z"/>
      </g>
      <g class="cls-3">
        <path class="cls-12" d="M93.60435,47.39052c-.72527,.72527-1.45055,1.45055-2.17582,2.17582-.11457,.11457-.11457,.3097,0,.42426,.11496,.11496,.30933,.11493,.42426,0,.72527-.72527,1.45055-1.45055,2.17582-2.17582,.11457-.11457,.11457-.3097,0-.42426-.11496-.11496-.30933-.11493-.42426,0h0Z"/>
      </g>
      <g class="cls-3">
        <path class="cls-12" d="M92.91671,45.43749c2.67442,3.39985,5.51178,6.66804,8.50237,9.79339,.26748,.27953,.69136-.14513,.42426-.42426-2.99059-3.12536-5.82795-6.39355-8.50237-9.79339-.23856-.30326-.66051,.12394-.42426,.42426h0Z"/>
      </g>
      <g class="cls-3">
        <path class="cls-12" d="M107.04735,47.51948c1.15855,.78644,2.07237,1.93085,2.57645,3.23811,.05826,.15108,.20171,.25552,.36904,.20953,.14442-.03969,.26814-.21704,.20953-.36904-.56387-1.46232-1.55477-2.716-2.85218-3.59669-.32032-.21744-.62086,.3022-.30283,.51808h0Z"/>
      </g>
      <g class="cls-3">
        <path class="cls-12" d="M95.51093,42.27519c2.09435-2.21239,4.05817-4.5435,5.88811-6.97903,.23201-.30878-.28868-.60815-.51808-.30283-1.799,2.39435-3.73547,4.68273-5.79429,6.8576-.26538,.28034,.15815,.70538,.42426,.42426h0Z"/>
      </g>
      <g class="cls-3">
        <path class="cls-12" d="M95.00334,34.78842c2.34846,2.99482,4.10193,6.42052,5.17325,10.07127,.10849,.36971,.6877,.21237,.57857-.1595-1.10218-3.75588-2.91283-7.25671-5.32756-10.33603-.23807-.30359-.65999,.12366-.42426,.42426h0Z"/>
      </g>
      <g class="cls-3">
        <path class="cls-12" d="M107.64387,33.30838c.85939,1.33674,1.59902,2.74956,2.19662,4.22236,.06136,.15123,.1992,.2543,.36904,.20953,.14278-.03764,.27037-.2191,.20953-.36904-.61764-1.5222-1.36859-2.98365-2.2571-4.36569-.20814-.32376-.72772-.02325-.51808,.30283h0Z"/>
      </g>
    </g>
    <g>
      <rect class="cls-10" x="52" y="54.34104" width="96" height="20.33234" rx="8.4" ry="8.4"/>
      <text class="cls-6" transform="translate(100 68.26221)"><tspan text-anchor="middle" x="0" y="0" id="inner-text"></tspan></text>
    </g>
  </g>
</svg>