<?xml version="1.0" encoding="UTF-8"?>
<svg title="Player image" xmlns="http://www.w3.org/2000/svg" xmlns:xlink="http://www.w3.org/1999/xlink" viewBox="0 0 200 110">
<title>Player glyph</title>
  <defs>
    <style>
      @font-face
      {
          font-family: "LondonTubeFont";
          src: local("LondonTubeFont") url("./london-tube-font.ttf") format("ttf");
          /* license: Freeware link: https://www.fontspace.com/london-tube-font-f2717 */
      }
      
      .cls-1 {
        fill: #ead3dc;
        filter: url(#drop-shadow-1);
      }

      .cls-1, .cls-2 {
        stroke: #000;
        stroke-miterlimit: 10;
        stroke-width: 2px;
      }

      .cls-3 {
        fill: #a1a5a7;
      }

      .cls-4 {
        font-family: "LondonTubeFont", Johnston, Helvetica, sans-serif;
        font-size: 12px;
      }

      .cls-5 {
        filter: url(#drop-shadow-2);
      }

      .cls-6 {
        fill: #636363;
      }

      .cls-7 {
        fill: #9b0058;
      }

      .cls-2 {
        fill: #edbecd;
        filter: url(#drop-shadow-3);
      }

      .cls-8 {
        fill: #ffdbc2;
      }

      .cls-9 {
        fill: #1d1d1b;
      }

      .cls-10 {
        fill: #f086a4;
      }
    </style>
    <filter id="drop-shadow-1" filterUnits="userSpaceOnUse">
      <feOffset dx="2" dy="2"/>
      <feGaussianBlur result="blur" stdDeviation="2"/>
      <feFlood flood-color="#000" flood-opacity=".25"/>
      <feComposite in2="blur" operator="in"/>
      <feComposite in="SourceGraphic"/>
    </filter>
    <filter id="drop-shadow-2" filterUnits="userSpaceOnUse">
      <feOffset dx="2" dy="2"/>
      <feGaussianBlur result="blur-2" stdDeviation="2"/>
      <feFlood flood-color="#000" flood-opacity=".15"/>
      <feComposite in2="blur-2" operator="in"/>
      <feComposite in="SourceGraphic"/>
    </filter>
    <filter id="drop-shadow-3" filterUnits="userSpaceOnUse">
      <feOffset dx="2" dy="2"/>
      <feGaussianBlur result="blur-3" stdDeviation="2"/>
      <feFlood flood-color="#000" flood-opacity=".25"/>
      <feComposite in2="blur-3" operator="in"/>
      <feComposite in="SourceGraphic"/>
    </filter>
  </defs>
  <g id="Layer_3" data-name="Layer 3">
    <g id="selection-arrows">
      <polygon class="cls-9 left" points="21.33975 55.00001 38.66025 46.00001 38.66025 64.00001 21.33975 55.00001"/>
      <polygon class="cls-9 right" points="178.66025 55.00001 161.33975 46.00001 161.33975 64.00001 178.66025 55.00001"/>
    </g>
  </g>
  <g id="Layer_7" data-name="Layer 7">
    <circle class="cls-1" cx="98.47726" cy="55" r="33.0885"/>
    <g class="cls-5">
      <g>
        <path class="cls-8" d="M127.35251,38.35185c-.28744-.19684-.5181-.4725-.67227-.79551l-.23309-.22485c-.12172,.10634-.25401,.21218-.37573,.31851l-.10092-.1066c-.13727-.45463-.18748-.95611-.13238-1.44247l.14981-.47172c.01267-1.15045,.02534-2.30089,.0385-3.4615,.00402-.3054,.00901-.63112,.14958-.90974s.46766-.46699,.73735-.34229c.1971,.09074,.30276,.31979,.38775,.53769,.12438,.28086,.2377,.5714,.35151,.85176l.95038-.36285c.06518-.47569,.60823-.74561,1.04766-.62313,.42934,.11182,.76092,.49409,1.01748,.8932,.31516,.50373,.56393,1.06546,.71603,1.65321,.09885,.37134,.15441,.76102,.06235,1.13359-.07856,.31209-.25037,.57905-.42219,.84602-.55874,.81924-1.10788,1.6593-1.65652,2.48919l.02067,.01116-.21085,.41793-.21777-.10189c-.54778,.14746-1.1459,.01753-1.60734-.30971Z"/>
        <path class="cls-10" d="M114.58259,39.55559c-.00195,.04065-.01447,.08081-.01642,.12146l-.04231-.00199c-.20645-.55974-.3374-1.1465-.37216-1.74912l-.11685,.0047c-.64705,2.22079-2.19497,3.99186-3.37034,5.95357-.35665,.58425-.67244,1.20098-.9464,1.82985,1.12103-2.81991,2.53194-5.49379,4.18895-7.99315-1.01358-.97451-1.94777-2.05734-2.77178-3.22667,.62099-.34775,1.45232-.21706,1.94683,.30526-.57499-1.05579-1.15047-2.10141-1.72547-3.1572l-.12354-.0771c.01204-.02999,.02359-.04982,.04621-.07932-.35601-.5362-.99012-.80024-1.60368-.82903l.00487-.10163c1.56759,.03281,3.14283,.1271,4.69351,.29154,.32745,.02555,.66451,.07193,.93079,.26777,.29705,.21766,.44879,.59149,.60199,.93482,1.56131,3.48564,4.7278,5.99743,5.98561,9.62162,.14579-.16632,.2911-.32248,.45757-.47765,1.16295-1.25945,2.4177-2.44329,3.72145-3.54334,.12172-.10634,.25401-.21218,.37573-.31851l.23309,.22485c.15417,.32301,.38483,.59867,.67227,.79551-.27384,.40478-.53758,.82023-.81191,1.23518,.30509-.39313,.57941-.80808,.81191-1.23518,.46144,.32724,1.05956,.45717,1.60734,.30971l.21777,.10189c-.96233,1.94115-2.06985,3.81438-3.31002,5.57951-1.42354,2.05193-3.16298,4.05848-5.46428,4.73483l-1.32622,.01926c-.07879-.12593-.13642-.25087-.18348-.37531-1.30719-3.03571-2.62447-6.08208-3.93166-9.11779l-.37937-.04836Z"/>
        <path class="cls-3" d="M103.75495,83.23526c-.0552-.17576-.12146-.34184-.18724-.5181-.7812-2.06371-2.05011-3.90584-3.46043-5.67312-2.37041-2.97355-5.12031-5.77138-6.58787-9.22206l-.05763-.12494c-.51334-1.23625-.84295-2.54536-.98069-3.87603,.67911-.23297,1.3035-.65187,1.73322-1.21232l-.08171-.06495c.38887-.59292,.62344-1.28477,.89886-1.94413,.25232-.6197,.53638-1.23792,.73678-1.88043,.16526-.57286,.25744-1.16952,.32846-1.76717l1.14201,.06377c1.4399,.4852,3.00165,.63997,4.51549,.46654,.38424-.05327,.76896-.11671,1.16086-.10851,.42315,.01986,.83182,.12052,1.25302,.18103,1.23138,.1902,2.52404-.01398,3.62168-.57365l.02116,.00099c.03866,.52131,.09896,1.03345,.15877,1.55575,.12157,1.00395,.24314,2.00791,.38587,3.01285l-.06396,.00718c-.41377-.43705-1.24195-.1907-1.55239,.31423s-.26656,1.13853-.18899,1.73297c.23938,1.86512,.64947,3.7077,1.23126,5.5074,1.08673,3.43281,2.78569,6.70082,5.02295,9.57645l-.0647,.46553c.16001,.20105,.23199,.46927,.178,.7112l-.05922,.12964c.92748,1.88722-.048,4.10279-1.16171,5.88405-1.6648,2.66197-3.65838,5.10479-5.35394,7.74494-1.67343,2.62082-3.06233,5.49946-3.36797,8.56135-.29925,.27117-.62829,.5002-.96644,.69824-.38193,.22655-.79365,.41095-1.20391,.56487-.46559,.20225-.95038,.36285-1.42412,.51379-.65746,.2238-1.51397,.39752-2.00131-.05317,.09874-.29077,.19748-.58153,.28564-.8728,.94084-3.04227,1.00134-6.29902,1.44936-9.45609,.49484-3.47065,1.63364-7.10462,4.4436-9.32578l.19725-1.01955Z"/>
        <path class="cls-10" d="M107.72233,53.73883c.09525-1.76793,.46456-3.50263,.9911-5.19939,.26449-.87379,.57128-1.74559,.90885-2.59558,.03563-.07982,.06019-.14997,.09582-.22979,.27396-.62888,.58976-1.2456,.9464-1.82985,1.17537-1.96172,2.72329-3.73278,3.37034-5.95357l.11685-.0047c.03476,.60262,.16571,1.18938,.37216,1.74912l.04231,.00199c-.31814,2.21585-.94159,4.38682-1.85493,6.41176-.91187,1.99445-2.10597,3.90436-2.49621,6.07608-.14812,.87925-.16881,1.75429-.07265,2.62463,.18684,2.07657,.94688,4.13929,1.74498,6.07137l.23711-.08055c.28852,.83862,.69585,1.63189,1.1912,2.35798,.14895,.21071,.30799,.43209,.35929,.68915,.03878,.29722-.05996,.58799-.1784,.84727-.56909,1.25676-1.61408,2.26709-2.84535,2.73899-.21595,.08154-.45258,.15193-.67132,.07036-.29134-.11553-.43347-.46853-.53475-.78906-.20256-.64105-.3729-1.29077-.51102-1.94917-.24657-1.05056-.42869-2.11847-.5786-3.19506-.14273-1.00495-.2643-2.0089-.38587-3.01285-.05981-.5223-.12011-1.03444-.15877-1.55575-.07318-.68591-.12521-1.37083-.13444-2.06392-.00218-.39736,.00573-.78407,.04587-1.17945Z"/>
        <path class="cls-10" d="M107.41559,51.95203c-.69408-4.76915-.56532-9.67286,.36157-14.41689,.36263-1.8165,.84503-3.69868,.47579-5.50878l-1.03876-.6701c.12561-.18764,.25122-.37529,.36625-.56343l.2889,.16635c.59107-.1658,1.20379-.34078,1.80628-.30232,.61356,.02879,1.24767,.29283,1.60368,.82903-.02262,.0295-.03417,.04933-.04621,.07932l.12354,.0771c.57499,1.05579,1.15047,2.10141,1.72547,3.1572-.49451-.52233-1.32584-.65301-1.94683-.30526,.82402,1.16934,1.7582,2.25216,2.77178,3.22667-1.65701,2.49936-3.06792,5.17324-4.18895,7.99315-.41453,.90749-.75696,1.85911-1.00467,2.82537-.52654,1.69676-.89585,3.43146-.9911,5.19939-.11988-.59643-.2186-1.19186-.30674-1.78679Z"/>
        <path class="cls-7" d="M106.24787,31.83042c-.33401-.33145-.51165-.82872-.47771-1.31606l-.92957-.73628c.45488,.02135,.91512-.06911,1.32015-.33531,.85336-.55076,1.21269-1.63401,1.48447-2.66025l.49184,.13513c.52641-1.47267,.6985-3.07402,.5508-4.63944-.02431-.37803-.07027-.74689-.14796-1.11724-.41994-2.30142-1.52566-4.45166-3.20253-5.9666,.08194,.50297-.19627,.99922-.56143,1.31823-.37573,.31851-.82928,.49077-1.25304,.70517-1.20586,.60552-2.27919,1.54322-3.05498,2.68841-.25122,.37529-.47168,.77239-.66137,1.19131-.51133,1.15761-.7419,2.43025-1.09746,3.65628-.07612,.26127-.16283,.52204-.24953,.78282-.51486,1.45284-1.4846,2.88434-2.90142,3.24567l.15551,.51661c-2.41864,.69122-4.97162,.86682-7.44544,.49608l.14095-.95089c.06542-.03768,.14093-.06469,.20586-.0922l.08586-.46454c.54805-1.48184,2.48018-1.53378,3.71121-2.44371,1.60531-1.19795,1.73169-3.61633,2.37764-5.59271,1.13916-3.42004,4.09102-5.72622,6.90329-7.7741,.36272-.26819,.75766-.54506,1.20197-.52421,1.22761,.04742,1.76014,2.21151,2.96769,2.01352-.2354-.39812,.15153-.95039,.58914-1.01135s.84908,.20282,1.19562,.49411c2.96793,2.45154,3.75442,7.06205,2.81502,10.96003-.54515,2.30706-1.60039,4.41702-2.88203,6.38393-.11503,.18814-.24064,.37578-.36625,.56343-.26229,.38495-.52457,.76991-.80802,1.15387l-.29754-.2075,.13923-.47222Z"/>
        <path class="cls-3" d="M108.93414,64.74586c-.42877,1.42632-.81669,2.88512-1.15268,4.36672-.58179-1.7997-.99188-3.64227-1.23126-5.5074-.07756-.59444-.12145-1.22804,.18899-1.73297s1.13862-.75128,1.55239-.31423l.06396-.00718c.1499,1.07659,.33203,2.1445,.5786,3.19506Z"/>
        <path class="cls-8" d="M107.81091,56.9822l-.02116-.00099c-1.09764,.55967-2.39031,.76385-3.62168,.57365-.4212-.06051-.82987-.16118-1.25302-.18103-.3919-.0082-.77662,.05523-1.16086,.10851-1.51385,.17343-3.07559,.01866-4.51549-.46654l-1.14201-.06377c.0304-.19211,.05071-.39488,.07102-.59765,.13001-1.16531,.2605-2.34079,.36984-3.51726l1.01312,.09847c2.96644-1.72488,6.53485-1.62874,9.86492-.98354,.08814,.59494,.18686,1.19037,.30674,1.78679-.04013,.39538-.04805,.78208-.04587,1.17945,.00923,.69309,.06125,1.37801,.13444,2.06392Z"/>
        <path class="cls-6" d="M104.99228,32.81049c.07551-.02702,.1616-.05353,.2376-.09071l.02116,.00099c.15102-.05403,.29195-.11872,.43336-.19357,.15151-.06419,.28234-.13954,.42425-.22456l.29754,.2075c.28344-.38396,.54573-.76892,.80802-1.15387l1.03876,.6701c.36924,1.8101-.11316,3.69228-.47579,5.50878-.92689,4.74402-1.05564,9.64773-.36157,14.41689-3.33007-.6452-6.89848-.74134-9.86492,.98354l-1.01312-.09847c.38103-3.75102,.62503-7.51865,.34873-11.26995-.13687-2.01311-.44154-4.06464-.04948-6.05293,.26474-1.32197,.83431-2.58889,1.64755-3.63047-.05715-.1351-.13642-.25087-.24841-.3478l.44187,.07167c.07454-.00669,.16014-.02304,.23516-.0399l.02116,.00099,.05994,.29821,1.57755,.26756c1.27136,.90511,2.93549,1.13599,4.42065,.676Z"/>
        <path class="cls-8" d="M107.64522,26.78251c-.27178,1.02624-.63112,2.10949-1.48447,2.66025-.40503,.26621-.86527,.35666-1.32015,.33531-.77224-.03624-1.56113-.38903-2.21773-.84766-1.13871-.79703-2.08298-1.89051-2.76461-3.15503-.14651-.26153-.28148-.54289-.39528-.82326l-.75388-.19835c.35557-1.22603,.58614-2.49867,1.09746-3.65628,.1897-.41892,.41015-.81602,.66137-1.19131l.20671,.11156c.19613,.11107,.40284,.22263,.59945,.32353l.93615,.15598c-.19723,.13335-.35409,.30934-.45903,.50814-.08086,.13881-.14105,.28878-.14835,.44123-.01314,.27441,.13289,.5461,.35783,.71964s.50668,.26824,.77977,.3218c.44187,.07167,.94247,.02385,1.23357-.29863,.11114-.10683,.17036-.23647,.20939-.38744,.04572-.06916,.08086-.13881,.12658-.20797,.06882-.10882,.12658-.20797,.15358-.32894l.37025,.01737c.18555,.11057,.36052,.22064,.54656,.32105l.46546,.02184c-.01155,.01983-.02262,.0295-.03417,.04933-.13765,.21764-.20319,.4794-.1086,.71812,.12195,.33168,.50655,.49233,.85175,.59002,.40721,.13116,.84811,.22315,1.26603,.13071s.80423-.41046,.82418-.82715l.0428-.00818c.1477,1.56542-.02439,3.16677-.5508,4.63944l-.49184-.13513Z"/>
        <path class="cls-8" d="M108.5399,21.16096l-.05338,.00768c-.31808-.44275-.96909-.57516-1.50629-.4272-.23662,.07039-.46656,.22258-.58208,.42088l-.05192-.02281c-.18762,.15418-.36418,.29868-.48979,.48633l-.01058-.0005-.46546-.02184c-.18604-.10041-.36101-.21048-.54656-.32105l-.37025-.01737c.0169-.13163-.01908-.26574-.10894-.382,.01107-.00967-.00961-.02082-.00961-.02082-.01532-.12295-.06189-.25756-.15271-.3535-.15041-.18022-.41244-.24345-.65624-.2447-.02116-.00099-.04231-.00199-.06396,.00718-.0918-.07561-.20622-.12173-.3221-.13735-.16877-.01811-.33086,.04559-.47373,.15094-.01009-.01066-.01058-.0005-.01058-.0005-.16111,.04337-.3232,.10707-.45549,.21291l-.93615-.15598c-.19661-.1009-.40332-.21246-.59945-.32353l-.20671-.11156c.77579-1.1452,1.84912-2.08289,3.05498-2.68841,.42376-.2144,.87731-.38665,1.25304-.70517,.36515-.31901,.64337-.81527,.56143-1.31823,1.67687,1.51494,2.78259,3.66518,3.20253,5.9666Z"/>
        <path class="cls-8" d="M98.93414,31.56871l-.02116-.00099-.17593-.97594c-.09375-.03496-.17692-.06942-.27067-.10438l.16902-.43008c.34376-.75802,.59475-1.57133,.72986-2.40026l.36263-1.8165,.13035-.06519c.68163,1.26452,1.6259,2.358,2.76461,3.15503,.6566,.45863,1.44549,.81142,2.21773,.84766l.92957,.73628c-.03394,.48735,.1437,.98462,.47771,1.31606l-.13923,.47222c-.1419,.08502-.28332,.15987-.42425,.22456-.14142,.07485-.28234,.13954-.43336,.19357l-.02116-.00099c-.076,.03718-.16209,.0637-.2376,.09071-1.48516,.45999-3.14928,.22911-4.42065-.676l-1.57755-.26756-.05994-.29821Z"/>
        <path class="cls-3" d="M76.58349,82.70499c.13149-.20946,.29494-.39695,.47935-.56296l-.0269-.12433c2.41538-.51591,4.81977-1.03233,7.22365-1.53851,1.43624-.31424,2.93943-.64596,4.06232-1.52845,1.2953-1.02853,1.89163-2.62234,2.41799-4.13726l1.69161-4.81663c.28118-.78742,.55136-1.57534,.83254-2.36275,1.52445,3.47538,4.38094,6.29323,6.84323,9.28807l-.13692,.09636c-1.7628,2.68976-4.45179,4.73209-7.09329,6.70477-.56069,.42589-1.12137,.85178-1.78436,1.11913-.75393,.32477-1.58516,.43058-2.41588,.52615-3.25797,.40577-6.52693,.81103-9.7854,1.22703l-.05026-.32032c-.89501-.16383-1.8648,.29474-2.24437,1.06743l-.99909,.15973c.6324,.79821,.68719,1.91894,.52828,2.90685-.17597,1.11024-.54974,2.21148-.42851,3.32498,.00695,.08239,.02437,.17551-.02312,.24517-.13149,.20946-.46405,.03018-.63128-.15183-1.31381-1.49605-2.22684-3.30216-2.62884-5.19787-.2027-1.02487-.2705-2.10517,.11918-3.08257,.37616-.92672,1.23128-1.73933,2.28531-1.89655l-.11707-.52854,1.59868-.48126,.28318,.06418Z"/>
        <path class="cls-10" d="M98.63542,30.05732l-.16902,.43008c.09375,.03496,.17692,.06942,.27067,.10438l.17593,.97594c-.07502,.01685-.16063,.03321-.23516,.0399l-.44187-.07167c-.24464-.20502-.59082-.28238-.91158-.22613-.44868,.07062-.8542,.34699-1.23808,.61419-1.30557,.91661-2.60056,1.83372-3.89507,2.74067,.42069,.95687,1.17857,1.73603,2.091,2.16592-1.34958,.5071-2.65405,1.17929-3.87973,1.97742-.07697,.05751-.16452,.11451-.22179,.2035-.91656-.7866-1.8432-1.58386-2.75927-2.38063-.28501-.24766-.58011-.50597-.93395-.64481-.27018-.11454-.55483-.14827-.83948-.182-1.15976-.13591-2.30894-.27132-3.46821-.4174l-.97421-.02534c-2.00012,1.25072-3.91233,2.65837-5.715,4.21376l-1.60493,.52568-.16173,.27762c-.07259-.03396-.14469-.07809-.20622-.12173-1.22382-.79083-2.08905-2.20657-2.22812-3.73084l-.09849-.15741c.09813-.05651,.20732-.12269,.30545-.1792l-.08814-.59494c4.03416-2.1026,8.07841-4.19453,12.12315-6.29663,.26119-.14054,.53295-.28058,.82101-.31799,.40539-.05228,.79145,.07788,1.178,.19788,.89808,.28661,1.81064,.49241,2.73767,.6174,2.47382,.37074,5.0268,.19514,7.44544-.49608l-.15551-.51661"/>
        <path class="cls-10" d="M90.18069,39.01153c.05727-.08899,.14482-.146,.22179-.2035,1.22568-.79813,2.53015-1.47032,3.87973-1.97742-.91243-.42989-1.67031-1.20905-2.091-2.16592,1.29451-.90695,2.5895-1.82405,3.89507-2.74067,.38388-.2672,.7894-.54357,1.23808-.61419,.32077-.05625,.66694,.02111,.91158,.22613,.11199,.09693,.19126,.2127,.24841,.3478-.81324,1.04158-1.38281,2.3085-1.64755,3.63047-.39206,1.98829-.08739,4.03982,.04948,6.05293,.2763,3.7513,.0323,7.51894-.34873,11.26995-.10934,1.17647-.23983,2.35195-.36984,3.51726-.02031,.20277-.04062,.40554-.07102,.59765-.07102,.59765-.1632,1.19431-.32846,1.76717-.2004,.64251-.48446,1.26073-.73678,1.88043-.27542,.65937-.50999,1.35121-.89886,1.94413l.08171,.06495c-.42972,.56045-1.05412,.97934-1.73322,1.21232-.0727-.69607-.10259-1.40032-.06902-2.1016,.40641-1.84501,.69742-3.7158,.40369-5.55291-.12364-.73921-.33241-1.47223-.29688-2.21415,.03613-.97618,.47134-1.87252,.79066-2.78448,1.18245-3.43838,.4548-7.50626-1.72337-10.28745-.37-.46556-.77319-.90211-1.22114-1.28983-.12208-.10759-.26385-.24666-.25558-.41944,.00292-.06098,.02651-.1108,.07126-.15964Z"/>
        <path class="cls-10" d="M92.41206,61.71942c-.03357,.70127-.00368,1.40552,.06902,2.1016-.2804,.09889-.56943,.15663-.86758,.18339,.01934-.18244,.04877-.35423,.07868-.53618-.04049,.18145-.08099,.3629-.121,.53419-.31931,.02576-.63666,.01087-.94101-.05434-.56687-.11828-1.08509-.36669-1.60332-.6151-1.15087-.54294-2.30126-1.09605-3.33759-1.81697-.52345-.36071-1.06696-.96683-.77574-1.5134l.121-.53419c1.13296-3.51201,3.24524-6.66229,5.99464-8.94741-.33869-3.1125-.42155-6.25374-.25052-9.38306l.80751-.25751c2.17817,2.78118,2.90582,6.84906,1.72337,10.28745-.31932,.91196-.75453,1.8083-.79066,2.78448-.03552,.74193,.17324,1.47494,.29688,2.21415,.29373,1.83711,.00272,3.70791-.40369,5.55291Z"/>
        <path class="cls-8" d="M67.9744,44.42756l-.51543-.0853c-.32284,.321-.64568,.64199-.95794,.96348-.13278,.116-.25596,.25283-.42716,.28554-.23516,.0399-.48175-.12447-.59799-.35402-.1273-.21988-.15697-.48612-.17605-.75185-.11002-1.02378-.22004-2.04757-.32957-3.08151-.03684-.33787-.06163-.70574,.09097-1.01435,.12999-.27911,.39312-.4603,.6447-.62166,1.80533-1.16819,3.64142-2.31456,5.48517-3.39946l.09849,.15741c.13907,1.52427,1.0043,2.94001,2.22812,3.73084l-.09095,.12815c-2.18652,.93639-3.56836,3.22456-4.55782,5.51077-.09533,.21962-.19115,.44941-.37878,.60358-.17656,.14451-.46461,.18192-.61453-.00846-.12062-.13808-.11089-.34135-.10213-.52429,.03539-.51784,.10253-1.03418,.20091-1.53888Z"/>
      </g>
      <path class="cls-6" d="M95.94664,105.05104c1.15355,1.19393,2.55582,2.19839,3.94398,3.10298,1.4605,.95174,3.17396,1.19366,4.85671,1.50693,.58215,.10838,1.15895-.35792,.98409-.98409-.20687-.74083-.71393-1.28386-1.28102-1.77628-.63624-.55246-1.18662-1.1476-1.70657-1.81101-.51504-.65715-.98583-1.40148-1.82727-1.656-.81392-.24619-1.7707-.1454-2.5509,.16476-.60976,.2424-.83347,1.08934-.1911,1.4622,1.12097,.65067,2.20312,1.36216,3.2443,2.1341,.34732,.2575,.89322,.05721,1.09455-.287,.23824-.40731,.06114-.83644-.287-1.09455-1.04119-.77194-2.12334-1.48343-3.2443-2.1341l-.1911,1.4622c.48629-.19332,1.25594-.40624,1.76222-.14638,.22742,.11673,.39223,.38452,.5495,.57894,.2355,.29113,.46189,.58949,.69516,.88239,.42055,.52805,.86695,1.01206,1.37842,1.45302,.38643,.33315,.86885,.67943,1.01228,1.19305l.98409-.98409c-1.54011-.28672-3.13837-.4756-4.4745-1.34564-1.27906-.83287-2.55749-1.75293-3.62016-2.8528-.7168-.74189-1.84742,.39025-1.13137,1.13137h0Z"/>
      <path class="cls-6" d="M72.903,84.46004c-.40755,1.45878-1.01625,3.03062-.72135,4.56638,.14357,.74768,.55235,1.34771,1.02104,1.92815,.33531,.41527,.99757,1.03735,.90477,1.63608-.0661,.42644,.10845,.86036,.55875,.98409,.40914,.11242,.88011-.1376,.98409-.55875,.12817-.5191,.25634-1.03821,.3845-1.55731,.12148-.49202,.30249-1.02362,.1543-1.53027-.10965-.37487-.39897-.64923-.46539-1.04108-.07552-.44553,.00119-.92567,.05781-1.36943,.05478-.42932-.4069-.8-.8-.8-.47783,0-.74505,.36941-.8,.8-.11444,.89686-.14595,1.81695,.32378,2.62714,.05738,.09897,.12169,.16801,.13678,.27182,.02489,.17121-.10748,.44375-.15013,.61648-.12817,.5191-.25634,1.03821-.3845,1.55731l1.54285,.42534c.12919-.83353-.09651-1.58105-.58052-2.26724-.39086-.55413-.96227-1.04311-1.22035-1.68082-.23481-.58021-.16126-1.2425-.03462-1.83818,.16803-.79039,.41374-1.56656,.63104-2.34437,.2775-.99328-1.26575-1.41719-1.54285-.42534h0Z"/>
      <path class="cls-8" d="M98.21634,103.55303c.99369,.2164,2.00345,.21737,2.99758,.00322,.40966-.08825,.68657-.58911,.55875-.98409-.13968-.43162-.54519-.6533-.98409-.55875-.15935,.03433-.31953,.06257-.481,.08492l.21267-.02858c-.53523,.06959-1.07491,.06886-1.60996-.00202l.21267,.02858c-.16157-.02276-.32184-.05141-.48127-.08613-.40789-.08883-.88458,.12182-.98409,.55875-.09194,.40367,.12145,.88886,.55875,.98409h0Z"/>
      <path class="cls-8" d="M74.58846,83.54658c-.19601,.53612-.05685,1.12946,.19194,1.6212,.09191,.18166,.20912,.34915,.32865,.5134,.1162,.15967,.25179,.31554,.33954,.49314l-.08065-.1911c.01413,.03516,.02323,.06553,.02954,.10288l-.02858-.21267c.00249,.0236,.00126,.04701-.00368,.07022l.02858-.21267-.00758,.02384,.08065-.1911c-.00679,.0158-.01582,.03019-.02709,.04318l.12509-.16191c-.01153,.01334-.02459,.02497-.03916,.03489l.16191-.12509c-.01453,.00994-.03008,.01789-.04664,.02385l.1911-.08065-.02469,.00693,.21267-.02858c-.0163,.00345-.03271,.00417-.04923,.00215l.21267,.02858-.0234-.00547,.1911,.08065-.02182-.01029,.16191,.12509-.01967-.01545c-.17396-.13665-.33478-.23431-.56569-.23431-.19621,0-.43059,.08715-.56569,.23431-.13996,.15246-.24386,.35262-.23431,.56569,.00883,.19709,.07162,.43788,.23431,.56569,.20783,.16325,.40449,.27668,.67981,.26338,.26624-.01286,.48508-.11903,.67617-.29999,.35225-.33357,.32943-.88447,.09893-1.27536-.21296-.36115-.51078-.65908-.68306-1.04691l.08065,.1911c-.05557-.1328-.09563-.26814-.11544-.41089l.02858,.21267c-.00961-.08953-.01063-.17649-.0014-.26609l-.02858,.21267c.0109-.07652,.02884-.14898,.0554-.22163,.06785-.18557,.01597-.45134-.08065-.61645-.09711-.16595-.28739-.32421-.4781-.36765-.20479-.04664-.43467-.03655-.61645,.08065-.1832,.11811-.29272,.27317-.36765,.4781h0Z"/>
      <path class="cls-7" d="M96.56008,29.35615l.63529,.20472c.13404,.0432,.27221,.08691,.41522,.08314,.28068-.00739,.51877-.14147,.68633-.35835,.16853-.21814,.20769-.50681,.29392-.76385,.0289-.08615,.05988-.17161,.09288-.25627,.01321-.03389,.02675-.06766,.04061-.10129l-.03809,.09056c.02736-.04202,.04612-.10378,.06747-.14934,.17155-.36603,.41384-.68631,.59843-1.04342,.27144-.52514,.36482-1.15742,.03586-1.68347-.22173-.35458-.7239-.52597-1.09455-.287-.35528,.22906-.52437,.71497-.287,1.09455,.04259,.07369,.03716,.05146-.0163-.0667,.01078,.02904,.01939,.05871,.02583,.08901-.0141-.13626-.01842-.16081-.01298-.07364,.00055,.03149-.00066,.06292-.00362,.09428,.01958-.126,.02282-.15788,.00973-.09562-.00479,.02323-.01066,.04618-.01763,.06887-.00973,.03239-.02087,.06428-.03343,.09568,.04619-.10764,.05037-.12214,.01254-.04351-.13842,.22434-.28217,.44846-.41096,.67857-.15412,.27534-.28135,.5637-.39869,.8564-.04734,.11808-.09073,.23775-.13002,.35875-.02243,.06906-.04353,.13856-.06327,.20844-.00987,.03492-.01939,.06994-.02858,.10504-.05807,.19726,.03118,.09444,.26776-.30845l.40378-.10922c.16541,.03002,.1964,.03026,.09298,.00072l-.11048-.0356-.19335-.06231-.41432-.13351c-.39849-.12842-.89098,.14995-.98409,.55875-.09976,.43801,.13208,.8466,.55875,.98409h0Z"/>
      <path class="cls-9" d="M70.72014,36.29998c.19904,1.9497,1.39627,3.71444,3.21928,4.48215,.1992,.08389,.44009-.09029,.49205-.27938,.06347-.23097-.07942-.40784-.27938-.49205-1.46287-.61604-2.47323-2.15594-2.63195-3.71073-.02194-.2149-.16814-.4-.4-.4-.19928,0-.42208,.18376-.4,.4h0Z"/>
      <path class="cls-9" d="M75.6085,39.63451c1.77086-1.52191,3.6502-2.90991,5.6259-4.15447,.43454-.27373,.03354-.96626-.40378-.69078-2.03264,1.28044-3.96598,2.71385-5.78781,4.27957-.3911,.33612,.17693,.89979,.56569,.56569h0Z"/>
      <path class="cls-9" d="M82.01135,35.56286l2.20778,.26607c.70188,.08459,1.59759,.05563,2.2131,.43662,.62002,.38378,1.16401,.96227,1.71346,1.43922,.59544,.51688,1.19088,1.03377,1.78632,1.55065,.38715,.33608,.95534-.22744,.56569-.56569-.65704-.57035-1.31407-1.14071-1.97111-1.71106-.57216-.49668-1.14017-1.11503-1.81324-1.47522-.65237-.34911-1.4591-.34978-2.17881-.43652l-2.52318-.30408c-.51003-.06147-.50559,.73907,0,.8h0Z"/>
      <path class="cls-9" d="M90.21511,40.9122c-.10417,1.8946-.12122,3.79255-.0388,5.6884,.04295,.98794,.11197,1.97472,.20659,2.95905,.01623,.16884,.10223,.42742,.04095,.58218-.04502,.1137-.28555,.24757-.37429,.32725-.29688,.26655-.58478,.54274-.86369,.82804-2.1568,2.20616-3.74696,4.91168-4.7097,7.83732-.1613,.49017,.61097,.70026,.77142,.21267,1.00319-3.04855,2.72938-5.84326,5.07419-8.04298,.24314-.2281,.63353-.45594,.81987-.72434,.205-.29528,.07396-.68108,.04125-1.02013-.09101-.94326-.15772-1.88887-.20095-2.83552-.08845-1.93691-.07327-3.8761,.03316-5.81192,.02828-.51443-.7718-.51284-.8,0h0Z"/>
      <path class="cls-9" d="M71.43783,35.71514c4.03545-2.09633,8.03024-4.31483,12.1225-6.29739,.6395-.30981,1.02925-.2788,1.69655-.07657,.47935,.14527,.96087,.2785,1.45011,.38694,.97178,.21539,1.96367,.35069,2.95746,.40644,2.11433,.11859,4.23764-.15167,6.26545-.75446,.49234-.14635,.28269-.91868-.21267-.77142-2.11406,.62843-4.31238,.87364-6.51247,.69443-1.11396-.09074-2.21751-.29462-3.2923-.60079-.92345-.26306-1.64132-.51199-2.55526-.07763-2.08228,.98962-4.10566,2.13087-6.1517,3.19375l-6.17145,3.20594c-.45703,.23742-.05296,.92804,.40378,.69078h0Z"/>
      <path class="cls-9" d="M67.45268,43.91409c-.1224,.60053-.2199,1.2166-.24828,1.82962-.02161,.46672,.13586,.95122,.65474,1.03721,.52551,.08709,.90983-.30714,1.11724-.74428,.21184-.44647,.39848-.90317,.62173-1.34472,.86781-1.71639,2.04458-3.38894,3.85904-4.18443,.47042-.20624,.0637-.89573-.40378-.69078-1.53422,.67263-2.67846,1.97055-3.53783,3.37528-.44477,.72702-.81448,1.49348-1.15606,2.27334-.06301,.14385-.14757,.43337-.29879,.5075-.02222,.01089-.07172,.01455-.04969,.03282-.03347-.02776-.00818-.22948-.0066-.26196,.02637-.54337,.1112-1.08459,.2197-1.61695,.10243-.50259-.66852-.71757-.77142-.21267h0Z"/>
      <path class="cls-9" d="M67.00881,43.83437l-.60234,.60001c-.11077,.11034-.44299,.56216-.64251,.51012-.33511-.0874-.31132-1.40144-.34028-1.67758-.06019-.57391-.12039-1.14781-.18058-1.72172-.057-.54348-.20476-1.12747,.2825-1.51018,.87607-.68808,1.9092-1.23883,2.85456-1.82656,1.0409-.64713,2.09033-1.28036,3.14694-1.90151,.44355-.26075,.04145-.95252-.40378-.69078-1.37391,.80769-2.73531,1.63639-4.08242,2.48805-.6413,.40543-1.30451,.79475-1.91907,1.24002-.4784,.34662-.74059,.78993-.74682,1.38934-.00777,.74699,.1423,1.51909,.22016,2.26148,.0692,.65974,.03446,1.46424,.30319,2.08048,.20864,.47845,.70325,.83308,1.23278,.63057,.24162-.0924,.42037-.2879,.60009-.46605,.28177-.27931,.56218-.56001,.84327-.84002,.36525-.36384-.20034-.92962-.56569-.56569h0Z"/>
      <path class="cls-9" d="M88.92017,28.17242c.32087-.78474,1.16495-1.10358,1.89389-1.39959,.6754-.27427,1.34968-.54741,1.90558-1.03239,1.29439-1.12925,1.58726-2.98346,1.99193-4.55939,.98952-3.85358,4.02948-6.61916,7.25085-8.75391,.9744-.64572,1.45364,.07509,2.05977,.78267,.43544,.50832,.95632,1.00249,1.67605,.93289,.22654-.02191,.49472-.24308,.38571-.50634-.20404-.49277,.38266-.56898,.71642-.40579,.24774,.12113,.4613,.31752,.66339,.50214,.3595,.32842,.68823,.69179,.97599,1.08465,.5352,.73067,.94383,1.55238,1.23283,2.40937,.59414,1.76182,.73041,3.67314,.48961,5.51255-.56962,4.35115-3.22478,8.11132-5.88678,11.45757-.31732,.39888,.24514,.96863,.56569,.56569,2.56178-3.22027,5.05594-6.7292,5.92325-10.82964,.71529-3.38171,.25115-7.28516-2.01623-10.01167-.54312-.6531-1.3632-1.56943-2.28062-1.60252-.7808-.02816-1.46911,.77164-1.15497,1.53033l.38571-.50634c-.69782,.06749-1.14213-.76759-1.55169-1.21664-.43378-.47561-.98065-.87696-1.65806-.78544-.91339,.1234-1.77108,.99667-2.47657,1.5368-.76894,.58872-1.52349,1.198-2.23103,1.85998-1.42779,1.33587-2.65955,2.8923-3.37494,4.7267-.67481,1.73033-.67174,3.97583-1.95339,5.41625-1.23562,1.38869-3.52927,1.18509-4.30382,3.0794-.19472,.47624,.57888,.68358,.77142,.21267h0Z"/>
      <path class="cls-9" d="M108.72227,30.72693c1.75105,.01068,3.50609,.0858,5.2483,.26738,.47047,.04903,.9003,.07314,1.17138,.5198,.18324,.30193,.30341,.64591,.46077,.96173,.32097,.64421,.69576,1.25977,1.09765,1.85638,1.59846,2.37293,3.65737,4.4866,4.6413,7.22265,.09595,.2668,.45123,.41432,.66855,.17651,1.41723-1.55082,2.93518-3.0003,4.55227-4.34152,.39664-.32897-.17202-.8922-.56569-.56569-1.61709,1.34122-3.13503,2.79069-4.55227,4.34152l.66855,.17651c-1.0808-3.00541-3.36311-5.25316-5.04402-7.90594-.42279-.66723-.76365-1.3611-1.10619-2.07081-.31999-.66297-.77258-1.01614-1.50666-1.11809-1.88806-.26222-3.83037-.30881-5.73395-.32043-.51488-.00314-.51546,.79686,0,.8h0Z"/>
      <path class="cls-9" d="M126.1658,37.53556c.46988,.99707,1.65766,1.57671,2.72779,1.28668,.20191-.05472,.34572-.28705,.27938-.49205-.06697-.20694-.27565-.33802-.49205-.27938-.04972,.01347-.09972,.02556-.15039,.03492-.03107,.00574-.09999,.03601-.01519,.00371-.02169,.00826-.05356,.00524-.07631,.00679-.10724,.00729-.21406,.00357-.32095-.00682-.06941-.00674,.01533,.00126,.01519,.00207-.00018,.0011-.08677-.01583-.09058-.01662-.0502-.01042-.10001-.0229-.14923-.03725-.04938-.01439-.09825-.03068-.14637-.04885-.01745-.00659-.10524-.0511-.01895-.00685-.02297-.01178-.04701-.02165-.07016-.03309-.09315-.046-.18275-.09899-.26797-.15841-.0214-.01492-.04233-.03042-.06333-.04588,.07784,.05728-.00581-.00661-.01678-.01598-.03985-.03402-.07837-.06964-.1155-.10661-.03727-.0371-.07312-.07571-.10733-.11564-.00052-.00061-.06398-.07713-.02868-.03325,.03498,.04348-.01937-.027-.02566-.03594-.06786-.09649-.12588-.19869-.17614-.30534-.08945-.18982-.3768-.25341-.54728-.1435-.19528,.1259-.23918,.34424-.1435,.54728h0Z"/>
      <path class="cls-9" d="M114.44576,39.58014l2.73863,6.34644c.43165,1.00029,.80543,2.05844,1.31094,3.02344,.31983,.61056,1.09144,1.0568,1.65891,.45455,.35292-.37454-.21172-.94134-.56569-.56569-.23605,.25052-.53161-.57804-.59479-.72388-.1806-.41688-.36001-.83427-.54001-1.25141l-1.11859-2.59221-2.19862-5.09503c-.20342-.4714-.89282-.06444-.69078,.40378h0Z"/>
      <path class="cls-9" d="M120.33938,49.23447c2.1663-.66719,3.77348-2.31736,5.10605-4.08108,1.60331-2.12205,2.95816-4.4455,4.12357-6.83301,.22496-.46086-.46473-.86687-.69078-.40378-1.09247,2.23809-2.35614,4.40078-3.81766,6.41897-1.26247,1.74333-2.81385,3.47454-4.93386,4.12747-.49055,.15108-.2813,.92356,.21267,.77142h0Z"/>
      <path class="cls-9" d="M126.2192,35.40672l.02223-1.96455c.00692-.61173-.02773-1.24107,.02957-1.85034,.01499-.15934,.05145-.45174,.23317-.51907,.14338-.05312,.1943,.14589,.24461,.25911,.25604,.57616,.4818,1.1679,.72225,1.75077,.08233,.19956,.26549,.34164,.49205,.27938,.18871-.05186,.36227-.29111,.27938-.49205-.14904-.36127-.29807-.72254-.44711-1.08381-.13817-.33492-.25295-.70153-.43361-1.01637-.16731-.29157-.44547-.51959-.79554-.51932-.34632,.00027-.66105,.21651-.84873,.49592-.19617,.29205-.24271,.65933-.2551,1.0027-.01416,.39234-.01068,.786-.01512,1.17855l-.02805,2.47908c-.00583,.51495,.79417,.5153,.8,0h0Z"/>
      <path class="cls-9" d="M128.81826,31.82353c.05077-.24949,.26563-.3892,.5189-.35486,.29029,.03936,.52762,.31462,.69095,.53675,.43203,.58757,.75114,1.33419,.86843,2.05426,.12917,.79296-.41409,1.39028-.82572,2.01121-.46227,.69733-.92455,1.39466-1.38682,2.09199-.28528,.43034,.40728,.83143,.69078,.40378,.62915-.94906,1.27135-1.89078,1.88776-2.84814,.25056-.38915,.43831-.78852,.45919-1.25786,.02231-.50133-.12701-1.01822-.29927-1.48373-.29071-.7856-.7516-1.77151-1.54676-2.1617-.70928-.34804-1.66108-.02885-1.82887,.79562-.10229,.5026,.66866,.7176,.77142,.21267h0Z"/>
      <path class="cls-9" d="M125.26564,35.87801c-.05301,.51755,.00127,1.05121,.15196,1.54903,.06056,.20004,.28287,.34707,.49205,.27938,.20199-.06537,.3443-.27756,.27938-.49205-.03381-.11169-.06286-.22465-.08596-.33905-.01248-.06179-.02259-.12386-.03254-.18608-.01507-.09422,.00987,.09415,.00004-.0008-.00325-.03138-.00696-.0627-.00984-.09412-.02186-.23844-.01948-.47817,.00491-.7163,.00981-.09582-.05171-.21739-.11716-.28284-.06938-.06938-.1832-.12162-.28284-.11716-.10345,.00463-.21074,.03861-.28284,.11716-.07582,.08259-.10577,.17164-.11716,.28284h0Z"/>
      <path class="cls-9" d="M128.23564,33.89973l1.21186,.30833c.20249,.05152,.44343-.06592,.49205-.27938,.04737-.20796-.06243-.43685-.27938-.49205l-1.21186-.30833c-.20249-.05152-.44343,.06592-.49205,.27938-.04737,.20796,.06243,.43685,.27938,.49205h0Z"/>
      <path class="cls-9" d="M95.49567,28.9393c3.20443-.9128,3.35842-4.86766,4.32502-7.44846,.56104-1.49796,1.59166-2.80752,2.9299-3.6879,1.10542-.72722,2.95392-1.15763,2.81451-2.83002l-.68284,.28284c3.05176,2.81428,4.04653,7.43973,2.70143,11.32529-.16877,.48753,.60376,.697,.77142,.21267,1.43283-4.13901,.33928-9.10983-2.90717-12.10365-.23435-.21611-.71333-.0829-.68284,.28284,.08082,.9695-.90024,1.31694-1.61415,1.6763-.53061,.26709-1.02733,.59244-1.48957,.96538-1.04126,.8401-1.87722,1.93207-2.40895,3.15989-1.00724,2.3258-.9966,6.54656-3.96942,7.39339-.4943,.1408-.28418,.91296,.21267,.77142h0Z"/>
      <path class="cls-9" d="M98.95423,24.9298c.85528,2.01273,2.4853,4.02984,4.59525,4.79853,1.00096,.36467,2.12654,.31789,2.95772-.40199,.80468-.69692,1.12099-1.79916,1.38863-2.78887,.13456-.4976-.63696-.7099-.77142-.21267-.22614,.83623-.46584,1.7995-1.13918,2.39831-.73897,.65718-1.79267,.47193-2.60694,.06737-1.71852-.85383-2.99651-2.53062-3.73329-4.26446-.2007-.47231-.89003-.06512-.69078,.40378h0Z"/>
      <path class="cls-9" d="M113.49018,45.48602c.51476,0,.51561-.8,0-.8-.51476,0-.51561,.8,0,.8h0Z"/>
      <path class="cls-9" d="M112.1013,60.5338c-.79796-1.94586-1.57317-3.96998-1.74958-6.08375-.18374-2.20168,.47252-4.15476,1.42534-6.10753,.87291-1.78899,1.7327-3.55077,2.2924-5.4691,.5771-1.97794,.88902-4.02497,.95928-6.08311,.01758-.51492-.78244-.51426-.8,0-.07443,2.18029-.43526,4.33656-1.09688,6.41645-.63849,2.00718-1.66173,3.81271-2.51299,5.72769-.8171,1.83813-1.2542,3.72463-1.04583,5.74277,.21824,2.1136,.95598,4.11635,1.75683,6.06925,.19268,.46987,.96696,.26415,.77142-.21267h0Z"/>
      <path class="cls-9" d="M110.84639,31.61775l1.72519,3.15853,.62823-.48473c-.68678-.6415-1.59123-.77314-2.43364-.36345-.18229,.08865-.2622,.38095-.1435,.54728,.84673,1.18647,1.78868,2.29223,2.83658,3.30593l-.06255-.48473c-1.68881,2.54952-3.10972,5.26368-4.24584,8.10302-1.15246,2.88017-2.02038,5.93538-2.03971,9.05889-.00993,1.60553,.21386,3.20495,.40628,4.79565,.18496,1.52903,.38485,3.05846,.6867,4.5695,.15433,.77255,.33527,1.53998,.55384,2.29698,.15235,.52766,.3021,1.22605,.85628,1.48112,.91278,.42013,2.2101-.61243,2.82216-1.20262,.90407-.87176,1.92462-2.29828,1.16717-3.52982-.88519-1.43925-1.53589-2.81915-1.77637-4.51336-.07206-.50766-.84301-.29169-.77142,.21267,.16763,1.18094,.51657,2.32129,1.05641,3.38616,.25812,.50915,.67974,.97021,.90558,1.48643,.28588,.65348-.36349,1.50841-.76777,1.98791-.35328,.41902-.76981,.78091-1.24149,1.06068-.2014,.11946-.48542,.30662-.71676,.34316-.56411,.08911-.60754-.39954-.72901-.81178-.39038-1.32488-.66163-2.68151-.87668-4.04493-.43406-2.75196-.91055-5.64922-.74421-8.44097,.1606-2.69546,.94662-5.31991,1.9384-7.8172,1.11659-2.81157,2.5371-5.4964,4.20722-8.01771,.09587-.14474,.05953-.36664-.06255-.48473-.99879-.96619-1.90412-2.01272-2.71148-3.14402l-.1435,.54728c.51353-.24975,1.05224-.14642,1.46418,.23836,.33157,.30971,.84891-.0807,.62823-.48473l-1.72519-3.15853c-.24687-.45197-.93791-.04869-.69078,.40378h0Z"/>
      <path class="cls-9" d="M107.69988,31.90478c.34828,1.90381-.19113,3.79483-.54269,5.65646-.34032,1.80206-.5659,3.62707-.67575,5.45766-.22237,3.70583,.04862,7.42958,.77308,11.06954,.10041,.5045,.87166,.29095,.77142-.21267-.74205-3.7283-.98167-7.54339-.71319-11.33566,.1328-1.87585,.402-3.73358,.77599-5.57594,.35471-1.7474,.70835-3.49121,.38257-5.27205-.09251-.5057-.86365-.29148-.77142,.21267h0Z"/>
      <path class="cls-9" d="M111.39102,37.9932c.51476,0,.51561-.8,0-.8-.51476,0-.51561,.8,0,.8h0Z"/>
      <path class="cls-9" d="M125.34121,41.10585c.89933-.84201,1.66529-1.82734,2.26971-2.90043,.106-.1882,.04498-.43704-.1435-.54728-.19535-.11426-.42804-.03735-.54728,.1435-.2977,.45153-.5954,.90307-.8931,1.3546-.11895,.18042-.03581,.4424,.1435,.54728,.19535,.11426,.42804,.03735,.54728-.1435,.2977-.45153,.5954-.90307,.8931-1.3546l-.69078-.40378c-.57669,1.02387-1.28611,1.93474-2.14462,2.73852-.15774,.14769-.14922,.41647,0,.56569,.15731,.15731,.40752,.14809,.56569,0h0Z"/>
      <path class="cls-9" d="M123.72809,42.24589l-.01182,.81438c-.00245,.16865,.12532,.34737,.29366,.38571,.15997,.03643,.37836-.01963,.45172-.18382,.26072-.58349,.41305-1.19412,.44809-1.83323,.01147-.20928-.19218-.40931-.4-.4-.22653,.01015-.38771,.17581-.4,.4-.00386,.07044-.0089,.14078-.01581,.21099-.00296,.03008-.00672,.06007-.00977,.09014-.0057,.04548-.00479,.04001,.00273-.01642-.00277,.01995-.00566,.03988-.00869,.0598-.01968,.12932-.04486,.25783-.07557,.38498-.03065,.1269-.06668,.25247-.10805,.3763-.02222,.06651-.04601,.13252-.07136,.1979-.00387,.00999-.02422,.07871-.03337,.08364,.02112-.04939,.02289-.05361,.0053-.01268-.00796,.01832-.01605,.03659-.02427,.05481l.74539,.20189,.01182-.81438c.00304-.2093-.18615-.40958-.4-.4-.21932,.00982-.39675,.17572-.4,.4h0Z"/>
      <path class="cls-9" d="M114.16195,34.1019c-.73012,1.72782-.82312,3.6827-.19089,5.45714,.15091,.42356,.76039,.35554,.78571-.10634,.10311-1.8806,.20622-3.7612,.30932-5.6418,.0282-.51443-.77188-.51285-.8,0-.10311,1.8806-.20622,3.7612-.30932,5.6418l.78571-.10634c-.55501-1.55773-.53622-3.31085,.11024-4.8407,.0847-.20044,.0586-.42621-.1435-.54728-.16678-.09991-.4633-.05523-.54728,.1435h0Z"/>
      <path class="cls-9" d="M120.51854,42.3635l-.50621,1.0451c-.04748,.09802-.07009,.20012-.04032,.30822,.02555,.09278,.09729,.19333,.18382,.23905,.09283,.04905,.20529,.07363,.30822,.04032,.09473-.03065,.19405-.09092,.23905-.18382l.50621-1.0451c.04748-.09802,.07009-.20012,.04032-.30822-.02555-.09278-.09729-.19333-.18382-.23905-.09283-.04905-.20529-.07363-.30822-.04032-.09473,.03065-.19405,.09092-.23905,.18382h0Z"/>
      <path class="cls-9" d="M121.67364,42.30599l1.09828-1.48224c.05792-.07816,.06496-.21877,.04032-.30822-.02555-.09278-.09729-.19333-.18382-.23905-.09283-.04905-.20529-.07363-.30822-.04032-.10507,.034-.17367,.09559-.23905,.18382l-1.09828,1.48224c-.05792,.07816-.06496,.21877-.04032,.30822,.02555,.09278,.09729,.19333,.18382,.23905,.09283,.04905,.20529,.07363,.30822,.04032,.10507-.034,.17367-.09559,.23905-.18382h0Z"/>
      <path class="cls-9" d="M111.24095,31.8087l.2103-.35007c.06997-.11647,.07763-.28805,0-.40378-.36304-.54122-.9417-.88759-1.58366-.98807-.77431-.1212-1.53363,.07212-2.27536,.28088-.49482,.13927-.28457,.91137,.21267,.77142,.93505-.26317,2.30454-.63102,2.95557,.33954v-.40378l-.2103,.35007c-.26578,.44243,.42566,.8451,.69078,.40378h0Z"/>
      <path class="cls-9" d="M108.29514,54.10267c-.12218-3.0637,.48033-6.14338,1.82463-8.90548,1.23762-2.54291,3.29792-4.64035,4.12817-7.38289,.1495-.49383-.62241-.7049-.77142-.21267-.86727,2.86482-3.1149,5.06624-4.3222,7.78201-1.21662,2.73673-1.77847,5.72778-1.65918,8.71903,.02046,.51306,.82056,.51568,.8,0h0Z"/>
      <path class="cls-9" d="M109.99789,48.42299c.51476,0,.51561-.8,0-.8-.51476,0-.51561,.8,0,.8h0Z"/>
      <path class="cls-9" d="M109.6851,46.61128c-.81588,2.65965-.83963,5.52764-.06255,8.19923,.1435,.49336,.91573,.28347,.77142-.21267-.73931-2.54175-.71356-5.2439,.06255-7.77389,.15133-.49331-.62063-.70422-.77142-.21267h0Z"/>
      <path class="cls-9" d="M110.47246,56.07801l.69743,.66455,.48473-.62823c-.01518-.01145-.03028-.02298-.04534-.03459l.08096,.06255c-.24736-.19292-.46864-.41619-.66123-.66373l.06255,.08096c-.11065-.14372-.21114-.29454-.30124-.45196-.10399-.18169-.36684-.25983-.54728-.1435-.18345,.11827-.25476,.35289-.1435,.54728,.29163,.50951,.68402,.94117,1.15131,1.29378,.07416,.05596,.22285,.06795,.30822,.04032,.08432-.02729,.15336-.07291,.20778-.14335,.11832-.15314,.11389-.38689-.03127-.52521l-.69743-.66455c-.15158-.14444-.41714-.16182-.56569,0-.14367,.1565-.16182,.41149,0,.56569h0Z"/>
      <path class="cls-9" d="M110.42078,65.25894c.51476,0,.51561-.8,0-.8-.51476,0-.51561,.8,0,.8h0Z"/>
      <path class="cls-9" d="M94.3124,62.5243c.48936-.8041,.79303-1.70528,1.15693-2.56966,.37997-.90252,.66006-1.79135,.79865-2.76261,.29437-2.06303,.47719-4.15356,.6588-6.22916,.18663-2.1329,.31525-4.27282,.3108-6.41458-.00442-2.13-.26769-4.23476-.34656-6.35935-.08549-2.303,.36119-4.46722,1.77273-6.33099,.08702-.1149,.05989-.28635,0-.40378-.58859-1.15397-1.91623-.79642-2.78296-.21379-1.37304,.923-2.71048,1.90399-4.06408,2.85532-.18834,.13237-.24328,.33768-.1435,.54728,.47671,1.00134,1.2425,1.80883,2.23808,2.30392l.09555-.7311c-1.03257,.39815-2.03613,.86359-2.99483,1.41751-.54006,.31204-1.74535,.79978-1.40255,1.62804,.13601,.32862,.50943,.56152,.75323,.80509,.32979,.32947,.63578,.68329,.91062,1.05991,.54192,.74262,.98359,1.56428,1.30797,2.42422,.63004,1.67027,.86266,3.49082,.64488,5.26433-.24643,2.00683-1.51276,3.79346-1.21518,5.85458,.18972,1.31406,.41755,2.537,.30993,3.87527-.1126,1.40025-.43804,2.77416-.75814,4.13847-.11749,.50077,.65368,.71449,.77142,.21267,.49595-2.11379,1.00512-4.29935,.77291-6.48466-.11946-1.12422-.52179-2.21504-.26564-3.34905,.21676-.95959,.67694-1.84561,.92021-2.79921,.8198-3.21358,.15878-6.85256-1.79759-9.54039-.26261-.36079-.54474-.70843-.85134-1.03283-.16081-.17014-.34407-.32102-.50244-.49233-.22977-.24854-.16477-.27839,.11447-.455,1.10516-.699,2.27485-1.28483,3.49473-1.7552,.29116-.11227,.43241-.56358,.09555-.7311-.88846-.44182-1.52557-1.12313-1.95108-2.01692l-.1435,.54728c.97446-.68487,1.94892-1.36973,2.92338-2.0546,.59041-.41495,2.26587-1.97821,2.82911-.87394v-.40378c-1.10236,1.45554-1.71297,3.17426-1.85694,4.98979-.16205,2.04337,.18919,4.09269,.27782,6.13181,.18805,4.32671-.25808,8.6474-.72973,12.94246-.13087,1.19176-.24417,2.37429-.67247,3.50398-.39428,1.03996-.79131,2.1474-1.37002,3.09831-.26836,.44096,.42321,.84343,.69078,.40378h0Z"/>
      <path class="cls-9" d="M96.32253,32.10253c-.95018,3.63054-1.48875,7.366-1.58415,11.11832-.04698,1.8477,.05673,3.68282,.15225,5.52682,.09584,1.85029,.10752,3.70763-.44235,5.49534-.1517,.4932,.62027,.70408,.77142,.21267,1.06268-3.45495,.25429-7.21023,.30889-10.75507,.05922-3.84502,.59194-7.66602,1.56537-11.38541,.13046-.49847-.64097-.71112-.77142-.21267h0Z"/>
      <path class="cls-9" d="M97.57984,53.05631c3.05634-1.73006,6.68389-1.53487,10.01369-.85698,.5026,.10232,.71759-.66863,.21267-.77142-3.54636-.72198-7.37829-.90309-10.63013,.93763-.44803,.25361-.04533,.94499,.40378,.69078h0Z"/>
      <path class="cls-9" d="M100.52139,48.09267c.73902,.14713,1.49057,.13813,2.22514-.03188,.20404-.04722,.34399-.29237,.27938-.49205-.06901-.21323-.27343-.32997-.49205-.27938-.08105,.01876-.16235,.03596-.24423,.05072-.04403,.00794-.08821,.01472-.13236,.02195-.08734,.01432,.05082-.00436-.04552,.00611-.15865,.01724-.31737,.02923-.477,.03176-.15926,.00252-.31866-.00293-.47735-.01664-.03809-.00329-.07614-.00703-.11413-.01122-.01924-.00212-.11676-.01539-.04538-.00503-.08838-.01283-.17624-.02834-.26382-.04578-.2046-.04073-.4417,.05833-.49205,.27938-.04525,.19868,.05993,.44836,.27938,.49205h0Z"/>
      <path class="cls-9" d="M98.8281,32.03685c.51476,0,.51561-.8,0-.8-.51476,0-.51561,.8,0,.8h0Z"/>
      <path class="cls-9" d="M98.50438,31.77752c.30743-.03119,.61234-.08405,.90873-.17224,.13239-.03939,.24675-.10196,.31932-.22476,.04705-.07961,.07363-.18367,.06773-.27598-.01194-.18658-.11102-.35822-.30328-.41152-.22091-.06125-.45091,.08268-.5052,.30156-.02538,.10233-.01342,.21638,.04032,.30822,.04856,.08297,.14369,.1621,.23905,.18382,.1024,.02332,.21733,.01828,.30822-.04032,.08639-.0557,.15846-.13679,.18382-.23905,.0009-.00435,.0021-.0086,.00361-.01277l-.04032,.09555c.0009-.00264,.00218-.00508,.00383-.00732l-.06255,.08096,.00193-.00181-.17651,.10287,.00191-.00067h-.21267l.00187,.00038-.09555-.04032,.0018,.00136-.1435-.1435c.0014,.0016,.00249,.00338,.00327,.00536l-.04032-.09555c.00233,.00627,.00358,.01248,.00455,.01909l-.01429-.10634c.00106,.0112,.00094,.02203-.00015,.03321l.01429-.10634c-.00145,.0097-.00359,.01878-.00679,.02805l.04032-.09555c-.00292,.00678-.00598,.01252-.01005,.01868l.06255-.08096c-.00276,.00376-.00591,.00715-.00945,.01017l.08096-.06255c-.00362,.00307-.00758,.00562-.01189,.00763l.09555-.04032c-.11031,.04257-.23155,.06738-.34672,.0931-.11958,.0267-.24026,.04803-.36165,.06467l.10634-.01429c-.04961,.0066-.0993,.01243-.14909,.01748-.10875,.01103-.20293,.03725-.28284,.11716-.06938,.06938-.12162,.1832-.11716,.28284,.00463,.10345,.03861,.21074,.11716,.28284,.07361,.06757,.17906,.12769,.28284,.11716h0Z"/>
      <path class="cls-9" d="M98.00263,29.66407c-.45187-.18485-.91615-.33578-1.39047-.45148-.20293-.0495-.4431,.0645-.49205,.27938-.05157,.22642,.06885,.41429,.27938,.49205,.6892,.25457,1.37839,.50914,2.06759,.76371,.19663,.07263,.44688-.08106,.49205-.27938,.05157-.22642-.06885-.41429-.27938-.49205-.6892-.25457-1.37839-.50914-2.06759-.76371l-.21267,.77142c.47432,.1157,.9386,.26663,1.39047,.45148,.19421,.07945,.44801-.08603,.49205-.27938,.05295-.23249-.0714-.40697-.27938-.49205h0Z"/>
      <path class="cls-9" d="M98.87893,26.88748c-.11367,.94026-.37147,1.87639-.75665,2.74162-.08779,.19721-.05727,.42984,.1435,.54728,.17053,.09975,.45897,.05485,.54728-.1435,.44757-1.00538,.73382-2.05311,.86587-3.1454,.02597-.21482-.20243-.4-.4-.4-.23778,0-.37395,.18455-.4,.4h0Z"/>
      <path class="cls-9" d="M105.426,30.5211l.2705,1.19492,.66855-.38918c-.0342-.03498-.0659-.0717-.09786-.10868-.02568-.03205-.01779-.02157,.02366,.03147-.00844-.01119-.01673-.02249-.02488-.0339-.01429-.02001-.0281-.04036-.04147-.06099-.05595-.08627-.10306-.17743-.14325-.27202l.04032,.09555c-.06007-.14623-.10096-.29816-.12253-.45477l.01429,.10634c-.01437-.11467-.01818-.22947-.01092-.34482,.01316-.20924-.19339-.40925-.4-.4-.22798,.01021-.3859,.17586-.4,.4-.0369,.58654,.1864,1.18757,.59696,1.6075,.11926,.12199,.33784,.15725,.48473,.06255,.15434-.09951,.22448-.27212,.18382-.45172l-.2705-1.19492c-.04625-.20429-.29306-.34377-.49205-.27938-.21404,.06927-.32893,.27317-.27938,.49205h0Z"/>
      <path class="cls-9" d="M100.19663,32.25929c1.75053,1.21246,4.13023,1.2631,5.94512,.15973,.43964-.26728,.0461-.94449-.40378-.69078-1.40116,.79021-3.05107,1.0439-4.61961,.67247-.50061-.11854-.71424,.65265-.21267,.77142,1.77808,.42105,3.64617,.14353,5.23606-.75312l-.40378-.69078c-1.58869,.96585-3.61123,.89745-5.13757-.15973-.42423-.29383-.82463,.39928-.40378,.69078h0Z"/>
      <path class="cls-9" d="M72.94164,37.92015c.81049-.50443,1.62819-.99721,2.45342-1.47717,.19825-.1153,.39691-.22989,.596-.34374,.10835-.06196,.24391-.11726,.33258-.20593,.11537-.11537,.11224-.26521,.12794-.41505,.04308-.41129,.17986-.81211,.3791-1.17287l-.7311-.30822c-.08011,.32921-.20148,.63171-.37507,.92274-.14487,.24288,.00597,.49337,.23905,.5876,.30733,.12424,.6526-.1032,.72345-.40972,.1158-.50102-.65535-.71488-.77142-.21267l.26065-.14903,.23905,.5876c.20635-.34596,.36047-.72247,.45571-1.11384,.10467-.4301-.50574-.71627-.7311-.30822-.29298,.53048-.45563,1.10531-.49911,1.70886l.19811-.34539c-1.11334,.63271-2.21385,1.28764-3.30104,1.96429-.43619,.27148-.035,.96386,.40378,.69078h0Z"/>
      <path class="cls-9" d="M81.83711,33.01761c-.18023,.52548-.19776,1.10137-.07023,1.64058,.0482,.20378,.29169,.34422,.49205,.27938,.21242-.06874,.33102-.27371,.27938-.49205-.01984-.08388-.0356-.16831-.04748-.25368l.01429,.10634c-.02875-.22346-.02884-.44817-.00085-.67171l-.01429,.10634c.02321-.17131,.06247-.33897,.11856-.50251,.06795-.19813-.07768-.44611-.27938-.49205-.2223-.05063-.41929,.06725-.49205,.27938h0Z"/>
      <path class="cls-9" d="M91.30403,30.49259c-1.31728,.83869-2.09839,2.38081-2.07263,3.93392,.00853,.51425,.80855,.51584,.8,0-.02102-1.26749,.59415-2.55409,1.67641-3.24314,.43306-.27572,.03222-.96837-.40378-.69078h0Z"/>
      <path class="cls-9" d="M84.35809,59.67146c-.46389,1.13951,.91393,1.97285,1.7164,2.45267,1.15827,.69257,2.42829,1.36416,3.70178,1.81795,2.02266,.72074,4.35834-.28312,5.13335-2.30674,.18429-.48119-.58885-.68939-.77142-.21267-.62692,1.63694-2.5697,2.31084-4.14926,1.74799-.96262-.34301-1.90281-.85308-2.80157-1.3366-.56103-.30183-2.40347-1.10099-2.05786-1.94994,.19402-.47659-.57955-.684-.77142-.21267h0Z"/>
      <path class="cls-9" d="M103.19541,26.5996c.46955-.12272,.92505-.17555,1.41132-.18025,.53187-.00514,.96362,.08392,1.49376,.17556,.21264,.03676,.43088-.05678,.49205-.27938,.05292-.19259-.06534-.45505-.27938-.49205-.56712-.09804-1.12842-.20972-1.70644-.20414-.54428,.00526-1.09702,.07109-1.624,.20882-.49769,.13008-.28666,.90193,.21267,.77142h0Z"/>
      <path class="cls-9" d="M103.89717,27.43847c.35833,.1269,.73744,.21168,1.11932,.20947,.38069-.0022,.75606-.08934,1.11141-.22113,.19562-.07255,.34989-.27414,.27938-.49205-.06202-.19164-.28201-.35727-.49205-.27938-.16093,.05969-.32449,.11193-.49235,.14842-.04456,.00969-.08947,.01695-.13419,.02573-.09486,.01864,.06121-.0039-.02615,.00404-.08203,.00745-.16361,.01389-.24605,.01436-.07681,.00044-.15355-.00295-.23003-.00999-.02056-.00189-.1412-.02046-.04337-.00403-.03947-.00663-.07889-.01304-.11816-.02081-.17549-.03473-.3466-.0864-.51509-.14606-.1975-.06994-.44643,.07911-.49205,.27938-.05103,.22405,.06792,.41716,.27938,.49205h0Z"/>
      <path class="cls-9" d="M106.6388,21.3148c.01237-.02219,.02568-.04318,.03844-.06503-.00915,.01567-.06004,.06106-.00161,.00217,.01753-.01767,.0978-.092,.06489-.06631-.04426,.03455,.02017-.0126,.03175-.01933,.02202-.01281,.04419-.02529,.06639-.03776,.01663-.00933,.03439-.01761,.05186-.02523-.09176,.04001,.02645-.00426,.03848-.0077,.02011-.00574,.1429-.03206,.09403-.02389-.04764,.00796,.07561-.00411,.0977-.00424,.0282-.00017,.1723,.01778,.07709-.00037,.05936,.01132,.11553,.02653,.17321,.04453,.07002,.02185-.05222-.0267,.01378,.0039,.01967,.00912,.03912,.01875,.05826,.02892,.05087,.02705,.09972,.05771,.14681,.09086-.06238-.04391,.06279,.05591,.07477,.06744,.04163,.04003,.08048,.08267,.11788,.12665-.04449-.05231,.00184,.00145,.00906,.01189,.01646,.02382,.03289,.04748,.04854,.07187,.02729,.04252,.05254,.08632,.07612,.131,.01344,.02546,.02584,.05139,.03846,.07725,.03204,.06566-.02065-.05702,.0052,.01089,.02849,.07484,.05845,.15379,.07048,.23336-.00498-.03291-.00286,.15405,.00414,.08056,.00397-.04166-.02039,.07366-.02841,.09683,.02691-.07779-.02939,.04408-.0472,.07105,.01132-.01714,.05388-.05478-.00589,.00548-.0245,.0247-.04792,.05008-.07378,.07349-.00822,.00744-.07654,.06026-.03639,.03123,.03682-.02663-.02197,.0125-.02408,.01368-.05009,.02796-.09796,.05878-.15091,.08155,.07443-.03201-.07854,.0216-.09487,.02576-.06546,.01667-.08629,.02106-.14078,.02481-.29423,.02024-.53047-.0308-.81483-.11081-.10479-.02949-.20759-.06347-.3105-.09875-.08268-.02835-.03177-.01131-.0129-.00319-.02625-.01129-.05234-.02359-.07794-.03635-.05677-.02828-.11122-.06002-.16387-.09534-.0427-.02865,.00276,.00299,.00919,.00857-.03081-.02671-.05841-.05445-.08654-.0839,.06613,.06923-.04605-.09265-.00938-.00455-.01142-.02744-.02055-.05967-.02651-.08918,.01382,.0685,.0024-.02418,.00239-.0409-.00006-.07463-.01471,.05492,.00105-.01876,.00819-.03827,.01821-.07655,.03197-.11327-.00746,.01991-.03269,.05601,.01198-.02271,.01977-.03485,.03947-.06934,.06201-.10254,.02767-.04076,.01172-.01895,.00469-.00973,.03012-.03959,.06646-.07705,.10104-.1127,.10655-.10986,.22503-.20739,.34284-.30474,.18748-.15492,.16038-.47601,0-.6364-.18548-.18548-.44846-.1553-.6364,0-.30709,.25376-.59077,.52586-.73702,.90532-.13443,.34879-.10429,.7595,.11894,1.06504,.22299,.30521,.55571,.47347,.90663,.59202,.36496,.12329,.7586,.21584,1.14527,.21727,.73086,.0027,1.52025-.42642,1.62531-1.20833,.09388-.69869-.43143-1.49721-1.04162-1.80867-.68058-.34738-1.62196-.20462-2.01637,.50308-.1183,.21226-.05126,.49128,.16144,.61569,.2071,.12113,.497,.05152,.61569-.16144h0Z"/>
      <path class="cls-9" d="M105.41038,21.03607l-.54312-.32364c-.08873-.05288-.20896-.06766-.30822-.04032-.05205,.01238-.0974,.03624-.13603,.0716-.04355,.0282-.07789,.06561-.10302,.11223-.04905,.09283-.07363,.20529-.04032,.30822,.03228,.09974,.09225,.18448,.18382,.23905l.54312,.32364c.08873,.05288,.20896,.06766,.30822,.04032,.05205-.01238,.0974-.03624,.13603-.0716,.04355-.0282,.07789-.06561,.10302-.11223,.04905-.09283,.07363-.20529,.04032-.30822-.03228-.09974-.09225-.18448-.18382-.23905h0Z"/>
      <path class="cls-9" d="M104.21866,20.73273c-.22955-.04249-.45648-.04332-.68342,.01898-.22021,.06045-.41598,.1737-.58566,.32493-.08313,.07409-.1318,.20952-.1318,.3182,0,.11037,.04902,.24221,.1318,.3182,.08576,.07872,.19835,.13717,.3182,.1318,.12321-.00552,.22558-.04925,.3182-.1318,.01616-.0144,.03267-.02826,.04964-.04168l-.09107,.07036c.06584-.05052,.13717-.09181,.21339-.12457l-.1075,.04536c.08139-.03371,.16586-.05683,.25305-.06946l-.11963,.01607c.0876-.01152,.1754-.01209,.26307-.00097l-.11963-.01607c.01744,.00246,.03478,.00529,.0521,.0085,.12102,.0224,.23736,.01865,.34675-.04536,.09335-.05462,.18237-.16166,.2068-.26893,.02624-.11519,.02056-.2445-.04536-.34675-.0604-.09369-.15506-.18572-.26893-.2068h0Z"/>
      <path class="cls-9" d="M104.04858,20.82975c.00803-.68909-.6217-1.19462-1.27213-1.23707-.63461-.04141-1.21884,.37881-1.5457,.89401-.20037,.31583-.29975,.68123-.21666,1.05159,.07584,.33805,.30904,.62043,.58455,.81821,.50276,.36092,1.26269,.47704,1.85751,.31702,.65969-.17747,1.09731-.78855,1.02738-1.47428-.0358-.35099-.17286-.67746-.38124-.96123-.18811-.25616-.41097-.52041-.70236-.66186-.70258-.34106-1.45476,.17549-1.77928,.8063-.16769,.32596-.20932,.69885-.02989,1.03014,.18837,.34779,.58161,.5373,.96961,.44488,.20558-.04897,.37973-.17254,.5356-.30998,.18921-.16683,.33682-.38936,.27157-.65301-.12115-.48952-.82837-.6332-1.10474-.19598-.29104,.46042,.16208,1.06505,.68465,.94603,.27441-.0625,.4033-.40888,.40352-.65946,.00019-.22337-.09609-.44019-.254-.59591-.1678-.16548-.47121-.17995-.6364,0-.16396,.17861-.17908,.45979,0,.6364,.0295,.03092,.03307,.03326,.01071,.00701-.02047-.02744-.01973-.0232,.0022,.01271l-.02095-.04288c.00924,.04218,.01028,.0449,.00312,.00817,.01466-.09092-.03138,.11914-.00131-.04293l.02144-.04307c-.01015,.02089-.02233,.04053-.03654,.05891l.38856-.22288c.07595-.00055,.17507,.06135,.21062,.12698,.02491,.04597,.02089,.07592,.02035,.13103-.00164,.16983-.13558,.30195-.30458,.30159-.11982-.00026-.09645-.00303-.05547,.00695-.05481-.01336-.07218-.03408-.11451-.07609l-.05448-.05407,.03498-.38585c-.02037,.01023-.04186,.04177-.05872,.05765-.03039,.02862-.06128,.05821-.09462,.08341,.05813-.04395-.04722,.02302-.0651,.03385-.04505,.02726,.00545-.00611,.01374-.00651-.00617,.0003-.07217,.00985-.01925,.00678,.05355-.00312-.01531-.00446-.0216-.00461,.01249,.0003,.09668,.00565,.09719,.02624,.00009,.00352-.10031-.08328-.01806-.00528-.00679-.00644-.04921-.04643-.00943-.00493,.04331,.0452-.01406-.0077-.01269-.02446,.00272-.03315,.00432,.01191,.00946,.02997-.00256-.00899-.0188-.0402-.01515-.04897,.0132-.03168-.01188,.01407,.0008,.0361-.00906-.01575,.00011-.04956-.00181-.06725,.00093,.00851-.01731,.06877-.00312,.01799,.00539-.01928,.0103-.03991,.01457-.05949,.00337-.01549,.03071-.07919-.00149-.00765,.00852-.01893,.01838-.03735,.02826-.05559,.02003-.037,.04224-.07264,.06596-.10737,.01193-.01747,.02406-.03488,.03686-.05174-.02845,.03748-.01042,.01406,.00925-.00806,.05873-.06608,.12612-.12385,.18517-.18887,.03217-.03542-.00295-.00078-.01174,.00605,.01599-.01243,.03304-.02377,.04989-.03498,.03908-.02598,.07967-.04908,.12189-.06957-.0677,.03285,.01179,.00256,.04075-.00665-.01217,.00387-.09701,.01205-.0031,.00082,.00541-.00065,.07422-.00208,.01988-.00359-.0641-.00179,.09719,.02397,.04013,.00723-.04566-.0134,.01001,.00436,.01855,.00909,.02327,.01289,.04581,.02659,.06858,.04033,.06855,.04135-.02254-.02729,.03648,.02764,.0345,.03211,.0688,.06412,.10138,.09821,.02891,.03024,.05686,.06136,.08424,.09298,.0138,.01594,.09264,.11528,.05328,.06238,.05628,.07566,.10797,.15484,.15315,.23762,.01036,.01897,.02001,.03826,.03011,.05737,.00124,.00234,.03199,.06641,.01307,.02452-.01874-.04148,.00862,.02279,.00967,.02579,.00941,.027,.01879,.05399,.02689,.08142,.01184,.04013,.02108,.08078,.02961,.12171,.01814,.08701,.00037,.01555-.00022-.00205,.00066,.0198,.00254,.03952,.00311,.05934,.00114,.03969-.0033,.07915-.00295,.11866,.00045,.05149,.00196-.01322,.00388-.02171-.0058,.02561-.00999,.05147-.01654,.07694-.00971,.03776-.02118,.07587-.03615,.11191,.03533-.08504-.02589,.02872-.03531,.04898-.01948,.04187,.00396-.00252,.01184-.01167-.0127,.01473-.02566,.02914-.03919,.04312-.01281,.01323-.02629,.02558-.03948,.03842-.03465,.03372-.02705,.01688,.00562-.00239-.03672,.02166-.07101,.04577-.10914,.06539-.01627,.00838-.03276,.01615-.04935,.02389,.00739-.00345,.06968-.02246,.02192-.01143-.07948,.01836-.15561,.04407-.23653,.0585,.08914-.0159-.01651-.00076-.05198,.00096-.03862,.00188-.07725,.00247-.1159,.00194-.03869-.00054-.07732-.00224-.11591-.00501-.03393-.00244-.14183-.01939-.052-.00319-.09034-.0163-.18007-.03264-.2687-.05692-.04149-.01137-.0826-.02394-.12326-.03797-.02027-.007-.04026-.01465-.06044-.0219,.0441,.01585,.01838,.00893-.01005-.0052-.0444-.02207-.08801-.04497-.13028-.071-.01803-.0111-.03566-.0227-.0533-.03442-.00371-.00246-.05668-.04511-.02132-.01502,.02623,.02232-.04698-.04628-.06014-.05995-.01401-.01455-.02688-.03011-.04085-.04467,.03001,.03128,.01797,.02759-.00246-.00493-.01417-.02256-.02748-.04548-.04147-.06816-.00291-.00471-.03435-.06363-.01164-.01752,.01832,.0372-.01785-.05615-.02277-.07566-.00477-.01894-.00887-.03795-.01236-.05717,.00242,.01333-.00068,.06855,.00644,.02272,.00265-.01708,.00104-.04131,.00032-.05873,.0018,.04382-.00812,.03208,.00202-.00766,.00713-.02795,.01493-.05511,.02314-.08282,.00072-.00244,.02573-.06866,.00854-.02694-.0172,.04174,.01183-.02308,.01304-.02538,.01013-.01925,.02007-.03855,.03062-.05758,.01874-.03381,.03862-.0669,.05971-.0993,.01607-.0247,.0841-.11087,.03012-.04726,.06217-.07326,.12648-.14296,.19949-.20563,.01448-.01243,.02904-.02491,.04412-.03661-.03336,.02587-.03455,.02514,.00123,.00279,.04305-.0269,.0854-.05422,.13059-.07759,.01682-.0087,.03428-.01622,.05107-.02493,.05574-.02891-.06353,.01673-.00243,.00245,.04279-.01,.08408-.02734,.12722-.03719,.01854-.00423,.03747-.0069,.05598-.01112,.06151-.014-.06913-.0009-.00551,.00235,.02397,.00123,.04866-.00231,.07283-.00195,.0114,.00017,.09101-.00039,.02931-.00161-.05571-.0011-.00246-.00071,.01105,.00233,.02336,.00525,.04673,.01009,.06984,.01644,.01731,.00476,.03443,.01016,.05144,.01585,.0116,.00388,.07954,.03564,.02965,.01002-.0503-.02583,.00392,.00352,.01097,.00779,.02539,.01536,.05171,.02889,.07669,.04506,.01488,.00964,.02916,.02,.04385,.02991-.03024-.02041-.04459-.03889-.00963-.00384,.01226,.0123,.0251,.0239,.0372,.03638,.00743,.00766,.06,.06397,.02093,.01929-.03613-.04131-.0007-.00086,.00518,.00914,.01124,.01914,.02226,.03924,.03436,.05782,.01899,.02917,.01162,.06343-.00484-.01613,.0043,.02079,.01244,.0434,.01906,.06365,.00426,.01303,.00836,.06621,.00326,.00593-.00619-.07307-.00254,.03638-.0026,.04131-.00274,.23545,.20894,.4608,.45,.45,.24616-.01103,.44706-.19768,.45-.45h0Z"/>
      <path class="cls-9" d="M107.14987,22.15628c.003-.00343,.02348-.02123,.0233-.02467,.00051,.00989-.10779,.0704-.04361,.03727,.0294-.01518-.09495,.02518-.06164,.02657,.01085,.00045,.03037-.00739,.04081-.00925l-.11963,.01607c.03469-.00422,.06799-.00374,.10266,.00087l-.11963-.01607c.02616,.00474,.11138,.0359,.0301,.00119-.07528-.03215-.03051-.0136-.01437-.00407,.03937,.02324,.02883,.03953-.04112-.03655,.00725,.00789,.0168,.01623,.02508,.02306,.04138,.03417-.0402-.0436-.03854-.05176l.00885,.01431c.01394,.02727,.01111,.01955-.00846-.02315-.03382-.07868-.01087-.01891-.00653,.00234l-.01607-.11963c.00357,.02751,.00417,.05352,.00197,.08117l.01607-.11963c-.00246,.01688-.00722,.03318-.00988,.04988-.01364,.0856,.01535-.04579,.01926-.04034,.00336,.00469-.02451,.04059-.02697,.04489-.02024,.03528,.07905-.08234,.023-.03386-.01051,.0091-.02204,.01892-.03167,.02891,.07516-.07793,.06571-.04852,.0289-.02784-.0742,.04171,.03711-.00996,.03857-.01448-.0027,.00835-.0569,.01419-.06321,.01534l.11963-.01607c-.04663,.00578-.09135,.00543-.13797-.00071l.11963,.01607c-.01779-.00321-.07771-.00749-.08907-.02251l.06464,.02823c-.01408-.00634-.02787-.01324-.04138-.02072-.02035-.0113-.0386-.02585-.05871-.03728,.10673,.06061,.04437,.03514,.01243,.00207-.07046-.07297,.04503,.08085,.00548,.01064-.01015-.01801-.02018-.04134-.03287-.05701,.03067,.0769,.03795,.09395,.02185,.05117l-.00632-.01941c-.00796-.02618-.01323-.05273-.01753-.07972l.01607,.11963c-.00572-.04773-.00591-.09377-.00019-.14151l-.01607,.11963c.00322-.01981,.00676-.0393,.01212-.05867,.00532-.01925,.02931-.07861-.00264-.00199-.03176,.07617-.00461,.01928,.00414,.00137,.03203-.06558-.07273,.0822-.02197,.02925,.04783-.04989-.08199,.05057-.03708,.02542,.01305-.00731,.0432-.01829,.05287-.03005-.06517,.02594-.08126,.0335-.04827,.02269,.01215-.00401,.02446-.00745,.03694-.01033,.02509-.00615,.05058-.01014,.07611-.01391l-.11963,.01607c.12966-.01536,.25967-.01203,.389,.00485l-.11963-.01607c.06874,.01011,.13675,.02352,.2038,.04186,.03342,.00914,.06655,.01935,.09932,.03062,.01637,.00563,.03264,.01152,.04882,.01767,.04421,.0175,.03238,.01218-.03548-.01597,.05758,.03611,.12484,.05943,.1836,.09493,.0294,.01776,.05821,.0365,.08634,.05622,.01404,.00984,.02791,.01992,.04161,.03023-.0569-.04454-.06716-.05201-.03077-.02242l.09107-.70676c-.03907,.02329-.07881,.04512-.11992,.06462-.07097,.03367,.01149,.00618,.02788-.01063-.01032,.01059-.05611,.021-.07002,.0257-.0869,.02936-.17626,.04919-.26696,.06235l.11963-.01607c-.13326,.01704-.26625,.01729-.39956,.00061l.11963,.01607c-.05781-.00823-.11509-.01893-.17164-.03356-.05567-.0144-.11022-.04186-.16575-.05429,.11634,.02603,.05381,.02332,.01649,.005-.02796-.01372-.05413-.0297-.08124-.04485-.06654-.03717,.07477,.07347,.02134,.01443,.04536,.06469,.05613,.07781,.03231,.03935,.02739,.07492,.03618,.09151,.02638,.04977l.01607,.11963c-.00182-.01789-.0019-.03311-.00004-.05098l-.01607,.11963c.01397-.06682-.05597,.10664-.02292,.04623,.03111-.05687-.06753,.08127-.03303,.04385,.05417-.05875-.03774,.03505-.04104,.02894-.00103-.00191,.04873-.02959,.05082-.03071,.01707-.00911,.07767-.03536,.00227-.00339-.07571,.03211-.01351,.00663,.00491,.00054,.03874-.01282,.07826-.02249,.11826-.03046,.23128-.0461,.3854-.33385,.3143-.55355-.07952-.24572-.30576-.36369-.55355-.3143-.29872,.05955-.60348,.23666-.69959,.542-.06859,.21789,.00391,.4466,.15015,.6136,.11639,.13292,.28378,.20427,.44343,.26838,.52073,.20913,1.15265,.14482,1.63173-.14081,.22917-.13663,.32017-.51795,.09107-.70676-.3582-.29521-.77814-.46723-1.24358-.49328-.23348-.01307-.50182,.0116-.70323,.14044-.24068,.15395-.36161,.39041-.39273,.66786-.05252,.46829,.31207,.92963,.76373,1.03018,.29421,.0655,.57451-.01023,.80082-.20673,.19814-.17204,.29-.44476,.25568-.70018-.07714-.57408-.89032-.86889-1.28955-.4131-.15501,.17697-.18717,.46458,0,.6364,.16986,.15593,.47077,.1891,.6364,0h0Z"/>
      <path class="cls-9" d="M101.30988,19.77475l-.60503-.32658c-.09329-.05036-.20465-.06885-.30822-.04032-.09278,.02555-.19333,.09729-.23905,.18382-.04905,.09283-.07363,.20529-.04032,.30822,.03149,.09731,.09143,.18918,.18382,.23905l.60503,.32658c.09329,.05036,.20465,.06885,.30822,.04032,.09278-.02555,.19333-.09729,.23905-.18382,.04905-.09283,.07363-.20529,.04032-.30822-.03149-.09731-.09143-.18918-.18382-.23905h0Z"/>
      <path class="cls-9" d="M102.52461,19.63492c-.38,.14698-.73772,.38577-.93435,.75472-.20175,.37856-.20815,.82065,.00048,1.19865,.20386,.36934,.62417,.61088,1.04871,.568,.48907-.0494,.88086-.33005,1.16853-.71718,.24426-.32872,.42638-.82759,.27723-1.23195-.17921-.48584-.66407-.65868-1.14412-.55362-.37845,.08283-.72777,.35106-.96481,.6496-.28168,.35477-.5398,.84139-.36659,1.30242,.32836,.87397,1.46559,1.04691,2.2142,.63428,.76064-.41925,1.12107-1.53425,.5436-2.24579-.27926-.34409-.77316-.44261-1.19244-.38627-.39007,.05241-.74759,.22902-1.03311,.50054-.57205,.54402-.86661,1.71417-.02084,2.16484,.38937,.20748,.87113,.30015,1.3065,.2373,.44141-.06373,.76174-.36665,.99463-.72792,.11296-.17523,.23174-.36537,.28812-.56727,.06848-.24522,.02862-.49197-.0813-.71735-.19565-.40117-.63347-.62934-1.05887-.68861-.22539-.03141-.44682-.03586-.67397-.03055-.23515,.0055-.46106,.20304-.45,.45,.01071,.2391,.19788,.4559,.45,.45,.15746-.00368,.31267,.00029,.46991,.00583,.01541,.00054,.08945,.00904,.00672-.00174,.04161,.00542,.08332,.01377,.12415,.02336,.02721,.00639,.0544,.01345,.08118,.02151,.02687,.00804,.05341,.01701,.07965,.02692-.0463-.02048-.04743-.02016-.00338,.00094,.01991,.01167,.04173,.02553,.06255,.03606,.09573,.0484-.05139-.05928,.02427,.01632,.02035,.02033,.04145,.04457,.06347,.06294,.04647,.03878-.04433-.08419,.00513,.00613,.01338,.02444,.08129,.10035,.01706,.01446,.01033,.01381,.01578,.05019,.02021,.06428l.00707,.03278c-.00759-.06435-.01025-.0708-.00796-.01934-.03937,.10156,.04972-.08627-.00919,.02605-.06089,.1161,.05149-.07279-.01895,.04023-.01419,.02276-.02635,.04788-.03961,.0711-.03068,.05374-.06221,.1071-.0946,.15983-.03512,.05717-.07362,.1116-.11079,.16736-.03855,.05783,.07073-.07325-.00817,.00859-.02921,.0303-.05628,.06202-.0872,.09075-.01999,.01857-.08411,.06003-.00623,.00907-.03066,.02006-.06147,.03819-.09307,.05667-.02422,.01416-.07034,.01715-.00045,.00086-.03765,.00877-.0748,.02152-.11257,.0305-.08425,.02004-.01516,.0013,.00351,.0003-.03964,.00211-.07883,.00442-.11857,.00384-.03322-.00049-.06681-.00553-.09991-.00536-.03323-.00333-.02676-.00189,.01941,.00431-.02676-.004-.05343-.00857-.07999-.01371-.12788-.02455-.25213-.06221-.37516-.10432-.11014-.0377,.07682,.04598-.02377-.01097-.01957-.01108-.04099-.02428-.06142-.03425-.09456-.04618,.05489,.06025-.01771-.01359-.03339-.03666-.03155-.03266,.00553,.01201l-.01965-.03357,.01495,.03657c-.00827-.02446-.01494-.04935-.02-.07468,.02334,.08866,.00223,.01496,.00107-.01531-.00109-.02838-.00117-.0567-.00002-.08509l.00183-.03271c.00494-.05093,.00333-.0435-.00486,.02229-.01045-.0402,.02514-.12039,.03695-.15873,.00642-.02085,.01436-.04113,.02083-.06193,.01803-.04638,.01537-.04083-.00799,.01663,.00911-.01993,.01873-.03961,.02883-.05906,.02557-.04907,.05575-.09461,.08496-.14149,.04254-.06827-.00386-.00052-.01113,.01097,.01719-.02712,.04332-.05243,.06495-.07605,.03798-.04147,.07975-.07755,.1199-.11667,.07931-.07726-.07783,.04883,.0143-.01288,.02797-.01873,.05526-.03824,.08395-.05594,.00713-.0044,.14177-.08738,.14813-.07973l-.0457,.01853c.02083-.00845,.04185-.01637,.06307-.02377,.02122-.00737,.04267-.01428,.06424-.0206,.03243-.00949,.06522-.01775,.09829-.02469,.00779-.00163,.11501-.01366,.04054-.00841-.07639,.00538,.03619-.00089,.04195-.00114,.04178-.00183,.08354-.00141,.12528,.00114,.02958,.00181,.1054,.02065,.00769-.00118,.03573,.00798,.07125,.01457,.10642,.02505,.02309,.00688,.04577,.01485,.06831,.02333-.10178-.03827,.00124,.00795,.01964,.01821,.06947,.03876,.00602,.00626-.00681-.007,.01459,.01508,.07512,.09831,.02566,.01991-.00044-.00069,.06206,.10684,.031,.04685-.0117-.03085-.00989-.02518,.00544,.017,.00792,.02418,.01478,.04866,.0206,.07343,.00132,.00555,.01585,.1243,.01088,.05001-.00499-.07457,.0002,.04197,.00029,.04608,.00086,.03555-.00212,.07063-.00257,.10609-.00038,.02977,.01187,.07399,.0035-.01419,.00491,.05174-.02621,.12291-.04232,.17215-.0068,.02079-.0559,.12196-.0069,.02488-.0161,.03191-.03152,.06398-.04944,.09494-.01801,.03109-.03832,.06026-.05788,.09033,.0511-.07855,.01037-.01296-.00752,.00735-.04009,.04552-.08431,.08506-.1293,.12548-.04971,.04466,.08683-.04859-.01104,.00508-.03187,.01748-.06175,.03842-.09395,.05555-.02152,.01145-.04358,.02153-.06543,.03233,.09841-.04862-.04139,.01199-.06397,.01864-.03369,.00991-.20844,.04087-.09644,.02821-.06109,.00691-.12244,.01031-.18394,.00898-.03073-.00067-.06129-.00446-.09193-.0054-.06981-.00215,.10332,.02695-.00783-.00232-.03563-.00938-.07171-.01589-.10712-.02639-.02411-.00715-.12402-.04886-.02683-.00424-.05455-.02504-.10507-.0548-.15546-.08707-.09419-.06032,.0569,.06283-.01891-.01777-.01549-.01646-.03227-.03369-.04853-.04962-.07233-.0709,.02978,.07286-.01071-.01819-.00541-.01216-.03338-.10025-.02083-.03644,.01512,.07687-.00473-.04524-.00632-.04174,.00733,.06665,.00945,.07045,.00636,.01138,.00304-.04753,.00305-.05498,.00002-.02234-.01176,.06671,.02044-.06539,.01954-.06153,.02734-.11707-.03737,.05901,.01811-.04762,.02893-.0556,.05789-.11072,.09161-.16366,.01348-.02116,.02833-.04144,.04176-.0626,.06462-.10189-.05927,.06139,.0214-.02864,.05079-.05669,.1007-.1126,.15684-.16428,.02331-.02145,.04842-.04097,.0717-.06237,.05282-.04857-.08524,.05429,.01484-.01066,.04881-.03168,.09547-.06427,.14729-.09106l.02948-.01466c.04532-.02069,.04011-.0185-.01563,.00656,.00658-.00792,.05828-.01952,.06332-.02101,.01563-.00464,.08181-.0307,.09654-.02314-.06054,.00672-.07358,.00858-.03912,.00558,.0159-.00151,.03185-.00233,.04783-.00244l.0315,.00033c.0508,.00374,.04153,.00186-.02779-.00566-.00117,.00421,.05877,.00978,.05823,.01534l-.0524-.02279c.01786,.00881,.03498,.01888,.05135,.03023l-.0441-.03203c.02613,.02819,.02868,.02995,.00764,.00528l-.01401-.01705c.0237,.04474,.02274,.04058-.00287-.01248-.007,.11508,.01195-.10039,.00642,.01903-.00051,.01098,.00441,.0689-.00122,.07194,.01003-.05938,.01049-.06325,.00137-.01161-.00478,.02369-.01044,.04718-.01697,.07045-.00667,.02398-.01525,.04724-.02252,.07104-.01853,.04832-.01768,.04849,.00257,.00051-.01051,.02365-.02166,.04699-.03343,.07004-.03545,.06941-.07666,.13566-.12248,.19869,.01104-.01518,.05397-.06149-.00262,.00074-.0353,.03881-.07026,.07733-.10858,.11326-.01917,.01798-.03926,.03478-.05885,.05231,.07442-.06656-.0459,.02995-.06484,.04136-.02218,.01336-.04521,.02492-.06766,.0378-.04689,.02214-.04633,.02288,.00167,.00222-.02394,.00923-.04821,.01751-.07281,.02483-.02452,.00725-.04925,.01264-.07411,.01866-.0522,.00943-.04988,.00914,.00695-.00088-.02515,.00157-.05031,.00183-.07549,.00079-.03654,.0011-.06012-.02357,.0069,.00185-.02292-.00488-.04549-.01103-.06771-.01845,.05821,.02701,.06519,.02989,.02094,.00863-.01705-.01061-.03604-.02175-.05345-.03127-.03989-.02792-.03401-.02314,.01763,.01436-.01541-.01359-.03016-.02785-.04427-.04278-.03769-.03275-.02889-.0009,.01132,.01983-.02409-.01242-.04312-.06955-.05701-.09222-.04333-.07071-.01962-.00028,.00142,.00791-.01903-.00741-.02002-.08758-.02959-.10492-.02651-.04804,.0012,.10643,.00099,.01184-.00008-.0339,.00522-.07526,.00078-.10843-.00732-.05465-.03091,.10166,.00065,.01284,.00405-.0114,.04454-.13769,.01973-.07358-.02598,.06712,.01753-.0312,.02066-.03684,.00581-.01044,.07468-.12203,.03888-.0669-.03761,.05793,.02519-.02832,.0296-.03314,.02707-.02961,.05579-.05758,.08575-.08425,.01975-.01757,.08369-.06232,.00337-.00594,.03346-.02349,.06694-.04647,.102-.06754,.02507-.01507,.05051-.0294,.07647-.04288,.02076-.01078,.04178-.02104,.06305-.03079-.05402,.02185-.05753,.02356-.01053,.00512,.21882-.08464,.39435-.30618,.3143-.55355-.06892-.21295-.31849-.40522-.55355-.3143h0Z"/>
      <path class="cls-9" d="M106.61195,21.17607c-.02588-.09545,.00206,.07493-.00189,.02031-.00626-.08673,.00923,.00429-.01097,.02282,.00224-.00206,.01692-.05924,.01704-.06698,.00072-.04424-.04609,.0812-.00568,.01734,.00693-.01269,.01444-.02503,.02252-.03702,.0185-.02755,.00952-.01703-.02696,.03156,.01476-.01006,.0275-.03213,.03999-.04525,.00496-.00522,.06759-.05882,.06745-.0636,.00033,.01146-.07482,.05166-.01607,.01245,.04475-.02986,.09063-.05597,.13751-.08221,.09237-.0517-.08965,.02842,.00955-.00587,.01984-.00686,.03951-.01408,.05958-.02027,.04867-.01502,.09845-.02681,.14843-.03653,.01501-.00297,.03008-.00565,.04519-.00804,.03465-.00555,.02008-.00379-.0437,.0053,.005-.00863,.06748-.00647,.07655-.00711,.05122-.00361,.10255-.00485,.15389-.00372,.02565,.00057,.05127,.00167,.07687,.00341,.01659,.00113,.10557,.01405,.03186,.00115-.07661-.01341,.02349,.00437,.031,.00575,.02499,.0046,.04984,.00992,.07457,.01577,.04913,.01162,.09762,.02566,.1453,.04227,.00951,.0032,.01894,.0066,.02831,.0102,.03172,.0121,.01906,.0063-.03797-.01738,.0158-.00286,.05409,.02505,.0674,.03179,.04405,.02228,.08673,.04704,.12779,.07446,.07714,.05151,.00248-.01298-.00804-.00952,.00816-.00268,.04983,.04279,.05551,.04804,.0245,.02264,.13649,.15337,.05787,.05103,.0747,.09724,.14557,.17283,.26893,.2068,.10772,.02966,.25115,.01627,.34675-.04536,.18375-.11846,.31482-.41601,.16144-.61569-.21696-.28243-.47815-.47641-.8145-.59725-.26949-.09682-.57494-.12648-.85875-.0927-.3591,.04275-.68472,.15715-.96165,.39685-.28535,.24699-.43344,.62576-.33295,.99647,.06157,.22714,.32292,.38893,.55355,.3143,.23279-.07534,.38029-.31011,.3143-.55355h0Z"/>
      <path class="cls-9" d="M105.25744,23.07812c-.0921,.28547,.01945,.55527,.05805,.83638l-.01607-.11963c.00542,.04602,.00714,.09148,.00178,.13757l.01607-.11963c-.00464,.02968-.01206,.05754-.0233,.08543l.04536-.1075c-.01101,.02379-.0239,.04525-.03951,.06627l.07036-.09107c-.01562,.01898-.03236,.03574-.05118,.05151l.09107-.07036c-.03528,.02711-.07355,.04761-.11445,.06488l.1075-.04536c-.09431,.03742-.19408,.0568-.29025,.08845-.15366,.05055-.30965,.12321-.41854,.24729-.07932,.09038-.1318,.19499-.1318,.3182,0,.11037,.04902,.24221,.1318,.3182,.08576,.07872,.19835,.13717,.3182,.1318,.11479-.00514,.23975-.04241,.3182-.1318,.01627-.01854,.0336-.0349,.0529-.05022l-.09107,.07036c.03209-.02342,.0662-.04177,.1026-.05757l-.1075,.04536c.10354-.04217,.21416-.06138,.31925-.09877,.20149-.07169,.37182-.17722,.48829-.36255,.11781-.18748,.11817-.4,.08815-.61011-.0173-.12106-.05431-.2381-.07235-.35902l.01607,.11963c-.00707-.05377-.00968-.10691-.00366-.16091l-.01607,.11963c.00394-.02645,.00975-.05175,.01795-.07719,.07231-.22413-.08441-.50119-.3143-.55355-.24645-.05613-.47613,.07432-.55355,.3143h0Z"/>
      <path class="cls-9" d="M96.96819,57.17457c.88018,.2873,1.7897,.46746,2.71398,.5286,.9761,.06457,1.89951-.12924,2.86612-.15157,.92898-.02147,1.81557,.29898,2.75755,.2356,.88306-.05942,1.72502-.29846,2.51962-.68488,.4629-.22511,.05778-.91523-.40378-.69078-.83496,.40605-1.74629,.61054-2.67568,.58769-.8056-.01981-1.58158-.29503-2.39097-.23682-.83519,.06007-1.64026,.19108-2.48255,.1516-.91948-.04309-1.81777-.22564-2.69162-.51087-.49056-.16012-.70075,.61211-.21267,.77142h0Z"/>
      <path class="cls-9" d="M102.49515,58.18245c-.06169,1.05519-.10542,2.11323-.18882,3.16694-.06538,.82601-.20837,1.70396-.80626,2.32296-.35782,.37045,.20719,.93684,.56569,.56569,.6889-.71322,.91907-1.66107,1.01663-2.6202,.11592-1.13953,.14592-2.29208,.21276-3.43539,.03007-.5143-.77004-.51256-.8,0h0Z"/>
      <path class="cls-9" d="M101.59304,58.40449c.51476,0,.51561-.8,0-.8-.51476,0-.51561,.8,0,.8h0Z"/>
      <path class="cls-9" d="M108.40819,61.05317c-.50279-.43267-1.16756-.43603-1.7218-.07683-.60361,.3912-.77607,1.12685-.75935,1.80422,.04606,1.8657,.57959,3.83121,1.1081,5.60944,1.10404,3.71464,2.8879,7.2092,5.251,10.27984,.30963,.40233,1.00488,.00438,.69078-.40378-1.92792-2.50517-3.48005-5.28874-4.56505-8.25939-.52604-1.44024-.94638-2.9187-1.25691-4.42023-.16418-.79386-.31384-1.59936-.39731-2.40616-.0361-.34897-.07345-.73317,.03954-1.07202,.12673-.38007,.64481-.83407,1.04533-.48941,.3884,.33424,.95674-.22917,.56569-.56569h0Z"/>
      <path class="cls-9" d="M96.83643,103.88153c.45411,.50113,1.13269,.5417,1.7607,.43442,.72264-.12344,1.44395-.4175,2.12208-.68748,1.36982-.54537,2.74065-1.35748,3.38362-2.74833,.21461-.46424-.47473-.87111-.69078-.40378-.53736,1.16239-1.64795,1.86398-2.79553,2.33635-.58979,.24277-1.20252,.46759-1.8176,.63759-.44931,.12419-1.04426,.2546-1.39681-.13445-.34645-.38233-.91084,.18479-.56569,.56569h0Z"/>
      <path class="cls-9" d="M102.03891,102.99399c-.19516,.05168-.3419,.12858-.48623,.27433-.05668,.05724-.11551,.12601-.15669,.19564-.12711,.21496-.05149,.11316-.07384,.38888l-.68284,.28284c1.09469,.88447,2.19442,1.7631,3.28353,2.65443,.97898,.8012,1.92899,1.64667,2.54576,2.7682l.34539-.60189c-2.05756-.08249-4.086-.46883-6.02768-1.15661-.96402-.34147-1.89923-.75776-2.7988-1.24427-.43408-.23477-.85954-.48527-1.27492-.75177-.40328-.25875-1.20488-.62834-1.13919-1.18995,.05969-.51037-.74081-.50609-.8,0-.12024,1.02801,1.1416,1.6437,1.8695,2.09036,1.01369,.62202,2.08317,1.14787,3.18779,1.5877,2.22473,.88583,4.59234,1.36869,6.98331,1.46455,.31252,.01253,.48587-.34644,.34539-.60189-.6177-1.12323-1.54378-1.99942-2.52251-2.80824-1.13407-.93719-2.28752-1.85171-3.43188-2.7763-.2758-.22284-.65355-.0786-.68284,.28284-.03038,.37485,.28158,.67962,.65531,.69328,.17563,.00642,.34981-.06205,.48821-.16531,.19825-.14792,.35148-.55331,.58591-.61538,.49723-.13166,.28633-.90355-.21267-.77142h0Z"/>
      <path class="cls-9" d="M95.37471,104.38324c.01684-.09742,.0445-.1918,.08217-.28319l-.04032,.09555c.04675-.10993,.10689-.21262,.17919-.30768l-.06255,.08096c.07399-.09518,.15865-.18039,.25338-.25495l-.08096,.06255c.08431-.06491,.1747-.12015,.27114-.16513,.08599-.04011,.15957-.15097,.18382-.23905,.02637-.09575,.01446-.22325-.04032-.30822-.05506-.08541-.13706-.16059-.23905-.18382-.11035-.02513-.20593-.00739-.30822,.04032-.48682,.22707-.87779,.71817-.96971,1.25-.01877,.10859-.01721,.20991,.04032,.30822,.04856,.08297,.14369,.1621,.23905,.18382,.1024,.02332,.21733,.01828,.30822-.04032,.08266-.05329,.16638-.13811,.18382-.23905h0Z"/>
      <path class="cls-9" d="M73.86879,83.38981c.51476,0,.51561-.8,0-.8-.51476,0-.51561,.8,0,.8h0Z"/>
      <path class="cls-9" d="M74.24461,84.72174c-.22266,.73177-.35926,1.53998,.19942,2.1595,.26137,.28983,.58147,.48526,.79436,.82131,.23476,.37058,.3414,.81138,.37515,1.24467,.06902,.88611-.17223,1.74429-.33747,2.60579-.08825,.4601-.16549,.92864-.17489,1.39802-.00294,.12357-.00072,.24705,.00667,.37044-.03915,.21135,.01718,.24539,.16899,.10211-.08042-.14524-.29644-.3026-.40779-.43919-1.14103-1.39961-1.9434-3.09252-2.2745-4.86937-.31618-1.69676,.09452-4.04279,2.17489-4.31477,.50326-.06579,.50981-.86665,0-.8-1.47893,.19335-2.61616,1.30043-2.96053,2.74325-.3933,1.6478,.10648,3.47085,.76422,4.98553,.34607,.79694,.77852,1.55453,1.29219,2.25545,.34754,.47422,.85242,1.35237,1.55206,1.24886,.25783-.03815,.45138-.23444,.49931-.49046,.07993-.42689-.02862-.90519,.02549-1.34614,.1102-.89803,.39031-1.76734,.46386-2.67136,.06688-.82209-.03374-1.71289-.47686-2.4266-.21977-.35398-.52515-.57876-.80901-.87198-.42328-.43724-.26339-.96898-.10413-1.49238,.1502-.49363-.62173-.70464-.77142-.21267h0Z"/>
      <path class="cls-9" d="M74.38027,84.61113l.25581,.90362c.02753,.09726,.09637,.18788,.18382,.23905,.08574,.05017,.2121,.07143,.30822,.04032,.20504-.06635,.34044-.27636,.27938-.49205l-.25581-.90362c-.02753-.09726-.09637-.18788-.18382-.23905-.08574-.05017-.2121-.07143-.30822-.04032-.20504,.06635-.34044,.27636-.27938,.49205h0Z"/>
      <path class="cls-9" d="M75.43393,82.51056l7.54345-1.61681c2.06343-.44226,4.42436-.74874,5.95521-2.3553,1.42808-1.49871,1.96347-3.68365,2.63117-5.58327,.85356-2.42838,1.70712-4.85675,2.56068-7.28513,.17106-.48667-.60155-.69595-.77142-.21267-.78582,2.23565-1.57163,4.47129-2.35745,6.70694-.67526,1.92111-1.18252,4.29078-2.62866,5.80844-1.49411,1.56802-3.95986,1.79756-5.9672,2.2278l-7.17845,1.53858c-.50314,.10784-.29022,.87921,.21267,.77142h0Z"/>
      <path class="cls-9" d="M78.08518,86.84266c2.31531-.28804,4.63063-.57608,6.94594-.86411,1.15765-.14402,2.31557-.28604,3.47297-.43206,1.00058-.12623,1.9959-.25963,2.90884-.7167,.88108-.44112,1.65956-1.10574,2.44086-1.6986,.77166-.58554,1.53759-1.17941,2.27879-1.8033,1.51405-1.27443,2.90874-2.68302,4.00435-4.33847,.28495-.43056-.40758-.83168-.69078-.40378-1.03723,1.56725-2.3679,2.89677-3.79704,4.10737-.74204,.62857-1.51006,1.22552-2.28509,1.81264-.75355,.57085-1.5035,1.21194-2.35488,1.63337-.96441,.47739-2.07424,.55388-3.12524,.68463l-3.2249,.4012c-2.19128,.27261-4.38256,.54521-6.57383,.81782-.5042,.06273-.51048,.86351,0,.8h0Z"/>
      <path class="cls-9" d="M103.85743,57.62517l2.0439-.22938c.61457-.06897,1.28262-.07729,1.83258-.39255,.44658-.25599,.04407-.94749-.40378-.69078-.45267,.25948-1.06992,.24305-1.5748,.29971l-1.89791,.213c-.21466,.02409-.4,.1666-.4,.4,0,.19754,.18392,.42425,.4,.4h0Z"/>
      <path class="cls-9" d="M94.61243,64.86901c-.10074,.79066-.15883,1.64696,.33271,2.32886,.40622,.56354,1.05343,.84183,1.73867,.69329,.53591-.11617,.98462-.47242,1.42248-.78132,.37837-.26693,.82965-.5895,1.26297-.50709,.21201,.04032,.43156-.05924,.49205-.27938,.0537-.19542-.06608-.45148-.27938-.49205-1.12105-.21321-1.8398,.69184-2.74445,1.15564-.39842,.20427-.82782,.22238-1.16241-.15064-.47356-.52797-.34432-1.32624-.26264-1.96733,.02735-.21466-.20342-.4-.4-.4-.23888,0-.37257,.1847-.4,.4h0Z"/>
      <path class="cls-9" d="M103.75538,83.14848c-1.72482-6.73214-8.22962-11.09716-9.53765-17.98839-.44703-2.35517-.23761-4.78654,.53717-7.04927,.16714-.48813-.60533-.69774-.77142-.21267-1.27781,3.73181-.95019,7.74253,.75198,11.28107,1.53287,3.1866,3.88674,5.87185,5.78168,8.83502,1.06512,1.66556,1.97396,3.42324,2.46682,5.34691,.12769,.49838,.89948,.28715,.77142-.21267h0Z"/>
      <path class="cls-9" d="M107.96933,69.08589c.44205-1.90454,.95664-3.7913,1.54827-5.65485,.15615-.49185-.61596-.70236-.77142-.21267-.59163,1.86355-1.10622,3.75032-1.54827,5.65485-.11627,.50095,.65488,.71478,.77142,.21267h0Z"/>
      <path class="cls-9" d="M76.76297,87.31634c.04715-.09286,.10264-.17832,.16229-.26346-.0504,.07194,.02442-.02715,.04633-.05144,.03503-.03885,.07163-.07621,.10969-.1121,.03449-.03254,.07042-.06329,.10667-.09382,.08038-.06769-.06675,.04541,.01972-.0149,.01744-.01216,.03464-.02463,.05224-.03656,.08855-.06004,.1816-.11351,.27791-.16011,.01938-.00938,.03897-.01828,.05852-.02729,.09361-.04316-.0476,.01549,.00889-.00342,.05131-.01718,.10129-.03749,.15306-.05357,.09871-.03065,.19885-.05283,.30045-.07126,.10287-.01866-.05369,.00336,.00658-.00132,.02705-.0021,.05401-.00562,.08109-.00764,.05417-.00403,.10852-.00602,.16284-.00588,.04894,.00012,.09786,.00203,.14666,.00563,.02716,.00201,.05419,.00493,.08128,.00759-.0707-.00696-.01564-.00182,.02306,.00491,.20539,.03573,.4409-.05483,.49205-.27938,.04428-.1944-.05894-.45371-.27938-.49205-1.03985-.18087-2.208,.28186-2.70073,1.25228-.09463,.18637-.05516,.44231,.1435,.54728,.18229,.09631,.44614,.05569,.54728-.1435h0Z"/>
      <path class="cls-9" d="M74.52802,83.29111c.51476,0,.51561-.8,0-.8-.51476,0-.51561,.8,0,.8h0Z"/>
      <path class="cls-9" d="M76.9236,85.06047c-.70783-.83077-.57363-2.13575,.24202-2.86691,.16093-.14426,.14689-.4188,0-.56569-.15996-.15996-.40435-.14463-.56569,0-1.14339,1.02496-1.22661,2.84268-.24202,3.99828,.14019,.16454,.42151,.14418,.56569,0,.16303-.16303,.14053-.40074,0-.56569h0Z"/>
      <path class="cls-9" d="M95.65199,103.82395c.51476,0,.51561-.8,0-.8-.51476,0-.51561,.8,0,.8h0Z"/>
      <path class="cls-9" d="M96.55416,103.31733l.76607-.20941c.09694-.0265,.18834-.09716,.23905-.18382,.05017-.08574,.07143-.2121,.04032-.30822-.03132-.09679-.0913-.19017-.18382-.23905-.09536-.05039-.20215-.06932-.30822-.04032l-.76607,.20941c-.09694,.0265-.18834,.09716-.23905,.18382-.05017,.08574-.07143,.2121-.04032,.30822,.03132,.09679,.0913,.19017,.18382,.23905,.09536,.05039,.20215,.06932,.30822,.04032h0Z"/>
      <path class="cls-9" d="M88.09374,79.48357c.51476,0,.51561-.8,0-.8-.51476,0-.51561,.8,0,.8h0Z"/>
      <path class="cls-9" d="M104.42531,83.51155l.97021,.6702c.08162,.05638,.21559,.06583,.30822,.04032,.09278-.02555,.19333-.09729,.23905-.18382,.04905-.09283,.07363-.20529,.04032-.30822-.03346-.10338-.09425-.17718-.18382-.23905l-.97021-.6702c-.08162-.05638-.21559-.06583-.30822-.04032-.09278,.02555-.19333,.09729-.23905,.18382-.04905,.09283-.07363,.20529-.04032,.30822,.03346,.10338,.09425,.17718,.18382,.23905h0Z"/>
      <path class="cls-9" d="M87.83571,79.63357c-.66328,.44289-1.01431,1.3203-.73534,2.08869,.07121,.19615,.27512,.34958,.49205,.27938,.19281-.06239,.35583-.28147,.27938-.49205-.02446-.06738-.0441-.13605-.05739-.20654-.00343-.0182-.0046-.03755-.00925-.05546,.0068,.02617,.01108,.09546,.00549,.02818-.00279-.03359-.00435-.06728-.00461-.10099-.00029-.03747,.00097-.07498,.00373-.11235,.00138-.01871,.00377-.03734,.00532-.05602,.00395-.04778-.0187,.1078-.0032,.02826,.01373-.07045,.02933-.13977,.05175-.20806,.01035-.03152,.02785-.06359,.03508-.09564-.00617,.02737-.03626,.082-.00839,.02293,.00807-.0171,.01642-.03406,.02515-.05083,.03348-.06437,.07374-.123,.11352-.1834,.02586-.03926-.06565,.0788-.01389,.01784,.00984-.01159,.01943-.02337,.02944-.03482,.02505-.02866,.05128-.05632,.07862-.08282,.02751-.02666,.05636-.05155,.08562-.07623,.04108-.03465-.0135,.0137-.02631,.02024,.01912-.00976,.03909-.02757,.05703-.03955,.17374-.11601,.2654-.3582,.1435-.54728-.11166-.17319-.36116-.26777-.54728-.1435h0Z"/>
      <path class="cls-9" d="M112.33931,79.97541c.92716,2.00655-.33364,4.20362-1.4091,5.87581-1.16798,1.81604-2.47495,3.53661-3.7173,5.30125-2.30352,3.27192-4.40358,6.81694-4.81603,10.87626-.05199,.51173,.74837,.50811,.8,0,.44596-4.38919,3.02088-8.13896,5.52749-11.62326,1.27748-1.77576,2.65334-3.53766,3.68753-5.47151,.89043-1.66504,1.44918-3.5639,.61818-5.36232-.21572-.46686-.90551-.06094-.69078,.40378h0Z"/>
      <path class="cls-9" d="M108.26318,35.08401l-.14136-1.21708c-.01273-.10957-.03617-.20186-.11716-.28284-.06938-.06938-.1832-.12162-.28284-.11716-.10345,.00463-.21074,.03861-.28284,.11716-.06695,.07293-.12912,.17984-.11716,.28284l.14136,1.21708c.01273,.10957,.03617,.20186,.11716,.28284,.06938,.06938,.1832,.12162,.28284,.11716,.10345-.00463,.21074-.03861,.28284-.11716,.06695-.07293,.12912-.17984,.11716-.28284h0Z"/>
      <path class="cls-9" d="M91.82026,39.66894c.51476,0,.51561-.8,0-.8-.51476,0-.51561,.8,0,.8h0Z"/>
      <path class="cls-9" d="M103.10557,83.74285c-5.96179,4.81963-3.95325,13.41913-6.29399,19.85864-.17617,.48465,.59664,.69352,.77142,.21267,2.28366-6.28247,.28994-14.81816,6.08825-19.50562,.40045-.32373-.16866-.88665-.56569-.56569h0Z"/>
      <path class="cls-9" d="M103.68569,83.13775l.32494-1.68297c.03954-.2048-.0575-.44151-.27938-.49205-.19766-.04502-.44963,.05969-.49205,.27938l-.32494,1.68297c-.03954,.2048,.0575,.44151,.27938,.49205,.19766,.04502,.44963-.05969,.49205-.27938h0Z"/>
      <path class="cls-9" d="M97.9443,100.61916c.03324,.69095,.20495,1.48461,.94653,1.73129,.39161,.13026,.8531,.05407,1.25669,.03658,.4583-.01986,.9166-.03973,1.3749-.05959,.21589-.00936,.4-.17714,.4-.4,0-.20942-.18314-.4094-.4-.4-.38539,.0167-.77078,.03341-1.15617,.05011-.36147,.01567-.74592,.07099-1.10671,.03563-.05133-.00503-.11385-.01631-.15262-.03211-.00706-.00288-.12639-.08272-.08427-.04719-.02011-.01697-.03848-.03623-.05671-.05516-.08073-.08386,.01391,.02666-.02304-.02804-.03371-.0499-.06408-.10362-.08748-.1592,.02182,.05184-.00898-.03095-.01169-.04026-.00991-.03395-.02095-.06733-.02992-.1016-.01636-.06251-.0293-.12591-.04004-.18961-.00128-.00762-.01189-.08131-.00848-.05411,.00428,.03415-.00628-.06604-.00716-.07573-.00633-.07022-.01045-.14059-.01384-.21101-.01038-.21584-.17641-.4-.4-.4-.20859,0-.41043,.18317-.4,.4h0Z"/>
    </g>
    <g>
      <rect class="cls-2" x="52" y="54.34107" width="96" height="20.33234" rx="8.4" ry="8.4"/>
      <text class="cls-4" transform="translate(100 68.26221)"><tspan text-anchor="middle" x="0" y="0" id="inner-text"></tspan></text>
    </g>
  </g>
</svg>