<?xml version="1.0" encoding="UTF-8"?>
<svg title="Player image" xmlns="http://www.w3.org/2000/svg" xmlns:xlink="http://www.w3.org/1999/xlink" viewBox="0 0 200 110">
<title>Player glyph</title>
  <defs>
    <style>
      @font-face
      {
          font-family: "LondonTubeFont";
          src: local("LondonTubeFont") url("./london-tube-font.ttf") format("ttf");
          /* license: Freeware link: https://www.fontspace.com/london-tube-font-f2717 */
      }

      .cls-1 {
        fill: #fff;
      }

      .cls-2 {
        fill: #ffd300;
      }

      .cls-3 {
        fill: #e3beb1;
      }

      .cls-4 {
        font-family: "LondonTubeFont", Johnston, Helvetica, sans-serif;
        font-size: 12px;
      }

      .cls-5 {
        filter: url(#drop-shadow-2);
      }

      .cls-6 {
        fill: #ffb900;
      }

      .cls-7 {
        fill: #fff0b3;
        filter: url(#drop-shadow-3);
      }

      .cls-7, .cls-8 {
        stroke: #000;
        stroke-miterlimit: 10;
        stroke-width: 2px;
      }

      .cls-9 {
        fill: #f2f2f2;
      }

      .cls-10 {
        fill: #1d1d1b;
      }

      .cls-8 {
        fill: #fff6d9;
        filter: url(#drop-shadow-1);
      }
    </style>
    <filter id="drop-shadow-1" filterUnits="userSpaceOnUse">
      <feOffset dx="2" dy="2"/>
      <feGaussianBlur result="blur" stdDeviation="2"/>
      <feFlood flood-color="#000" flood-opacity=".25"/>
      <feComposite in2="blur" operator="in"/>
      <feComposite in="SourceGraphic"/>
    </filter>
    <filter id="drop-shadow-2" filterUnits="userSpaceOnUse">
      <feOffset dx="2" dy="2"/>
      <feGaussianBlur result="blur-2" stdDeviation="2"/>
      <feFlood flood-color="#000" flood-opacity=".15"/>
      <feComposite in2="blur-2" operator="in"/>
      <feComposite in="SourceGraphic"/>
    </filter>
    <filter id="drop-shadow-3" filterUnits="userSpaceOnUse">
      <feOffset dx="2" dy="2"/>
      <feGaussianBlur result="blur-3" stdDeviation="2"/>
      <feFlood flood-color="#000" flood-opacity=".25"/>
      <feComposite in2="blur-3" operator="in"/>
      <feComposite in="SourceGraphic"/>
    </filter>
  </defs>
  <g id="Layer_3" data-name="Layer 3">
    <g id="selection-arrows">
      <polygon class="cls-10 left" points="21.33975 55.00001 38.66025 46.00001 38.66025 64.00001 21.33975 55.00001"/>
      <polygon class="cls-10 right" points="178.66025 55.00001 161.33975 46.00001 161.33975 64.00001 178.66025 55.00001"/>
    </g>
  </g>
  <g id="Layer_5" data-name="Layer 5">
    <g>
      <circle class="cls-8" cx="100" cy="55" r="33.0885"/>
      <g class="cls-5">
        <g>
          <path class="cls-2" d="M125.44008,34.26816c1.16,.44,2.39,.67,3.63,.66-.52,.91-1.21,1.67-2.03,2.35-.93,.76-1.89,1.46-2.57,2.46l-.03,.06c-.1-.1-.25-.13-.4-.05-.87,.49-1.67,1.11-2.31,1.87-.71,.84-1.17,1.85-1.86,2.69-1.01,1.24-2.39,2.08-3.89,2.51-.09-.06-.21-.06-.33,.01-.61,.35-1.52,.15-2.05-.28-.62-.5-.97-1.28-1.56-1.83-.61-.56-1.33-.99-1.98-1.5-.62-.49-1.36-1.15-1.31-2,.01-.12-.03-.2-.09-.26,.08-.73,.07-1.47-.06-2.22-.22-1.31-.66-2.61-.32-3.94,.12-.44-.57-.64-.69-.19l-.06,.24-.75-.18c.08-1.93-.41-3.85-1.39-5.5-.05-.09-.13-.14-.21-.16l.09-.49c.76,.15,1.53,.24,2.2,.65,1.3,.79,1.63,2.52,2.1,3.84,1.01,2.8,2.88,5.2,5.32,6.85-.18,.23,.01,.68,.38,.57,.49-.13,.97-.3,1.44-.5-1.06,.82-2.02,1.76-2.86,2.81-.12,.15-.15,.36,0,.5,.13,.13,.39,.16,.51,0,1.22-1.51,2.69-2.81,4.36-3.83,.24-.15,.2-.45,.03-.6,.55-.38,1.06-.82,1.51-1.31,.6-.65,1.08-1.39,1.43-2.22,.42-.97,1.01-2.02,2.22-1.97,.43,.01,.47-.6,.1-.7,.88-1.35,2.08-2.46,3.46-3.29,.05,.57,.28,1.11,.67,1.56,.13,.15,.28,.28,.43,.4,.08,.06,.23,.12,.29,.19,.07,.09,.02,.2,0,.33-.09,.56-.18,1.13-.28,1.69-.04,.28,.19,.46,.4,.46l.01,.26c-1.15,0-2.28-.22-3.36-.64-.43-.16-.62,.53-.19,.7Zm1.09,2.49c.05-.19-.07-.38-.26-.44-1.06-.31-1.98-1.03-2.46-2.04-.09-.18-.34-.22-.5-.13-.18,.1-.21,.32-.13,.49,.56,1.17,1.67,2.01,2.9,2.38,.19,.05,.39-.07,.45-.26Zm-4.93,2.76c.19-.01,.37-.16,.36-.36-.02-.37-.04-.74-.06-1.1-.01-.19-.16-.37-.36-.36-.18,.01-.37,.16-.36,.36,.02,.36,.04,.73,.06,1.1,.01,.19,.16,.37,.36,.36Z"/>
          <path class="cls-2" d="M113.53008,83.30816c.01,1.9-.05,3.79-.21,5.69l-.8-.06c0-.22-.18-.44-.45-.36-1.38,.41-2.79,.64-4.2,.71h-.01c-.09-.04-.2-.03-.29,.02-1.61,.06-3.23-.09-4.82-.41,.37-1.52,.77-3.03,1.21-4.53,.13-.45-.57-.64-.69-.19-.44,1.51-.85,3.04-1.22,4.57-.97-.22-1.94-.51-2.88-.85-1.44-.52-2.84-1.17-4.18-1.91,.17-.79,.32-1.57,.47-2.35,.09-.46-.61-.65-.69-.19-.14,.72-.28,1.45-.44,2.17-.28-.15-.56-.31-.83-.48-1.69-1.02-3.35-2.14-4.82-3.48-1.56-1.43-2.87-3.15-3.41-5.24-.09-.35-.54-.3-.67-.05l-.48-.36c1.77-2.3,3.16-4.88,4.1-7.62-.36,2.26-.57,4.54-.63,6.83-.02,.47,.7,.47,.72,0,.08-3.11,.44-6.2,1.09-9.25,.06-.26-.15-.43-.35-.44,.34-1.48,.56-2.99,.65-4.52,.01-.11-.03-.2-.09-.25,.18,.04,.39-.05,.43-.25,.04-.17,.09-.35,.14-.51,.03-.09,.07-.17,.1-.25v-.01l.03-.06c.02-.04,.04-.09,.06-.13,.03-.05,.06-.11,.09-.16,.01,.01,.03,.02,.05,.02,.2,.04,.39-.06,.44-.25,.05-.15,.09-.29,.15-.42,.01-.01,.01-.03,.02-.05q0-.01,.01-.02v-.01c.01-.02,.02-.05,.03-.07,.03-.06,.06-.12,.09-.19,.13-.26,.29-.5,.46-.74,.06-.07,.06-.2,.04-.28-.01-.05-.04-.1-.08-.13v-.01c.09-.19,.19-.37,.3-.55,.01,.02,.02,.03,.04,.04,2.45,1.6,5.28,1.95,8.05,1.52,.52,.51,1.35,.54,2.01,.19,.4-.21,.69-.54,.9-.92,.51-.18,1.02-.38,1.51-.6,.25-.11,.22-.38,.08-.54l.18-.01c.06,.15,.21,.26,.37,.24,0,.24,.01,.49,.04,.74,.01,.1,.03,.18,.11,.25,.06,.06,.15,.11,.24,.11-.12,2.04,.79,4,1.55,5.86,.88,2.16,1.81,4.3,3.06,6.28,.59,.93,1.25,1.82,1.79,2.79,.57,1.03,.91,2.14,1.11,3.29,.42,2.41,.49,4.93,.52,7.38Zm-6.22,.43c.17,.43,.87,.24,.69-.19-.62-1.57-1.45-3.05-2.51-4.37-.49-.62-1.04-1.17-1.58-1.73-.55-.56-1.09-1.19-1.2-2-.05-.45-.77-.46-.72,0,.21,1.62,1.56,2.56,2.56,3.71,1.17,1.35,2.1,2.92,2.76,4.58Zm-6.26-14.54c.27,.37,.89,.01,.62-.36-1.37-1.84-1.98-4.18-1.62-6.45,.07-.45-.63-.65-.7-.19-.38,2.45,.21,5,1.7,7Z"/>
          <path class="cls-2" d="M112.67008,96.02816c.11,.45,.81,.26,.7-.19-.05-.2-.08-.41-.1-.61,.13,.44,.34,.84,.62,1.2-.79,.1-1.57,.27-2.32,.53-.05,0-.1,.02-.14,.05h-.01c-.46,.16-.91,.34-1.35,.56-.15,.07-.2,.2-.18,.33-.47,.25-.93,.51-1.4,.76-.1,.05-.16,.16-.18,.27-2.2-1.25-4.77-1.37-7.23-1.67-3.04-.37-6.04-1.04-8.96-1.97-.05-.02-.1-.02-.14-.01-.19-.03-.39-.07-.57-.13l.24-.84c.05-.02,.1-.06,.14-.12,1.59-2.23,2.43-4.82,3.03-7.47,2.23,1.2,4.59,2.15,7.05,2.72-.47,1.97-.89,3.95-1.26,5.94-.08,.45,.62,.65,.7,.19,.37-2.01,.79-4,1.26-5.98,.67,.15,1.35,.25,2.04,.33,.91,.1,1.82,.14,2.73,.12-.09,2.24,.39,4.64-.66,6.71-.21,.41,.41,.78,.62,.36,1.14-2.22,.65-4.71,.75-7.1,1.42-.08,2.84-.32,4.21-.73,.18-.06,.26-.2,.26-.34l.8,.06c-.06,.96-.16,1.91-.27,2.87-.02,.23,.14,.34,.32,.34l-.13,.52c-.17,0-.29,.11-.35,.26-.4,.96-.46,2.03-.22,3.04Z"/>
          <path class="cls-3" d="M107.58008,12.88816c.35,.96,.69,1.91,1.03,2.87-.07,.03-.13,.08-.16,.14-.04,.08-.06,.15-.04,.24,0,.04,.01,.07,.01,.1,.01,.08,.01,.16,0,.23,0,.02-.01,.05-.01,.07-.02,.08-.04,.16-.06,.23,0,.01-.01,.02-.01,.03s-.01,.02-.02,.03c0,.01-.01,.01,0,.02-.03,.05-.04,.1-.04,.15v.01c-.13,.27-.26,.55-.39,.83-.02,.05-.04,.1-.04,.14-.03-.02-.06-.02-.09-.02-.05,0-.09,.01-.13,.03,.07-.28,.06-.57-.01-.85,.01-.07,.01-.14-.01-.2,.03-.05,.04-.1,.04-.15,0-.21-.17-.35-.36-.36-.88-.05-1.77,.02-2.62,.23-.19,.05-.31,.26-.26,.45,.05,.15,.18,.24,.32,.25-.11,.14-.12,.37,.02,.49,.54,.48,1.23,.67,1.91,.83,.05,.01,.11,.01,.16,0h.01c.01,.01,.02,.02,.04,.03,.19,.1,.38,.04,.5-.13,.01-.02,.02-.03,.03-.05,.04,.61,.55,1.06,.94,1.51,.08,.1,.16,.21,.21,.33s.07,.18,.05,.3c0-.02-.02,.08-.02,.09-.01,.03-.03,.05-.04,.07l-.03,.05c-.01,.01-.02,.02-.03,.04,0,0-.01,0-.02,.01-.01,0-.02,.01-.03,.01v.01c-.02,0-.03,0-.02,0-.18-.02-.37,.06-.43,.25-.02,.08-.01,.17,.03,.24-.02,0-.03,0-.05,.01-.51,.21-1.02,.41-1.53,.62-.19,.08-.36,.19-.39,.41-.03,.23,.13,.39,.29,.52,.18,.13,.35,.26,.53,.38-.13,.25-.2,.52-.2,.8,0,.2,.03,.39,.1,.57-.03,.01-.06,0-.09,0-.09-.01-.18,.04-.25,.11-.01-.01-.02-.01-.03-.01-.61-.06-1.23-.13-1.85-.19-.08-.01-.16,.02-.22,.08,.04-.16-.03-.34-.24-.4-.94-.25-1.95-.64-2.38-1.59-.51-1.11-.05-2.42,.37-3.49,.44-1.11,.9-2.24,1.48-3.32,.02,.04,.06,.08,.1,.1,.18,.1,.39,.03,.5-.13l.04-.04s.05-.03,.06-.04l.06-.03,.01-.01c.04-.01,.07-.02,.1-.03,.08-.02,.16-.03,.23-.04,0,0,.01,0,.03-.01,.04,0,.07-.01,.11-.01,.05-.01,.11-.01,.17-.02,.48-.06,.96-.12,1.43-.17,.2-.03,.36-.15,.36-.36,0-.18-.16-.39-.36-.36-.54,.06-1.08,.13-1.63,.19-.28,.03-.55,.08-.79,.2,.4-.69,.86-1.35,1.4-1.94,.11-.12,.12-.26,.07-.38l.25-.1c.06,.19,.25,.3,.44,.25,.5-.13,.99-.26,1.49-.39-.05,.08-.07,.18-.04,.27Z"/>
          <path class="cls-2" d="M107.78008,38.24816c.29,1.43,.26,2.71-.12,4.12-.35,1.34-.75,2.64-.94,4.02-.2,1.37-.28,2.76-.35,4.15v.01c-.18,.19-.34,.4-.49,.63-.05,0-.11,.02-.15,.05-.52,.31-.95,.77-1.19,1.32-.04,.09-.06,.18-.04,.28,.03,.08,.09,.17,.17,.21,.08,.05,.18,.07,.28,.04,.08-.03,.18-.08,.21-.17,.06-.12,.12-.23,.19-.34l.09-.15c.01-.01,.02-.01,.02-.02l.01-.01c.03-.03,.05-.05,.07-.08,.02-.02,.04-.04,.06-.05l.03,.03c-.02,.03-.04,.07-.05,.11-.23,.83-.46,1.65-.69,2.47-.07,.27,.15,.45,.37,.45-.12,.24-.27,.47-.45,.67-.11,.12-.12,.27-.07,.38l-.18,.01c-.11-.1-.27-.16-.44-.08-.26,.12-.52,.23-.79,.33,.06-.2,.1-.4,.14-.59,.1-.56,.19-1.13,.2-1.71,0-.23,.01-.47-.02-.72-.03-.27-.09-.53-.22-.76-.25-.41-.83-.62-1.25-.33-.33,.23-.32,.52-.27,.84-1.42,.21-2.8,.66-4.22,.93-1.62,.3-3.49,.3-4.83-.79-.33-.26-.78,.13-.58,.43-.04-.01-.07-.04-.11-.06l-.01-.01c0-.01-.01-.01-.01-.01l-.03-.03c-.03-.02-.06-.05-.08-.07-.06-.05-.11-.11-.16-.17l-.03-.03c-.01-.01-.01-.02-.01-.02-.02-.02-.04-.05-.05-.07-.05-.06-.09-.12-.12-.19-.02-.03-.04-.07-.05-.1-.01-.01-.02-.03-.02-.04,0,0,0-.01-.01-.02s-.01-.02-.01-.02c-.01-.02-.01-.03-.02-.05-.01-.04-.02-.07-.03-.11-.03-.07-.04-.15-.06-.23-.03-.18-.27-.31-.44-.25-.04,.01-.07,.03-.1,.04-.02-.1-.08-.18-.17-.22l.05-.07c.19,.11,.45,.07,.49-.2,.17-1.17,.33-2.34,.5-3.51,.15-1.02,.45-2.14,.26-3.16-.29-1.53-2.06-2.6-1.87-4.21,.02-.15-.05-.25-.15-.3,.63-.13,1.26-.3,1.79-.65,.74-.48,1.25-1.21,1.74-1.93,.25-.39-.37-.75-.63-.36-.49,.73-1.02,1.5-1.85,1.88-.47,.22-1,.3-1.5,.41-.53,.11-1.06,.2-1.6,.27-1.43,.19-2.58,1.22-3.14,2.51-.01-.2-.03-.4-.07-.6-.03-.19-.27-.31-.44-.25-.2,.06-.29,.24-.25,.44,0,.04,.01,.08,.02,.12v.04c.01,.08,.02,.15,.02,.23,.02,.14,.02,.29,.02,.44-.01,.14-.02,.29-.03,.43,0,.01,0,.03-.01,.05,0,.03-.01,.07-.01,.1-.02,.08-.03,.16-.05,.24-.04,.19,.06,.4,.25,.45,.03,.01,.05,.01,.08,.01l-.02,.13c-.14,0-.28,.08-.34,.25-.49,1.48-.33,3.04-.01,4.54,.17,.79,.37,1.57,.53,2.36,.15,.77,.29,1.6-.03,2.34-.1,.23,.04,.45,.22,.52l-.16,.2c-.08,0-.16,.02-.23,.08-.59,.46-.99,1.1-1.34,1.74s-.67,1.44-1.25,1.91c-.6,.49-1.54,.35-2.14-.09-.61-.45-.89-1.31-.58-2.02,.14-.33-.21-.63-.45-.53,0-.01,.01-.01,.01-.02,.22-.04,.3-.28,.24-.47v-.01c.89-1.91,.95-4,.33-6.03-.72-2.36-2.18-4.71-1.69-7.26,.01-.06,.01-.11-.01-.16,.2,.06,.46-.05,.47-.32,.05-1.45,1.02-2.59,2.11-3.46,1.22-.97,2.57-1.79,3.85-2.66l3.9-2.64c1.19-.81,2.41-1.84,3.86-2.11,.25-.04,.3-.26,.23-.44h.02c.03,.27,.46,.43,.68,.14,1.64-2.28,4.91-1.43,7.27-1.58,1.27-.08,2.58-.52,3.49-1.36,.02,.03,.04,.06,.08,.09,.55,.45,1.19,.62,1.85,.73l-.09,.49c-.12-.03-.25,.01-.36,.09-.12,.09-.24,.19-.36,.28-.1,.08-.13,.21-.09,.33-.38,.08-.35,.7,.09,.7,.26,0,.37-.23,.34-.43,.06-.02,.11-.05,.16-.08,.8,1.46,1.17,3.1,1.1,4.77-.01,.46,.71,.46,.72,0l.75,.18c-.23,1.14,.02,2.27,.25,3.4Zm-2.69,5.76c.12-.16,.15-.36,0-.51-.12-.13-.39-.16-.51,0-.92,1.17-1.66,2.46-2.17,3.86-.07,.19,.07,.4,.25,.45,.2,.05,.37-.07,.44-.25,.47-1.28,1.15-2.49,1.99-3.55Zm-1.33-7.5c.26-1.97,.35-3.95,.27-5.93-.02-.46-.74-.47-.72,0,.08,1.98-.01,3.96-.27,5.93-.02,.2,.19,.36,.36,.36,.22,0,.34-.17,.36-.36Zm-.95-2.28c.07-.18-.08-.4-.25-.45-.21-.05-.37,.07-.45,.26-.3,.77-.79,1.49-1.39,2.1-.11-.16-.2-.34-.26-.52-.07-.18-.25-.3-.45-.25-.17,.05-.31,.26-.25,.45,.15,.41,.37,.79,.66,1.12,.13,.16,.37,.13,.51,0,.83-.74,1.47-1.68,1.88-2.71Zm-.51,9.31c.03-.28-.32-.43-.54-.31-.02,.01-.04,.02-.06,.04-.11-.02-.22,.01-.29,.09-.1,.1-.18,.21-.26,.32-.02,0-.04,0-.06,.01-.15-2.23-.92-4.35-1.74-6.42-.97-2.5-1.95-5-2.93-7.49-.17-.43-.87-.24-.7,.19,.96,2.43,1.91,4.86,2.86,7.3,.89,2.26,1.78,4.57,1.82,7.03,0,.12,.06,.22,.15,.28-.05,.12-.09,.25-.12,.38-.07,.28,.26,.58,.53,.4,.04-.02,.07-.05,.1-.08,.13,.07,.29,.05,.41-.06,.5-.45,.77-1.02,.83-1.68Zm-7.03-8.65c.13,.45,.83,.26,.7-.19-.3-1.04-.47-2.11-.52-3.2-.02-.46-.74-.46-.72,0,.05,1.15,.23,2.29,.54,3.39Zm-11.53,18.41c.18-.04,.32-.26,.25-.44-.39-1.09-.99-2.09-1.77-2.95-.13-.14-.37-.13-.5,0-.15,.14-.13,.37,0,.51,.69,.76,1.23,1.66,1.58,2.63,.07,.19,.25,.31,.44,.25Z"/>
          <path class="cls-9" d="M107.02008,12.03816c-.36,.09-.72,.19-1.08,.28-.18,.05-.31,.26-.25,.44l-.25,.1c-.1-.22-.38-.35-.58-.13-.89,.99-1.58,2.12-2.16,3.31-.59,1.22-1.17,2.49-1.6,3.77-.37,1.14-.56,2.49,.11,3.57,.33,.52,.8,.89,1.33,1.16-1.44,.93-3.21,.66-4.83,.47-1.59-.17-3.33-.22-4.68,.77-.37,.28-.01,.9,.36,.63,1.44-1.06,3.27-.79,4.92-.61,1.6,.18,3.32,.25,4.7-.71,.1-.08,.15-.18,.16-.28,.23,.08,.48,.16,.72,.22,.12,.03,.23,0,.3-.07-.01,.02-.01,.04-.01,.06,0,.04,.01,.07,.02,.1-.19-.03-.42,.09-.45,.34-.11,1.16-1.02,2.03-2.05,2.48-1.23,.54-2.64,.43-3.95,.39-2.11-.08-4.45,.08-5.79,1.95-.05,.08-.07,.15-.06,.22h-.02c-.05-.16-.21-.29-.42-.25-.42,.08-.83,.22-1.22,.4,.6-1.6,1.08-3.24,1.36-4.92,.27-1.55,.41-3.11,.58-4.67,.38-3.29,.65-7.1,3.68-9.1,.22-.15,.19-.41,.06-.57l.2-.05c.1,.11,.26,.17,.43,.07,1.99-1.14,4.24-1.76,6.54-1.69,.55,.01,1.17,.01,1.66,.28,.35,.21,.63,.54,.89,.85,.41,.46,.82,.96,1.38,1.19Zm-8.76,8.71c.39,.27,.75-.36,.37-.62-2.26-1.55-3.17-4.67-2.45-7.26,.13-.44-.57-.63-.69-.19-.82,2.91,.25,6.34,2.77,8.07Z"/>
          <path class="cls-6" d="M102.96008,53.97816c0,.14-.01,.27-.01,.35-.01,.53-.09,1.05-.19,1.57-.07,.35-.15,.71-.3,1.04-.68,.22-1.37,.4-2.07,.53-.18-.38-.11-.87,0-1.31,.23-.43,.46-.85,.69-1.27,.08-.16,.04-.4-.13-.49-.09-.05-.19-.06-.28-.04l-.01-.03c.45-.11,.9-.2,1.35-.26,.13,.28,.61,.26,.67-.07,.09-.01,.19-.02,.28-.02Z"/>
          <path class="cls-6" d="M100.66008,54.32816l.01,.03c-.09,.02-.17,.08-.22,.17-.12,.23-.25,.47-.37,.7-.1,.02-.19,.1-.23,.22-.05,.14-.09,.29-.13,.44-.06,.12-.13,.23-.19,.35-.08,.14-.06,.33,.05,.43-.02,.31,0,.62,.09,.91-2.52,.34-5.08-.03-7.3-1.47-.16-.11-.31-.06-.41,.04-.02-.02-.04-.04-.06-.05-.08-.04-.16-.06-.24-.04,.06-.42,.14-.84,.22-1.25,.02-.1,.02-.19-.04-.28-.01-.02-.02-.04-.05-.06,.06,.05,.12,.09,.19,.13,.16,.09,.4,.04,.49-.13,.07-.13,.06-.28-.02-.39,2.46,1.92,5.39,.86,8.21,.25Z"/>
          <path class="cls-2" d="M94.17008,86.35816c-.6,2.64-1.41,5.24-3,7.47-.23,.32,.18,.63,.48,.48l-.24,.84q-.01-.01-.02-.01c-.06-.02-.11-.04-.16-.06-.02-.01-.04-.02-.06-.02-.01,0-.02-.01-.02-.01-.1-.05-.19-.1-.29-.15-.13-.07-.32-.05-.43,.06l-.24-.11c.05-.12,.05-.27-.06-.39-2.04-2.37-4.11-4.79-5.47-7.63-1.31-2.76-1.81-5.82-3.15-8.57,.12-.1,.24-.2,.35-.31,.1,.18,.35,.27,.54,.07,.61-.64,1.18-1.31,1.72-2.01l.48,.36c-.03,.07-.05,.16-.02,.25,1.01,3.89,4.4,6.49,7.62,8.56,.64,.41,1.3,.81,1.97,1.18Z"/>
          <path class="cls-9" d="M89.57008,40.91816c-.06,.05-.09,.12-.1,.2-.13,1.09,.5,1.89,1.07,2.72-.58,.66-1.1,1.37-1.55,2.11-.22-.62-.36-1.27-.49-1.91-.19-.87-.33-1.76-.45-2.64-.01-.09-.06-.16-.14-.2,.4-.08,.81-.13,1.24-.21,.14-.03,.28-.05,.42-.07Z"/>
          <path class="cls-3" d="M83.42008,85.70816l-.13,.06c-.06-.18-.25-.3-.44-.24-.89,.26-1.79,.5-2.68,.74-.19,.05-.31,.25-.25,.44,.02,.08,.07,.14,.13,.19l-.12,.03c-.06-.07-.16-.12-.26-.11-.98,.07-1.67,1.02-1.66,1.96,0,.09,.04,.18,.1,.25v.01h-.01c-.13-.17-.43-.22-.59,.02-.11,.16-.2,.32-.3,.48-.18-1.82-.68-3.64-.28-5.45,.1-.45-.59-.64-.69-.19-.51,2.26,.32,4.49,.32,6.76,0,.1,.03,.17,.09,.23-.27,.8-.46,1.63-.69,2.44-.09,.35-.2,.7-.33,1.04-.05,.13-.11,.27-.17,.41-.03,.17-.07,.19-.12,.07-.11-.05-.26-.4-.32-.52-.41-.66-.74-1.38-.99-2.11-.53-1.53-.79-3.14-.84-4.75-.04-1.37-.07-2.96,.56-4.23,.32,.02,.63,.02,.94,.04,.2,.01,.36-.17,.36-.36,0-.14-.08-.26-.2-.32,.47-.16,.96-.25,1.46-.26-.2,.21-.12,.63,.24,.6,1.93-.17,3.6-1.17,5.12-2.3,.02-.01,.03-.02,.04-.04,.61,1.69,1.07,3.43,1.71,5.11Z"/>
          <polygon class="cls-3" points="105.65347 97.94734 108.02943 99.18046 111.89074 97.30152 110.3801 101.6552 111.89074 104.05721 105.36327 103.41049 105.95932 102.09783 105.65347 99.77365 105.65347 97.94734"/>
          <polygon class="cls-3" points="79.24096 58.78578 79.25412 61.20592 79.17709 62.45082 79.94569 62.75167 83.27543 62.29477 83.64742 57.25063 81.88555 59.05856 80.14349 59.3231 79.24096 58.78578"/>
          <polygon class="cls-3" points="123.59023 32.45151 125.44582 33.91863 128.9818 34.70641 129.17766 32.00765 128.32468 30.64816 127.42884 28.67621 125.14031 30.57585 123.59023 32.45151"/>
          <polygon class="cls-9" points="73.17197 83.64671 74.63834 82.28927 76.40911 81.9646 76.43387 85.87333 76.92165 91.187 75.61592 95.20892 75.09317 95.11208 73.17197 90.65743 72.8211 85.57816 73.17197 83.64671"/>
          <polygon class="cls-1" points="105.1152 17.06924 107.02008 16.60909 106.63926 17.51359 106.578 18.32773 105.29851 17.81217 104.76209 17.24633 105.1152 17.06924"/>
          <polygon class="cls-9" points="105.65347 103.49051 105.06011 105.95998 110.24734 107.68261 116.7369 108.64178 117.27205 107.78066 114.85319 104.67408 110.93125 102.34695 111.63714 104.05721 109.26986 104.0264 105.65347 103.49051"/>
        </g>
        <g>
          <path class="cls-10" d="M104.86065,12.72942c-.89087,.98647-1.57758,2.11997-2.15943,3.31096-.59336,1.21457-1.17327,2.48363-1.59614,3.76886-.37565,1.14173-.56877,2.49114,.10675,3.56504,.59206,.94123,1.64015,1.38446,2.67384,1.65715,.44844,.1183,.63975-.57601,.1914-.69428-.9415-.24837-1.94912-.63926-2.37986-1.58585-.50811-1.11662-.04925-2.42608,.3751-3.49395,.83786-2.10847,1.75971-4.31605,3.29745-6.01883,.30988-.34313-.19776-.85389-.50912-.50912h0Z"/>
          <path class="cls-10" d="M103.75406,25.45602c-.11822,1.16354-1.02659,2.03475-2.05631,2.48426-1.23153,.53761-2.63955,.42977-3.94884,.38356-2.10967-.07446-4.44543,.08768-5.78717,1.95232-.27106,.37669,.35321,.73653,.6217,.3634,1.64027-2.2795,4.90407-1.43328,7.26492-1.58095,2.11776-.13247,4.38865-1.26954,4.62569-3.60259,.04679-.46056-.67354-.4573-.72,0h0Z"/>
          <path class="cls-10" d="M106.13075,13.01189l1.48686-.38883c.1822-.04765,.31077-.25949,.25144-.44284-.06071-.18759-.24759-.3025-.44284-.25144-.49562,.12961-.99124,.25922-1.48686,.38883-.1822,.04765-.31077,.25949-.25144,.44284,.06071,.18759,.24759,.3025,.44284,.25144h0Z"/>
          <path class="cls-10" d="M95.48759,12.68134c-.81409,2.91041,.25193,6.33754,2.77747,8.07066,.383,.26283,.7435-.36086,.3634-.6217-2.25811-1.54959-3.16928-4.67389-2.44659-7.25755,.12502-.44694-.56945-.63769-.69428-.1914h0Z"/>
          <path class="cls-10" d="M96.55092,11.40919c1.9883-1.14535,4.24392-1.75824,6.54347-1.69439,.54123,.01503,1.16984,.01021,1.65188,.28572,.35785,.20453,.63185,.53601,.89777,.84329,.49432,.57121,.99676,1.18898,1.7839,1.32213,.45323,.07666,.64801-.61705,.1914-.69428-.88629-.14991-1.34541-1.08998-1.95013-1.66054-.7741-.73036-1.74314-.80782-2.76624-.82013-2.35813-.02838-4.67719,.62237-6.71545,1.7965-.4014,.23122-.03922,.85362,.3634,.6217h0Z"/>
          <path class="cls-10" d="M95.49557,11.33294c-3.02532,1.9983-3.51738,5.48591-3.92481,8.81722-.20985,1.71584-.3433,3.44308-.62339,5.1497-.30489,1.85774-.82246,3.6586-1.48955,5.41769-.16446,.43369,.5313,.62118,.69428,.1914,.63884-1.6846,1.14422-3.40848,1.45056-5.18518,.26655-1.54595,.40621-3.11005,.58196-4.66791,.37079-3.28676,.64779-7.1021,3.67436-9.10123,.38496-.25427,.02473-.87807-.3634-.6217h0Z"/>
          <path class="cls-10" d="M104.53635,25.37474l1.85867,.19345c.18792,.01956,.36808-.17954,.36-.36-.00948-.21176-.15869-.33905-.36-.36l-1.85867-.19345c-.18792-.01956-.36808,.17954-.36,.36,.00948,.21176,.15869,.33905,.36,.36h0Z"/>
          <path class="cls-10" d="M107.40113,18.31539c-.06614,.73032,.51241,1.21855,.9355,1.72409,.08253,.09862,.1609,.20952,.21225,.32792,.05224,.12045,.07013,.18217,.05025,.31068,.00862-.05572-.04026,.12353-.02338,.08168-.00947,.02348-.02248,.04655-.03508,.06848-.0014,.00245-.06365,.0876-.03033,.04885-.01547,.01799-.03268,.03589-.05073,.05132,.04033-.03447-.01434,.00871-.02636,.01427-.02894,.01337,.03413,.0021-.02426,.00633,.07243-.00525-.05227-.01113,.01854,.00084-.19149-.03237-.38766,.05061-.44284,.25144-.04747,.17277,.05866,.41025,.25144,.44284,.38848,.06568,.73004-.11086,.92624-.45249,.19869-.34597,.19969-.74221,.04528-1.10311-.15043-.35158-.4195-.62615-.67494-.90364-.22664-.24621-.44279-.52499-.41159-.86951,.01756-.1939-.17803-.36-.36-.36-.20933,0-.34239,.16555-.36,.36h0Z"/>
          <path class="cls-10" d="M107.27641,18.17217c.46329,0,.46405-.72,0-.72-.46329,0-.46405,.72,0,.72h0Z"/>
          <path class="cls-10" d="M107.58106,12.88653l1.06429,2.97215c.06552,.18296,.24528,.30573,.44284,.25144,.17691-.04862,.3173-.25892,.25144-.44284l-1.06429-2.97215c-.06552-.18296-.24528-.30573-.44284-.25144-.17691,.04862-.3173,.25892-.25144,.44284h0Z"/>
          <path class="cls-10" d="M108.4099,16.71395l-.52079,1.12044c-.04172,.08977-.0635,.17861-.03629,.2774,.023,.08351,.08756,.174,.16544,.21515,.15907,.08405,.40781,.05316,.49255-.12915l.52079-1.12044c.04172-.08977,.0635-.17861,.03629-.2774-.023-.08351-.08756-.174-.16544-.21515-.15907-.08405-.40781-.05316-.49255,.12915h0Z"/>
          <path class="cls-10" d="M107.27641,17.42924c.46329,0,.46405-.72,0-.72-.46329,0-.46405,.72,0,.72h0Z"/>
          <path class="cls-10" d="M104.14624,15.90922c-.02943,.04285,.04622-.0486,.05936-.05967-.04837,.04076,.02844-.01606,.04051-.02295,.02029-.01149,.04101-.02214,.06217-.03196-.03197,.01309-.02777,.01197,.01261-.00337,.0345-.01043,.06852-.02198,.10343-.0311,.08213-.02147,.16597-.03615,.24997-.04806-.03621,.00485-.03261,.00453,.01079-.00097,.03353-.00403,.06706-.00807,.10058-.0121,.05867-.00706,.11735-.01412,.17602-.02118,.47778-.05748,.95556-.11496,1.43333-.17244,.193-.02322,.36-.14884,.36-.36,0-.17654-.16566-.38338-.36-.36-.54483,.06555-1.08967,.13109-1.6345,.19664-.478,.05751-.94432,.13904-1.23598,.56375-.11012,.16035-.03001,.39946,.12915,.49255,.17838,.10433,.38218,.03157,.49255-.12915h0Z"/>
          <path class="cls-10" d="M104.85779,17.35696c.79555-.19635,1.60722-.25965,2.4284-.21002,.19428,.01174,.36-.17386,.36-.36,0-.20467-.16514-.34822-.36-.36-.8777-.05305-1.76582,.02496-2.6198,.23573-.18879,.0466-.30196,.25899-.25144,.44284,.0528,.19211,.25345,.29818,.44284,.25144h0Z"/>
          <path class="cls-10" d="M104.75016,17.84737c.53779,.47964,1.22614,.67021,1.9128,.82749,.18317,.04195,.39838-.05621,.44284-.25144,.04176-.18336-.05511-.39787-.25144-.44284-.30412-.06966-.60895-.14104-.9027-.24753-.03596-.01304-.07172-.02659-.10726-.04073-.00775-.00308-.06584-.02738-.02315-.0091s-.01493-.00692-.02252-.01034c-.06931-.0312-.13744-.065-.20394-.10184s-.13131-.07667-.1939-.1198c-.0157-.01082-.03126-.02184-.04667-.03307-.00661-.00481-.05513-.04357-.02073-.01521,.03463,.02854-.01355-.01203-.01959-.01712-.01849-.01556-.03659-.03151-.05463-.04759-.14049-.1253-.37247-.14886-.50912,0-.12572,.13695-.15009,.37525,0,.50912h0Z"/>
          <path class="cls-10" d="M106.86016,17.11752c.0067,.01327,.01305,.02671,.01974,.03999,.02167,.043-.00455-.00914-.00934-.02477,.00866,.02826,.02164,.05556,.03099,.0837,.01881,.0566,.03384,.11448,.04515,.17304,.00284,.01468,.0052,.02943,.00781,.04415,.00882,.04977-.00428-.014-.00375-.029-.00103,.02914,.00583,.06028,.00732,.08956,.00324,.06364,.0023,.12749-.00267,.19102-.00117,.01493-.0032,.02985-.00419,.04478-.00315,.04761,.01294-.07571,.00404-.02886-.00559,.02943-.01007,.05897-.01647,.08826-.01274,.05833-.02905,.11584-.04898,.17213-.00496,.01401-.0108,.02777-.01556,.04183-.0149,.04403,.03096-.066,.01047-.02435-.01309,.02662-.0251,.05366-.03902,.0799-.02951,.05561-.06325,.10848-.1002,.15941-.11097,.15296-.03117,.40784,.12915,.49255,.18675,.09867,.37411,.0341,.49255-.12915,.38103-.52518,.40226-1.25769,.11467-1.82758-.08502-.16847-.33608-.23003-.49255-.12915-.17214,.11098-.22008,.31236-.12915,.49255h0Z"/>
          <path class="cls-10" d="M106.93933,16.88633c-.0445,.0058-.09053,.00861-.13415,.01997-.04248,.01106-.08289,.03109-.12283,.04855-.05748,.02513-.10391,.0639-.15291,.10343-.07418,.05985-.13666,.14211-.17994,.2267-.10468,.2046-.12496,.42808-.13151,.65431-.00262,.09061,.042,.19112,.10544,.25456,.06244,.06244,.16488,.10946,.25456,.10544,.19971-.00895,.35416-.15814,.36-.36,.00234-.08091,.00522-.16178,.01576-.24211l-.01286,.0957c.00944-.06618,.02431-.13098,.04934-.19311l-.03629,.086c.01761-.04134,.03965-.07984,.06671-.11573l-.05629,.07286c.02311-.02931,.04873-.05553,.07811-.07858l-.07286,.05629c.02381-.01768,.04886-.03241,.07614-.04407l-.086,.03629c.02143-.00834,.04284-.01432,.06553-.0181l-.0957,.01286,.00975-.00127c.04956,.00187,.0958-.00847,.1387-.03101,.04463-.01452,.08325-.03933,.11586-.07444,.06244-.06244,.10946-.16488,.10544-.25456-.00417-.0931-.03475-.18967-.10544-.25456-.06505-.05971-.16254-.11743-.25456-.10544h0Z"/>
          <path class="cls-10" d="M108.41104,16.17393c.00383,.02157,.0073,.04317,.01041,.06485l-.01286-.0957c.01803,.13628,.01809,.2733,.00085,.40966l.01286-.0957c-.01863,.13574-.05404,.26766-.10681,.39413l.03629-.086c-.0086,.01999-.01753,.0398-.0268,.05949-.04205,.08928-.06337,.17909-.03629,.2774,.023,.08351,.08756,.174,.16544,.21515,.08355,.04414,.18476,.06627,.2774,.03629,.08467-.0274,.17574-.08176,.21515-.16544,.08977-.19061,.14833-.37914,.17633-.58747,.02817-.20961,.01936-.40946-.01769-.61807-.01494-.0841-.0944-.17357-.16544-.21515-.07716-.04516-.19089-.06429-.2774-.03629-.08711,.02819-.17115,.08217-.21515,.16544-.04759,.09007-.05408,.17726-.03629,.2774h0Z"/>
          <path class="cls-10" d="M106.67507,25.46723c.29831,.02876,.6389-.04105,.7855-.33564,.07513-.15099,.08424-.32092,.02147-.47803-.03847-.09628-.07307-.19103-.09298-.29321-.01517-.07785-.01012-.00265-.00236-.00013-.00414-.00134-.00729-.07791-.00761-.08287-.0029-.04617-.00347-.09254-.00178-.13877,.00102-.02784,.00344-.0554,.00538-.08318,.00491-.07038-.00959,.04401-.00049-.00079,.01017-.05008,.01881-.09998,.03219-.1494,.01215-.04487,.02799-.08812,.04279-.13211,.0261-.07755-.02663,.05095,.00701-.01621,.01245-.02486,.02436-.04976,.03768-.07418,.02212-.04055,.04635-.08003,.07257-.11806,.01065-.01545,.06717-.0757,.01041-.01579,.01904-.0201,.03625-.04222,.05499-.06266,.12728-.13881,.14751-.3737,0-.50912-.13858-.12722-.37318-.14824-.50912,0-.30087,.32811-.47127,.75708-.47424,1.20315-.00136,.20533,.03227,.41962,.10887,.6107,.0091,.02269,.01943,.04495,.02806,.06782l.01022,.02788c.00878,.03464,.01055,.03777,.00532,.00937,.00863-.03427-.00188-.07122,.01856-.10559l.02629-.03224c-.02355,.02214-.0243,.02405-.00224,.00573,.02321-.017,.02101-.0168-.00661,.00059l.03853-.01625-.03268,.00906c.0346-.00276,.0386-.00329,.012-.00162-.06329-.00153-.12443-.00235-.18773-.00845-.18802-.01812-.36813,.17852-.36,.36,.00943,.21054,.15859,.34058,.36,.36h0Z"/>
          <path class="cls-10" d="M102.65097,24.46534c-1.45661,1.01542-3.28184,.72905-4.93865,.54523-1.59557-.17703-3.32889-.22256-4.68524,.7718-.36986,.27115-.01107,.89622,.3634,.6217,1.43575-1.05257,3.26641-.79044,4.92405-.60349,1.59743,.18015,3.32023,.24822,4.69985-.71353,.37743-.26311,.01795-.88754-.3634-.6217h0Z"/>
          <path class="cls-10" d="M107.9577,21.45079c-.50851,.20677-1.01814,.41099-1.5256,.62033-.19457,.08026-.35998,.18344-.3906,.41131-.0309,.22994,.12405,.38782,.29219,.51401,.22683,.17024,.45639,.33698,.68454,.50545,.15206,.11228,.40836,.0302,.49255-.12915,.0993-.18795,.03315-.37271-.12915-.49255-.1843-.13608-.3686-.27217-.5529-.40825-.04388-.0324-.08787-.06466-.13164-.0972,.07149,.05315-.00208-.01179-.0104-.01728l-.00862,.37158c-.04118,.03024-.04959,.03865-.02523,.02524,.03081-.01988-.06968,.02727,.00058-.00103,.02496-.01005,.04986-.02027,.07478-.03041l.16453-.0669,1.25638-.51086c.09042-.03677,.16391-.07789,.21515-.16544,.04516-.07716,.06429-.19089,.03629-.2774-.05429-.16776-.25605-.32739-.44284-.25144h0Z"/>
          <path class="cls-10" d="M115.26735,40.43137c1.87482-.51136,3.66152-1.49306,4.98813-2.92852,.60891-.65886,1.08281-1.39682,1.43552-2.22046,.4177-.9754,1.0041-2.02001,2.22265-1.97689,.46341,.0164,.46276-.70362,0-.72-.95893-.03393-1.83091,.52442-2.34333,1.31287-.28527,.43893-.44955,.93791-.67202,1.40837-.20002,.42299-.44703,.82433-.7331,1.19455-1.25275,1.62127-3.13368,2.70242-5.08926,3.2358-.44649,.12178-.25697,.81657,.1914,.69428h0Z"/>
          <path class="cls-10" d="M123.18456,34.64035c.56013,1.16576,1.67014,2.01238,2.89821,2.37305,.18647,.05477,.39197-.06628,.44284-.25144,.05241-.19075-.06421-.38786-.25144-.44284-1.0642-.31255-1.98265-1.03223-2.46791-2.04217-.0842-.17523-.33445-.22163-.49255-.12915-.17911,.10476-.21366,.31667-.12915,.49255h0Z"/>
          <path class="cls-10" d="M121.18222,38.05526l.05884,1.10322c.01001,.18774,.15841,.36903,.36,.36,.18646-.00835,.37074-.15859,.36-.36l-.05884-1.10322c-.01001-.18774-.15841-.36903-.36-.36-.18646,.00835-.37074,.15859-.36,.36h0Z"/>
          <path class="cls-10" d="M125.4384,34.26577c1.34685,.51203,2.79125,.7458,4.2303,.63552l-.31085-.5417c-.53704,1.17299-1.32784,2.10286-2.31938,2.91671-.92385,.75829-1.88379,1.45985-2.56598,2.45975-.26181,.38374,.36181,.74432,.6217,.3634,.6782-.99405,1.69063-1.67383,2.60019-2.43565,.97232-.81439,1.75547-1.78386,2.28517-2.94082,.10312-.22522-.0129-.56453-.31085-.5417-1.38345,.10602-2.7442-.1176-4.0389-.6098-.43353-.16482-.621,.53096-.1914,.69428h0Z"/>
          <path class="cls-10" d="M123.8128,32.91026c1.02046-1.67416,2.50246-3.00636,4.22947-3.92319l-.52884-.40655c-.16324,.83171,.07441,1.65981,.62549,2.3007,.12939,.15047,.27743,.28118,.43576,.40022,.07729,.05811,.22803,.11823,.28601,.19142,.07003,.0884,.02389,.19556,.00312,.32145-.09341,.56627-.18681,1.13254-.28022,1.69881-.07477,.45326,.61893,.64821,.69428,.1914,.09341-.56627,.18681-1.13254,.28022-1.69881,.0402-.24369,.11228-.50367,.01963-.74353-.08055-.20855-.25051-.32023-.43017-.43797-.66913-.43853-1.09879-1.22253-.93986-2.03229,.06057-.30859-.24059-.55958-.52884-.40655-1.83244,.9728-3.40591,2.40661-4.48777,4.1815-.24181,.39671,.38063,.7589,.6217,.3634h0Z"/>
          <path class="cls-10" d="M124.04143,39.74991c-.87131,.4837-1.66897,1.10603-2.31398,1.86872-.70794,.83709-1.1632,1.8475-1.85564,2.69364-1.26963,1.55149-3.13915,2.49193-5.10533,2.77974-.45677,.06686-.26258,.76073,.1914,.69428,1.94122-.28416,3.80911-1.19987,5.1472-2.64854,.72471-.78461,1.19424-1.73561,1.81134-2.59783,.6502-.90846,1.51548-1.62821,2.4884-2.16832,.40519-.22494,.04248-.84701-.3634-.6217h0Z"/>
          <path class="cls-10" d="M78.49611,56.07517c.46329,0,.46405-.72,0-.72-.46329,0-.46405,.72,0,.72h0Z"/>
          <path class="cls-10" d="M78.41061,56.24552c-.38372,.88791-.24603,1.90419,.40613,2.63177,.61721,.68859,1.61474,.98887,2.51326,.8086,.97211-.19503,1.5041-1.07185,1.94642-1.87682,.44184-.8041,.83426-1.65083,1.57349-2.22997,.36442-.2855-.14829-.79181-.50912-.50912-.58764,.46038-.98901,1.09488-1.34354,1.74187-.35073,.64006-.66773,1.43505-1.24821,1.90568-.60381,.48956-1.54369,.34807-2.1365-.08624-.61592-.45124-.88807-1.31006-.58024-2.02237,.18191-.42093-.43819-.78804-.6217-.3634h0Z"/>
          <path class="cls-10" d="M85.13175,54.63486c.59951-1.40109,.09644-2.9755-.23075-4.3854-.38432-1.6561-.73428-3.36872-.18786-5.0308,.14505-.4412-.54999-.63029-.69428-.1914-.48698,1.48125-.32454,3.03774-.00884,4.53673,.16669,.79146,.37275,1.57431,.52729,2.36838,.14839,.7625,.28952,1.59876-.02726,2.33909-.18028,.42133,.43977,.78857,.6217,.3634h0Z"/>
          <path class="cls-10" d="M78.90507,59.50773c.10435,.40863,.13777,.83253,.07484,1.25123-.06283,.41804-.22157,.81883-.2316,1.24551-.0084,.35733,.09552,.797,.42014,.99895,.36021,.22409,.85982,.03186,1.24717-.02919,.89511-.14107,1.7892-.18452,2.68998-.26089,.44342-.03759,.594-.33357,.57273-.74287-.02337-.44982-.02871-.89997-.01158-1.35012,.03883-1.02055,.19223-2.02871,.44673-3.01743,.11557-.44899-.57867-.64052-.69428-.1914-.24921,.96816-.40564,1.96054-.46088,2.95897-.02763,.49948-.02945,1.00041-.00519,1.50007,.00085,.01741-.00268,.25425,.01338,.26008,.14427-.11928,.14399-.16267-.00082-.13016-.06816,.00304-.13631,.00637-.20445,.01-.2555,.01359-.51076,.03137-.76568,.05319-.49089,.04202-.98026,.10006-1.46786,.17047-.26946,.03891-.54085,.07708-.80782,.13088-.04163,.00839-.14152,.04282-.17211,.02514-.06804-.03933-.07502-.23165-.07922-.29494-.03037-.45813,.18782-.92783,.23849-1.38121,.05241-.46903,.0089-.94105-.1077-1.39767-.11456-.44864-.80917-.2585-.69428,.1914h0Z"/>
          <path class="cls-10" d="M91.45972,30.24761c-1.55535,.28967-2.85013,1.37512-4.1273,2.24075-1.45264,.98456-2.90528,1.96911-4.35793,2.95367-2.28204,1.5467-5.65124,3.21272-5.76913,6.36748-.01732,.46338,.70271,.46266,.72,0,.05432-1.45358,1.0211-2.59522,2.1114-3.46088,1.21895-.9678,2.56994-1.78932,3.85746-2.66196,1.29811-.87982,2.59621-1.75963,3.89432-2.63945,1.19457-.80964,2.40965-1.83472,3.86259-2.10532,.45493-.08473,.26225-.77877-.1914-.69428h0Z"/>
          <path class="cls-10" d="M78.57625,56.07816c1.12439-2.04112,1.26477-4.32001,.5869-6.53099-.72276-2.35741-2.17854-4.70808-1.69524-7.26338,.08565-.45283-.60814-.64687-.69428-.1914-.44568,2.35641,.5674,4.5094,1.3617,6.66802,.41129,1.11773,.74996,2.26804,.74491,3.4692-.00516,1.22701-.33517,2.41317-.9257,3.48516-.22372,.40612,.39783,.76979,.6217,.3634h0Z"/>
          <path class="cls-10" d="M84.74647,44.38291c.14484-.67522,.15368-1.35882,.0336-2.03828-.03285-.18591-.26989-.30741-.44284-.25144-.19989,.06469-.28664,.24365-.25144,.44284,.00712,.04031,.01398,.08064,.0202,.1211,.00271,.01733,.00528,.03468,.00773,.05204-.00419-.03198-.00464-.0349-.00136-.00877,.00801,.07563,.0168,.151,.02242,.22687,.01078,.14577,.01489,.292,.01223,.43815-.00266,.14613-.01197,.29215-.02816,.43741-.00044,.00396-.01487,.11607-.00469,.0435-.00487,.03474-.0102,.06941-.01588,.10402-.01326,.08079-.02891,.1611-.04608,.24115-.0394,.18366,.05441,.39797,.25144,.44284,.18116,.04126,.4006-.05452,.44284-.25144h0Z"/>
          <path class="cls-10" d="M85.19678,44.27117c.15559-.9523,.6125-1.82915,1.36304-2.44796,.768-.63321,1.65392-.66246,2.5889-.83681,.89958-.16775,1.89932-.3061,2.68041-.81591,.73858-.48206,1.25386-1.21196,1.73721-1.93354,.25858-.38604-.36483-.74687-.6217-.3634-.49296,.73593-1.02879,1.5048-1.85826,1.88734-.46526,.21457-.997,.29771-1.49477,.40397-.52958,.11306-1.06041,.20597-1.59728,.27614-1.83772,.24022-3.20187,1.86403-3.49183,3.63875-.07406,.45327,.61964,.64828,.69428,.1914h0Z"/>
          <path class="cls-10" d="M89.46646,41.11536c-.18194,1.61962,1.28823,2.59597,1.78775,3.99018,.3663,1.02235-.00938,2.25804-.15973,3.29576-.16435,1.13435-.32869,2.2687-.49304,3.40304-.06566,.45323,.62799,.64894,.69428,.1914,.16948-1.1698,.33896-2.33959,.50845-3.50939,.14682-1.01336,.44931-2.13649,.25601-3.15955-.28863-1.52768-2.05541-2.59406-1.87373-4.21144,.05164-.45973-.66877-.45605-.72,0h0Z"/>
          <path class="cls-10" d="M115.65009,46.82417c-.61343,.35738-1.5157,.15586-2.04678-.27132-.62763-.50484-.9684-1.28688-1.56502-1.83227-.61256-.55996-1.32516-.99346-1.97644-1.50428-.61759-.4844-1.3646-1.14362-1.30931-2.00159,.02981-.46265-.6903-.46085-.72,0-.06091,.94516,.59531,1.72821,1.2723,2.30747,.76962,.65853,1.67684,1.15218,2.39582,1.87046,.64397,.64334,1.00498,1.5434,1.84578,1.98223,.74023,.38634,1.72301,.50446,2.46704,.07099,.40019-.23315,.03817-.85565-.3634-.6217h0Z"/>
          <path class="cls-10" d="M107.58868,34.6107c-.31779,1.22172-.05414,2.42633,.19187,3.63525,.29128,1.43137,.2573,2.70994-.11628,4.12487-.35302,1.33708-.75184,2.64012-.9478,4.01372-.19624,1.3756-.27431,2.76316-.34909,4.14957-.02497,.46302,.6951,.46163,.72,0,.0751-1.3923,.14653-2.78945,.35428-4.16963,.20609-1.36918,.63156-2.66735,.96944-4.00508,.30605-1.21168,.40339-2.38822,.19367-3.62431-.22105-1.30289-.66562-2.61126-.32181-3.93298,.11673-.44876-.57754-.6402-.69428-.1914h0Z"/>
          <path class="cls-10" d="M90.61052,52.95783c.46329,0,.46405-.72,0-.72-.46329,0-.46405,.72,0,.72h0Z"/>
          <path class="cls-10" d="M91.26986,53.61717c.46329,0,.46405-.72,0-.72-.46329,0-.46405,.72,0,.72h0Z"/>
          <path class="cls-10" d="M105.7261,51.23301c-.51432,.30248-.94352,.76767-1.18557,1.31459-.04051,.09154-.06397,.17688-.03629,.2774,.023,.08351,.08756,.174,.16544,.21515,.08355,.04414,.18476,.06627,.2774,.03629,.08341-.02699,.17807-.08167,.21515-.16544,.0532-.12021,.11491-.23636,.18572-.34716,.03543-.05543,.07355-.10876,.11237-.16183,.02566-.03508-.05414,.06762-.01615,.02086,.00986-.01214,.01955-.02442,.02949-.0365,.02186-.02658,.04424-.05273,.06713-.07843,.0853-.09577,.17775-.1852,.27629-.26729,.02446-.02038,.12223-.08451,.02267-.01954,.02606-.017,.05035-.03733,.07589-.05517,.05644-.03943,.11452-.07633,.17386-.11123,.16235-.09548,.23471-.32882,.12915-.49255-.10543-.16352-.31883-.23132-.49255-.12915h0Z"/>
          <path class="cls-10" d="M92.35018,54.00863c3.24952,2.65266,7.34869-.03025,10.92797-.04115,.46322-.00141,.46411-.72141,0-.72-1.92207,.00585-3.72032,.68341-5.58811,1.03623-1.61684,.30541-3.49227,.30843-4.83074-.7842-.35604-.29065-.86839,.21583-.50912,.50912h0Z"/>
          <path class="cls-10" d="M91.18646,54.61202l-.26374,1.45055c-.01765,.09706-.01507,.18963,.03629,.2774,.0437,.07468,.12932,.14589,.21515,.16544,.17617,.04013,.40682-.05332,.44284-.25144l.26374-1.45055c.01765-.09706,.01507-.18963-.03629-.2774-.0437-.07468-.12932-.14589-.21515-.16544-.17617-.04013-.40682,.05332-.44284,.25144h0Z"/>
          <path class="cls-10" d="M92.00686,56.7282c3.79274,2.47013,8.51719,1.96742,12.47457,.188,.42189-.1897,.05619-.81036-.3634-.6217-3.72864,1.67657-8.18011,2.13555-11.74777-.188-.38941-.25361-.75065,.36949-.3634,.6217h0Z"/>
          <path class="cls-10" d="M105.58609,55.06415l.68913-2.4728-.6017,.15886c.12396,.13892,.24343,.34402,.30119,.51938,.01648,.05002,.03092,.10078,.04323,.15199,.0077,.03202,.01447,.06423,.02051,.0966,.00133,.00711,.01182,.07241,.00883,.04969,.00221,.01678,.00843,.10356,.00966,.14883,.00179,.06593-.00079,.1316-.00551,.19734-.01395,.19416,.17544,.36,.36,.36,.20644,0,.34601-.16528,.36-.36,.04411-.61401-.18168-1.21674-.58879-1.67295-.18382-.206-.53215-.0907-.6017,.15886l-.68913,2.4728c-.12458,.44704,.56987,.63783,.69428,.1914h0Z"/>
          <path class="cls-10" d="M105.58672,53.08326c.21712,1.01937-.08257,2.1281-.78117,2.90103-.31003,.34302,.19762,.85376,.50912,.50912,.87854-.97201,1.23919-2.32047,.96633-3.60155-.04052-.19024-.26331-.30078-.44284-.25144-.1969,.05411-.29208,.25205-.25144,.44284h0Z"/>
          <path class="cls-10" d="M99.84613,55.44584c-.24411,.77078-.4516,1.71438-.03843,2.46572,.4537,.82503,1.48543,.93709,2.26203,.5258,.87957-.46582,1.22139-1.47784,1.39623-2.39454,.10738-.56302,.19289-1.13678,.20601-1.71061,.01103-.4824,.01252-1.05856-.24613-1.48531-.24978-.41212-.82348-.6219-1.24374-.33135-.52324,.36174-.19773,.90764-.19904,1.39901-.00124,.46334,.71876,.464,.72,0,.00056-.21058-.05567-.40622-.09563-.61081-.02186-.11194-.07192-.24814,.08973-.18955,.33576,.12169,.26077,.95716,.25481,1.21802-.012,.525-.08785,1.04646-.18828,1.56121-.08346,.42775-.18729,.86272-.4006,1.2464-.31864,.57315-1.2354,1.20797-1.81635,.57461-.48836-.53241-.19531-1.48044-.00633-2.07718,.14022-.44276-.55466-.63225-.69428-.1914h0Z"/>
          <path class="cls-10" d="M100.45352,54.52602l-.92308,1.71429c-.08925,.16575-.04682,.39957,.12915,.49255,.16753,.08851,.39721,.04791,.49255-.12915l.92308-1.71429c.08925-.16575,.04682-.39957-.12915-.49255-.16753-.08851-.39721-.04791-.49255,.12915h0Z"/>
          <path class="cls-10" d="M103.10002,47.55453c.47239-1.27532,1.1472-2.48272,1.99083-3.55001,.12045-.15239,.14873-.36038,0-.50912-.12511-.12511-.38789-.15336-.50912,0-.92597,1.17146-1.65716,2.46702-2.17599,3.86772-.06754,.18235,.07546,.39449,.25144,.44284,.20124,.05529,.37506-.06843,.44284-.25144h0Z"/>
          <path class="cls-10" d="M95.72363,29.96644c.95294,2.43324,1.90651,4.86624,2.85883,7.29972,.88544,2.26257,1.77568,4.57242,1.81687,7.03351,.00439,.26255,.30605,.46232,.5417,.31085,.13335-.08572,.26671-.17144,.40006-.25716l-.52884-.40655c-.07087,.39371-.06199,.73229,.0588,1.11577,.08386,.26624,.39756,.34236,.6017,.15886,.50114-.45047,.76261-1.01867,.82617-1.68443,.02703-.28313-.3224-.43358-.5417-.31085-.6763,.37849-1.13497,.97644-1.32431,1.7279-.07239,.28728,.25772,.58879,.52884,.40655,.62607-.42082,.96906-1.00145,1.06403-1.74603,.04057-.3181-.41543-.46327-.61456-.25456-.27326,.28641-.45905,.59605-.59333,.9679-.15765,.43655,.53784,.62461,.69428,.1914,.09179-.25417,.22196-.45502,.40817-.65018l-.61456-.25456c-.06029,.47267-.31508,.86062-.70743,1.12434l.52884,.40655c.14492-.57514,.47733-1.00877,.99343-1.29761l-.5417-.31085c-.04591,.48086-.26049,.85639-.61529,1.17531l.6017,.15886c-.07939-.25206-.10654-.46773-.0588-.73296,.05165-.28694-.24318-.59017-.52884-.40655-.13335,.08572-.26671,.17144-.40006,.25716l.5417,.31085c-.04116-2.45915-.88299-4.76918-1.76758-7.03325-.97595-2.49791-1.95589-4.99426-2.93385-7.49138-.16709-.42664-.86361-.24096-.69428,.1914h0Z"/>
          <path class="cls-10" d="M103.30547,30.57585c.08329,1.98248-.0049,3.96679-.26374,5.93407-.02558,.19441,.1838,.35816,.36,.36,.21547,.00225,.33474-.168,.36-.36,.25883-1.96728,.34703-3.95159,.26374-5.93407-.01939-.46163-.7395-.46408-.72,0h0Z"/>
          <path class="cls-10" d="M99.76315,35.81317c.14805,.41908,.36616,.79295,.65834,1.12792,.1329,.15237,.37202,.12239,.50912,0,.83365-.7442,1.46719-1.67892,1.87754-2.71601,.07156-.18085-.07837-.39529-.25144-.44284-.20458-.05621-.37102,.06993-.44284,.25144-.35849,.90603-.95162,1.73703-1.69238,2.3983h.50912c-.19918-.22835-.37357-.52826-.47317-.81021-.06474-.18324-.24586-.30557-.44284-.25144-.17755,.04879-.3165,.25866-.25144,.44284h0Z"/>
          <path class="cls-10" d="M114.35851,43.2428c1.22473-1.51786,2.69469-2.81777,4.35731-3.83783,.3943-.24191,.03302-.86491-.3634-.6217-1.71224,1.05051-3.24143,2.38686-4.50302,3.95041-.12199,.15118-.14777,.36135,0,.50912,.12622,.12622,.38639,.1521,.50912,0h0Z"/>
          <path class="cls-10" d="M104.45668,30.40838c.46329,0,.46405-.72,0-.72-.46329,0-.46405,.72,0,.72h0Z"/>
          <path class="cls-10" d="M104.96587,29.89054l.36347-.28397-.56541-.07286c.92295,1.54954,1.37163,3.32781,1.30026,5.12956-.01836,.46335,.70168,.46253,.72,0,.07615-1.92219-.41435-3.84058-1.39856-5.49296-.13-.21827-.38487-.21391-.56541-.07286l-.36347,.28397c-.15443,.12065-.12418,.38219,0,.50912,.14962,.15293,.35675,.11904,.50912,0h0Z"/>
          <path class="cls-10" d="M83.99456,52.85925c-.39269-1.0917-.99097-2.08934-1.76951-2.94973-.1305-.14422-.37647-.13265-.50912,0-.14345,.14345-.13084,.36452,0,.50912,.69144,.76413,1.23537,1.66186,1.58434,2.63202,.06578,.18286,.24509,.30578,.44284,.25144,.1767-.04856,.31756-.25901,.25144-.44284h0Z"/>
          <path class="cls-10" d="M87.35115,41.58783c.12755,.91156,.27717,1.82079,.46957,2.72107,.1916,.89648,.41554,1.80008,.8018,2.63512,.11437,.24725,.50003,.22226,.6217,0,.54295-.99182,1.18983-1.91714,1.94106-2.7624,.3069-.34531-.20054-.85632-.50912-.50912-.79109,.8901-1.48176,1.86344-2.05364,2.90811h.6217c-.36922-.79821-.56555-1.68561-.74597-2.5421-.18421-.87452-.32899-1.75715-.45282-2.6421-.02715-.19403-.27248-.29635-.44284-.25144-.20787,.0548-.27825,.25121-.25144,.44284h0Z"/>
          <path class="cls-10" d="M73.46437,82.30614c-1.07894,1.48558-1.05945,3.59555-.9868,5.35437,.0777,1.88103,.42018,3.76723,1.14903,5.50879,.31489,.75241,.68792,1.56314,1.21201,2.19733,.63124,.76387,1.17378-.01745,1.42308-.64393,.69351-1.74276,.79593-3.71664,1.87075-5.29855,.26109-.38426-.36249-.7449-.6217-.3634-.86826,1.27789-1.13305,2.81067-1.5464,4.27037-.09854,.34799-.20397,.69479-.3323,1.03311-.05133,.13835-.10733,.27479-.16802,.40934-.03628,.17076-.0762,.1972-.11976,.0793-.11331-.05506-.26241-.4097-.3289-.52-.40337-.66917-.73053-1.38084-.98785-2.11822-.53155-1.52324-.78681-3.13222-.83676-4.74197-.04927-1.58748-.07817-3.46276,.89532-4.80315,.27265-.37541-.35173-.73511-.6217-.3634h0Z"/>
          <path class="cls-10" d="M103.41622,27.78831c1.19014,.97477,2.79546,.61257,4.05694,1.37884,1.29484,.78654,1.62491,2.52221,2.09894,3.84215,1.04823,2.91882,3.04878,5.41209,5.6527,7.09171,.39053,.2519,.7519-.3711,.3634-.6217-2.73524-1.76433-4.55496-4.36669-5.58154-7.42349-.40645-1.21026-.84915-2.54103-1.91564-3.33601-1.23216-.91847-2.99382-.48083-4.16567-1.44062-.35565-.29129-.86795,.21522-.50912,.50912h0Z"/>
          <path class="cls-10" d="M78.72594,88.77687c-.00025-.04811,.00097-.09613,.00471-.14411,.00184-.02358,.0062-.04777,.00716-.07135-.00408,.09986-.00315,.02708,.00148,.00153,.01617-.08919,.03981-.17701,.07006-.26245,.00785-.02216,.01667-.04391,.02487-.06593,.01172-.03147-.03396,.07501,.00084,.00006,.01798-.03872,.03734-.07678,.05811-.11408,.02248-.04038,.04658-.07987,.07221-.11832,.01275-.01913,.02616-.0377,.03934-.05652,.04618-.06598-.05258,.06165-.00068,.00048,.05597-.06599,.11359-.12934,.17829-.18699,.01655-.01475,.03387-.02857,.05057-.04312,.03331-.02905-.06444,.04562-.01197,.00917,.03583-.0249,.07132-.04978,.10882-.07217,.03705-.02212,.07526-.04138,.11381-.06065,.0686-.03429-.07963,.02843-.00769,.00267,.01999-.00716,.03967-.01483,.05986-.02146,.04011-.01317,.08095-.02419,.12227-.03282,.01719-.00359,.03469-.00581,.05183-.00949,.02832-.00444,.01384-.00251-.04345,.00579,.01401-.00153,.02804-.00279,.0421-.00376,.18727-.01485,.36918-.15494,.36-.36-.00816-.18229-.15896-.37594-.36-.36-.97665,.07743-1.66747,1.0202-1.66254,1.96354,.00098,.18827,.16488,.36874,.36,.36,.19421-.0087,.36106-.1582,.36-.36h0Z"/>
          <path class="cls-10" d="M82.84832,85.52619c-.88947,.26199-1.78409,.50584-2.68137,.73957-.18816,.04901-.30244,.25726-.25144,.44284,.05227,.1902,.25406,.30061,.44284,.25144,.89728-.23373,1.7919-.47758,2.68137-.73957,.18648-.05493,.30361-.253,.25144-.44284-.05097-.18548-.25565-.30658-.44284-.25144h0Z"/>
          <path class="cls-10" d="M76.55287,82.93685c1.93131-.16596,3.59639-1.16983,5.12008-2.30083,.15728-.11675,.23284-.31035,.12915-.49255-.08815-.1549-.33682-.24475-.49255-.12915-1.40679,1.04424-2.96623,2.04868-4.75668,2.20253-.45819,.03937-.46236,.75973,0,.72h0Z"/>
          <path class="cls-10" d="M108.00438,83.551c-.62604-1.57514-1.45581-3.04846-2.51135-4.37649-.48968-.61609-1.0396-1.16675-1.58738-1.72959-.54404-.55899-1.08898-1.19062-1.19073-1.99438-.05741-.45349-.77813-.45923-.72,0,.20439,1.61459,1.55395,2.56047,2.55268,3.70839,1.17606,1.35173,2.10143,2.92022,2.76249,4.58347,.1691,.42547,.86573,.23996,.69428-.1914h0Z"/>
          <path class="cls-10" d="M111.29,97.20582c-.41714,1.45177-.8399,2.90191-1.25704,4.35368-.12819,.44616,.56635,.63665,.69428,.1914,.41714-1.45177,.8399-2.90191,1.25704-4.35368,.12819-.44616-.56635-.63665-.69428-.1914h0Z"/>
          <path class="cls-10" d="M110.22094,102.90619c.62963,.45115,1.16072,1.01859,1.59104,1.66119l.31085-.5417c-2.31185-.27984-4.61308-.63916-6.90108-1.07261-.45283-.08579-.64685,.608-.1914,.69428,2.35132,.44544,4.7167,.81075,7.09248,1.09833,.26908,.03257,.45213-.33072,.31085-.5417-.50267-.75064-1.11471-1.39311-1.84935-1.9195-.37728-.27033-.73717,.35388-.3634,.6217h0Z"/>
          <path class="cls-10" d="M76.23825,83.89706c-.50415,2.26236,.31944,4.49459,.32328,6.76037,.00079,.46325,.72079,.46409,.72,0-.00371-2.18719-.83463-4.38972-.349-6.56897,.10059-.45141-.59338-.64419-.69428-.1914h0Z"/>
          <path class="cls-10" d="M74.69413,82.55996l-1.22132-.05322,.1817,.67085c.82167-.53911,1.77073-.83993,2.75461-.85298,.46294-.00614,.46424-.72616,0-.72-1.10477,.01466-2.19389,.34496-3.11801,.95129-.30033,.19705-.18119,.65504,.1817,.67085l1.22132,.05322c.19442,.00847,.36-.17152,.36-.36,0-.20204-.16498-.3515-.36-.36h0Z"/>
          <path class="cls-10" d="M105.39891,103.23595c-.31516,.305-.37661,.84813-.4346,1.25786-.06813,.4814-.14089,1.03824-.01483,1.51715,.16207,.61569,.87114,.85019,1.41514,1.01855,.95039,.29413,1.91454,.55072,2.88072,.78729,1.96219,.48045,3.95331,.84704,5.96229,1.06398,.65359,.07058,1.62157,.32365,2.21508-.09223,.61722-.43249,.22293-1.10243-.0793-1.59266-1.03219-1.67426-2.40434-3.10256-4.01422-4.22856-.38053-.26615-.74075,.35777-.3634,.6217,1.42885,.99937,2.66051,2.26606,3.60622,3.73229,.10653,.16517,.35819,.44702,.38919,.64104,.05323,.33317-.12091,.31038-.34985,.31942-.45658,.01803-.95058-.07197-1.40372-.121-.9911-.10722-1.97735-.25481-2.95784-.43449-1.88732-.34586-3.75427-.80819-5.59155-1.36054-.30896-.09289-.84993-.19128-1.00613-.50897-.08916-.18134-.04181-.51301-.03251-.70885,.01713-.36056,.00714-1.13063,.28843-1.40286,.33358-.32282-.17586-.83163-.50912-.50912h0Z"/>
          <path class="cls-10" d="M111.09504,103.77049c.46329,0,.46405-.72,0-.72-.46329,0-.46405,.72,0,.72h0Z"/>
          <path class="cls-10" d="M110.83555,102.69409c.22441,.04069,.44435,.10101,.65737,.18267,.02877,.01103,.05754,.02218,.08595,.03415-.04398-.01854,.0179,.00846,.03286,.01526,.0506,.02299,.1007,.04707,.15023,.0723,.10472,.05335,.20689,.11167,.30616,.17458,.20752,.13151,.31965,.21855,.49957,.38855,.08145,.07696,.15954,.1575,.23379,.24143,.04133,.04672,.08135,.09457,.12039,.14322,.00774,.00964,.03467,.04573,.01248,.01605,.02247,.03005,.04435,.06048,.06607,.09108,.11238,.15833,.31422,.23346,.49255,.12915,.15654-.09156,.24227-.33318,.12915-.49255-.61508-.86653-1.54252-1.49931-2.59516-1.69017-.18465-.03348-.39702,.05027-.44284,.25144-.04011,.17609,.0533,.40692,.25144,.44284h0Z"/>
          <path class="cls-10" d="M91.09284,57.29673c-.37618,.49807-.656,1.06766-.83222,1.66612-.05318,.18059,.06418,.40019,.25144,.44284,.19307,.04398,.3859-.05804,.44284-.25144,.04189-.14227,.0895-.28271,.14389-.4207,.0064-.01624,.05127-.13165,.01651-.04257,.01343-.03443,.02958-.06811,.04487-.10174,.02877-.06327,.0589-.12591,.09035-.18789,.13217-.26053,.28799-.50815,.46402-.74123,.05249-.0695,.05825-.19768,.03629-.2774-.023-.08351-.08756-.174-.16544-.21515-.18951-.10013-.37091-.03191-.49255,.12915h0Z"/>
          <path class="cls-10" d="M88.98402,61.01248c-.36313,6.11657-2.88282,12.03958-7.09485,16.49711-.31813,.33667,.19008,.84675,.50912,.50912,4.34709-4.60046,6.93106-10.69519,7.30573-17.00623,.02748-.46284-.69262-.46124-.72,0h0Z"/>
          <path class="cls-10" d="M81.5054,77.30814l-.68696,.61062c-.12384,.11008-.126,.29904-.05629,.43626,1.45952,2.87301,1.94647,6.11949,3.36542,9.01139,1.38502,2.82275,3.45483,5.23122,5.49149,7.59823,.30272,.35182,.81004-.15939,.50912-.50912-2.04109-2.37215-4.10611-4.78395-5.46444-7.62918-1.35826-2.84509-1.84849-6.01705-3.2799-8.83472l-.05629,.43626,.68696-.61062c.34703-.30847-.16367-.81617-.50912-.50912h0Z"/>
          <path class="cls-10" d="M91.93007,95.98566c2.77687,.88133,5.62265,1.52431,8.51063,1.9104,2.6089,.34878,5.39506,.36888,7.71166,1.77372,.39723,.24089,.7595-.38149,.3634-.6217-2.24575-1.36188-4.89361-1.482-7.43307-1.78984-3.04143-.36869-6.04198-1.04034-8.96122-1.96686-.44267-.1405-.63214,.5544-.1914,.69428h0Z"/>
          <path class="cls-10" d="M110.42903,98.18599c1.31065-.63889,2.74122-1.01802,4.19638-1.11004,.28962-.01832,.50258-.39314,.25456-.61456-.53246-.47535-.86977-1.08977-1.00111-1.79026-.08529-.45485-.77934-.26222-.69428,.1914,.15172,.80913,.57185,1.55945,1.18628,2.10797l.25456-.61456c-1.58847,.10045-3.12941,.5111-4.55978,1.20834-.41644,.203-.05186,.82412,.3634,.6217h0Z"/>
          <path class="cls-10" d="M101.30898,95.56737c.6941-3.77675,1.57832-7.51499,2.65043-11.20229,.12962-.44579-.56496-.63616-.69428-.1914-1.07211,3.68731-1.95633,7.42555-2.65043,11.20229-.08325,.45297,.61051,.64721,.69428,.1914h0Z"/>
          <path class="cls-10" d="M107.30087,97.11263c1.19457-2.34642,.59128-4.98973,.77419-7.50261,.03365-.46229-.6865-.46016-.72,0-.17163,2.35782,.44441,4.93867-.67589,7.13922-.20978,.41207,.4112,.77688,.6217,.3634h0Z"/>
          <path class="cls-10" d="M99.35342,62.19837c-.38387,2.45387,.20807,4.99896,1.6922,6.99972,.27299,.36803,.89822,.00938,.6217-.3634-1.36264-1.83699-1.97426-4.17787-1.61962-6.44492,.07091-.45329-.62277-.64856-.69428-.1914h0Z"/>
          <path class="cls-10" d="M105.59608,56.86266c-.46178,2.35045,.57943,4.58159,1.45051,6.70778,.88237,2.15374,1.8116,4.30271,3.06078,6.2737,.59235,.93462,1.2559,1.82486,1.79164,2.79478,.56778,1.02793,.90642,2.13673,1.1098,3.28964,.42581,2.41386,.49457,4.93182,.51691,7.37798,.02611,2.85987-.13535,5.718-.47155,8.55794-.05436,.45921,.6661,.4553,.72,0,.58056-4.90402,.6807-9.92142,.11292-14.83262-.12671-1.09605-.30987-2.19301-.67887-3.2363-.36133-1.0216-.91163-1.94807-1.5073-2.84822-1.26233-1.90758-2.3632-3.84052-3.27661-5.94157-.53862-1.23894-1.0652-2.49135-1.53439-3.75849-.49689-1.34196-.88128-2.75929-.59957-4.19321,.08892-.45261-.6049-.64637-.69428-.1914h0Z"/>
          <path class="cls-10" d="M112.88697,92.99266c-.3919,.95632-.45696,2.02974-.21414,3.03206,.10905,.45012,.80352,.25951,.69428-.1914-.21453-.88554-.13065-1.80788,.21414-2.64925,.07376-.17998-.07998-.39573-.25144-.44284-.20642-.05672-.36881,.07078-.44284,.25144h0Z"/>
          <path class="cls-10" d="M91.79114,94.19256c2.20314-3.09835,2.96491-6.8941,3.67028-10.55691,.08718-.45273-.60661-.64664-.69428-.1914-.69424,3.60507-1.4289,7.33487-3.59769,10.38492-.26901,.37832,.35511,.73831,.6217,.3634h0Z"/>
          <path class="cls-10" d="M105.15162,55.86156c-.06337,.49273-.06337,.99078,0,1.48352,.01276,.09921,.03174,.18086,.10544,.25456,.06244,.06244,.16488,.10946,.25456,.10544,.17444-.00781,.38573-.15994,.36-.36-.06337-.49273-.06337-.99078,0-1.48352,.01089-.08467-.04809-.1972-.10544-.25456-.06244-.06244-.16488-.10946-.25456-.10544-.0931,.00417-.18967,.03475-.25456,.10544-.06906,.07523-.09253,.15416-.10544,.25456h0Z"/>
          <path class="cls-10" d="M90.0393,60.50776c.03903-.17347,.08696-.34467,.14533-.51266,.02918-.08396,.06104-.1669,.09472-.24915-.01411,.03446-.0083,.0192,.00291-.00597,.00904-.0203,.01801-.04062,.02723-.06083,.02075-.04548,.04226-.09061,.06447-.13539,.07896-.15923,.16704-.31392,.26375-.46304,.04835-.07456,.09885-.1477,.15145-.21933,.01315-.01791,.02666-.03554,.03983-.05343,.03378-.04588-.03139,.03773,.00491-.00618,.03185-.03853,.06282-.07774,.09501-.11601,.12107-.14394,.15169-.36987,0-.50912-.13352-.12257-.37967-.1539-.50912,0-.52077,.61915-.89678,1.34867-1.07478,2.1397-.04125,.18331,.05572,.39826,.25144,.44284,.18275,.04162,.39863-.05494,.44284-.25144h0Z"/>
          <path class="cls-10" d="M90.4988,95.51977c.45451,.25791,.94514,.4103,1.46182,.47584,.08477,.01075,.1971-.04798,.25456-.10544,.06244-.06244,.10946-.16488,.10544-.25456-.00417-.0931-.03475-.18967-.10544-.25456-.07517-.06901-.15417-.09271-.25456-.10544-.0152-.00187-.03038-.00385-.04555-.00594l.0957,.01286c-.21262-.02993-.42211-.07863-.62563-.14722-.05091-.01716-.10143-.03549-.15147-.05503-.02134-.00833-.04256-.01809-.06413-.02576,.10225,.03633,.00187,.00031-.01975-.0095-.09814-.0445-.19389-.09378-.2876-.14696-.16383-.09297-.40095-.04422-.49255,.12915-.0902,.17072-.0458,.39327,.12915,.49255h0Z"/>
          <path class="cls-10" d="M84.57882,76.61325c1.01072,3.8927,4.39738,6.49222,7.62381,8.56347,3.75598,2.41119,7.94165,4.25266,12.41062,4.74609,2.56532,.28325,5.17514,.09057,7.6512-.64849,.44292-.1322,.25428-.82731-.1914-.69428-4.24976,1.26847-8.77891,.81551-12.90771-.6833-1.97702-.71768-3.86437-1.66903-5.66219-2.7572-1.69143-1.02378-3.35753-2.14298-4.81924-3.48021-1.56843-1.43487-2.8698-3.15381-3.41081-5.23748-.11636-.44813-.811-.25815-.69428,.1914h0Z"/>
          <path class="cls-10" d="M88.70542,65.77654c-.66138,3.10726-1.03684,6.26866-1.11963,9.44446-.01208,.46349,.70793,.46322,.72,0,.08115-3.11304,.44558-6.20713,1.09391-9.25306,.09619-.45193-.59772-.64508-.69428-.1914h0Z"/>
          <path class="cls-10" d="M108.85423,99.27522l1.8781-1.01703c.16579-.08978,.23213-.33281,.12915-.49255-.10848-.16826-.3152-.22519-.49255-.12915l-1.8781,1.01703c-.16579,.08978-.23213,.33281-.12915,.49255,.10848,.16826,.3152,.22519,.49255,.12915h0Z"/>
          <path class="cls-10" d="M105.31098,99.46606c-.07076,.66802,.12204,1.31754,.23451,1.96955,.08676,.503,.10492,1.05466-.1824,1.49825-.25264,.39005,.37041,.75136,.6217,.3634,.3467-.53527,.37485-1.18723,.29278-1.80165-.09059-.67821-.31985-1.33785-.24659-2.02954,.02051-.19364-.18014-.36-.36-.36-.2117,0-.33943,.16581-.36,.36h0Z"/>
          <path class="cls-10" d="M94.73404,31.49893c.04715,1.14706,.22722,2.28784,.54033,3.39241,.12616,.44506,.82108,.25591,.69428-.1914-.29625-1.04507-.47-2.11563-.51461-3.201-.01898-.46168-.73908-.46409-.72,0h0Z"/>
          <path class="cls-10" d="M90.77883,52.89055c.12787,.70454,.58482,1.33796,1.19719,1.70327,.16187,.09656,.40229,.04168,.49255-.12915,.09185-.17385,.04366-.38946-.12915-.49255-.06458-.03852-.12621-.08062-.18723-.12449-.05246-.03772,.04449,.03674,.01067,.00807-.01428-.01211-.02906-.02367-.04334-.03579-.02857-.02425-.0565-.04926-.08377-.07497-.05456-.05143-.10643-.10571-.15547-.16243-.01226-.01418-.02431-.02855-.03621-.04305-.00479-.00577-.00952-.0116-.01418-.01747-.01681-.02105-.00961-.01152,.02159,.02859-.00794-.0282-.04873-.06603-.06596-.09115-.04242-.06185-.08173-.12586-.11769-.19168-.01797-.0329-.03512-.06627-.05139-.10004-.00651-.01351-.01288-.02709-.01911-.04072-.00296-.00648-.03324-.07565-.00883-.01884,.02358,.05487-.00244-.00735-.00711-.01955-.00671-.0175-.01317-.03508-.01943-.05275-.01251-.03533-.02409-.07097-.03473-.10691-.02235-.07557-.04004-.15225-.05411-.22978-.03371-.18573-.26929-.3076-.44284-.25144-.19919,.06446-.28755,.24384-.25144,.44284h0Z"/>
          <path class="cls-10" d="M91.40472,56.22422c-.32113,.52434-.58084,1.08596-.77936,1.66779-.06087,.1784,.0697,.40145,.25144,.44284,.19981,.04551,.37767-.06043,.44284-.25144,.04713-.13814,.09762-.27508,.15219-.41046,.00599-.01486,.05403-.13282,.01953-.04885,.01109-.02699,.02299-.05368,.0347-.0804,.02929-.06684,.05953-.13325,.09068-.19924,.12256-.25965,.25974-.51202,.40969-.75685,.09848-.16079,.04031-.40301-.12915-.49255-.17552-.09274-.38743-.04248-.49255,.12915h0Z"/>
          <path class="cls-10" d="M106.44313,50.46345c-.23714,.25331-.45246,.52921-.64159,.82009-.04949,.07611-.05993,.19157-.03629,.2774,.023,.08351,.08756,.174,.16544,.21515,.1794,.09479,.38277,.03969,.49255-.12915,.08011-.12322,.1651-.2431,.25482-.3595l-.05629,.07286c.1041-.13433,.21433-.26367,.33047-.38773,.06442-.06882,.10544-.1591,.10544-.25456,0-.0883-.03922-.19377-.10544-.25456-.06861-.06298-.15868-.10974-.25456-.10544-.09366,.00419-.18874,.03514-.25456,.10544h0Z"/>
        </g>
      </g>
      <g>
        <rect class="cls-7" x="52" y="54.34108" width="96" height="20.33234" rx="8.4" ry="8.4"/>
        <text class="cls-4" transform="translate(100 68.26221)"><tspan text-anchor="middle" x="0" y="0" id="inner-text"></tspan></text>
      </g>
    </g>
  </g>
</svg>